{
.appVersion = "3316";
.formatVersion = 3;
axes = (
{
name = Weight;
tag = wght;
}
);
customParameters = (
{
name = fsType;
value = (
);
},
{
name = "Use Typo Metrics";
value = 1;
}
);
date = "2016-06-11 02:01:29 +0000";
familyName = Jost;
featurePrefixes = (
{
automatic = 1;
code = "languagesystem DFLT dflt;

languagesystem latn dflt;
languagesystem latn CAT;
";
name = Languagesystems;
}
);
features = (
{
automatic = 1;
code = "feature locl;
feature subs;
feature sinf;
feature sups;
feature frac;
feature ordn;
feature fwid;
";
tag = aalt;
},
{
automatic = 1;
code = "script latn;
language CAT;
lookup locl_latn_0 {
	sub  l' periodcentered' l by ldot;
	sub  L' periodcentered' L by Ldot;
} locl_latn_0;
";
tag = locl;
},
{
automatic = 1;
code = "sub zero by zeroinferior;
sub one by oneinferior;
sub two by twoinferior;
sub three by threeinferior;
sub four by fourinferior;
sub five by fiveinferior;
sub six by sixinferior;
sub seven by seveninferior;
sub eight by eightinferior;
sub nine by nineinferior;
";
tag = subs;
},
{
automatic = 1;
code = "sub zero by zeroinferior;
sub one by oneinferior;
sub two by twoinferior;
sub three by threeinferior;
sub four by fourinferior;
sub five by fiveinferior;
sub six by sixinferior;
sub seven by seveninferior;
sub eight by eightinferior;
sub nine by nineinferior;
";
tag = sinf;
},
{
automatic = 1;
code = "sub zero by zerosuperior;
sub one by onesuperior;
sub two by twosuperior;
sub three by threesuperior;
sub four by foursuperior;
sub five by fivesuperior;
sub six by sixsuperior;
sub seven by sevensuperior;
sub eight by eightsuperior;
sub nine by ninesuperior;
";
tag = sups;
},
{
automatic = 1;
code = "sub one slash eight by oneeighth;
sub one slash four by onequarter;
sub three slash eight by threeeighths;
sub one slash two by onehalf;
sub five slash eight by fiveeighths;
sub three slash four by threequarters;
sub seven slash eight by seveneighths;
sub one slash three by onethird;
sub two slash three by twothirds;
";
tag = frac;
},

glyphs = (
{
glyphname = A;
lastChange = "2024-07-24 13:57:39 +0000";
layers = (
{
layerId = m001;
shapes = (
{
closed = 1;
nodes = (
(209,289,l),
(504,289,l),
(506,210,l),
(156,210,l)
);
},
{
closed = 1;
nodes = (
(239,264,l),
(226,246,l),
(42,0,l),
(-55,0,l),
(507,738,l),
(561,0,l),
(473,0,l),
(459,240,l),
(459,260,l),
(446,542,l)
);
}
);
width = 620;
},
{
layerId = "E79D52FD-16C9-4CD8-B33B-848E03DA3A4F";
shapes = (
{
closed = 1;
nodes = (
(223,248,l),
(578,248,l),
(522,90,l),
(167,90,l)
);
},
{
closed = 1;
nodes = (
(301,188,l),
(301,137,l),
(184,0,l),
(-68,0,l),
(566,755,l),
(682,0,l),
(452,0,l),
(434,133,l),
(459,189,l),
(441,382,l)
);
}
);
width = 733;
},
{
layerId = "6A4E6D7A-FBCF-4CEF-9028-EBF7BE717EF8";
shapes = (
{
closed = 1;
nodes = (
(163,282,l),
(486,282,l),
(483,272,l),
(160,272,l)
);
},
{
closed = 1;
nodes = (
(169,277,l),
(167,273,l),
(-30,0,l),
(-42,0,l),
(473,715,l),
(496,0,l),
(484,0,l),
(478,273,l),
(478,276,l),
(465,688,l)
);
}
);
width = 564;
}
);
unicode = 65;
},
{
glyphname = Aacute;
lastChange = "2024-07-24 13:57:39 +0000";
layers = (
{
layerId = m001;
shapes = (
{
closed = 1;
nodes = (
(209,289,l),
(504,290,l),
(506,210,l),
(156,212,l)
);
},
{
closed = 1;
nodes = (
(239,264,l),
(226,246,l),
(42,0,l),
(-55,0,l),
(507,738,l),
(561,0,l),
(473,0,l),
(459,240,l),
(459,260,l),
(446,542,l)
);
},
{
closed = 1;
nodes = (
(485,797,l),
(447,828,l),
(640,984,l),
(703,940,l)
);
}
);
width = 620;
},
{
layerId = "E79D52FD-16C9-4CD8-B33B-848E03DA3A4F";
shapes = (
{
closed = 1;
nodes = (
(223,248,l),
(578,248,l),
(522,90,l),
(167,90,l)
);
},
{
closed = 1;
nodes = (
(301,188,l),
(301,137,l),
(184,0,l),
(-68,0,l),
(566,755,l),
(682,0,l),
(452,0,l),
(424,133,l),
(459,189,l),
(451,382,l)
);
},
{
closed = 1;
nodes = (
(595,811,l),
(495,867,l),
(684,1018,l),
(808,953,l)
);
}
);
width = 733;
},
{
layerId = "6A4E6D7A-FBCF-4CEF-9028-EBF7BE717EF8";
shapes = (
{
closed = 1;
nodes = (
(161,282,l),
(486,282,l),
(483,272,l),
(158,272,l)
);
},
{
closed = 1;
nodes = (
(169,277,l),
(167,273,l),
(-30,0,l),
(-42,0,l),
(473,715,l),
(496,0,l),
(484,0,l),
(478,273,l),
(478,276,l),
(465,688,l)
);
},
{
closed = 1;
nodes = (
(456,777,l),
(454,782,l),
(670,938,l),
(675,930,l)
);
}
);
width = 564;
}
);
unicode = 193;
},
{
glyphname = Abreve;
lastChange = "2024-07-24 13:57:39 +0000";
layers = (
{
layerId = m001;
shapes = (
{
closed = 1;
nodes = (
(209,289,l),
(504,290,l),
(506,210,l),
(156,212,l)
);
},
{
closed = 1;
nodes = (
(239,264,l),
(226,246,l),
(42,0,l),
(-55,0,l),
(507,738,l),
(561,0,l),
(473,0,l),
(459,240,l),
(459,260,l),
(446,542,l)
);
},
{
closed = 1;
nodes = (
(492,934,l),
(489,894,o),
(497,862,o),
(544,861,cs),
(595,860,o),
(628,896,o),
(655,934,c),
(725,933,l),
(687,857,o),
(622,796,o),
(533,796,cs),
(446,796,o),
(414,857,o),
(425,935,c)
);
}
);
width = 620;
},
{
layerId = "E79D52FD-16C9-4CD8-B33B-848E03DA3A4F";
shapes = (
{
closed = 1;
nodes = (
(223,248,l),
(578,248,l),
(522,90,l),
(167,90,l)
);
},
{
closed = 1;
nodes = (
(301,188,l),
(301,137,l),
(184,0,l),
(-68,0,l),
(566,755,l),
(682,0,l),
(452,0,l),
(424,133,l),
(459,189,l),
(451,382,l)
);
},
{
closed = 1;
nodes = (
(585,960,l),
(587,939,o),
(585,915,o),
(612,911,cs),
(641,907,o),
(664,940,o),
(680,959,c),
(798,957,l),
(763,873,o),
(695,812,o),
(600,811,cs),
(505,810,o),
(467,873,o),
(478,960,c)
);
}
);
width = 733;
},
{
layerId = "6A4E6D7A-FBCF-4CEF-9028-EBF7BE717EF8";
shapes = (
{
closed = 1;
nodes = (
(161,282,l),
(486,282,l),
(483,272,l),
(158,272,l)
);
},
{
closed = 1;
nodes = (
(169,277,l),
(167,273,l),
(-30,0,l),
(-42,0,l),
(473,715,l),
(496,0,l),
(484,0,l),
(478,273,l),
(478,276,l),
(465,688,l)
);
},
{
closed = 1;
nodes = (
(405,925,l),
(393,855,o),
(419,797,o),
(498,796,cs),
(582,795,o),
(645,855,o),
(684,923,c),
(694,923,l),
(654,848,o),
(587,785,o),
(497,786,cs),
(411,787,o),
(381,848,o),
(395,925,c)
);
}
);
width = 564;
}
);
unicode = 258;
},
{
glyphname = Acircumflex;
lastChange = "2024-07-24 13:57:39 +0000";
layers = (
{
layerId = m001;
shapes = (
{
closed = 1;
nodes = (
(209,289,l),
(504,290,l),
(506,210,l),
(156,212,l)
);
},
{
closed = 1;
nodes = (
(239,264,l),
(226,246,l),
(42,0,l),
(-55,0,l),
(507,738,l),
(561,0,l),
(473,0,l),
(459,240,l),
(459,260,l),
(446,542,l)
);
},
{
closed = 1;
nodes = (
(414,756,l),
(375,798,l),
(572,935,l),
(680,793,l),
(622,756,l),
(552,849,l)
);
}
);
width = 620;
},
{
layerId = "E79D52FD-16C9-4CD8-B33B-848E03DA3A4F";
shapes = (
{
closed = 1;
nodes = (
(223,248,l),
(578,248,l),
(522,90,l),
(167,90,l)
);
},
{
closed = 1;
nodes = (
(301,188,l),
(301,137,l),
(184,0,l),
(-68,0,l),
(566,755,l),
(682,0,l),
(452,0,l),
(424,133,l),
(459,189,l),
(451,382,l)
);
},
{
closed = 1;
nodes = (
(523,810,l),
(413,907,l),
(658,1040,l),
(827,893,l),
(672,808,l),
(625,887,l)
);
}
);
width = 733;
},
{
layerId = "6A4E6D7A-FBCF-4CEF-9028-EBF7BE717EF8";
shapes = (
{
closed = 1;
nodes = (
(161,282,l),
(486,282,l),
(483,272,l),
(158,272,l)
);
},
{
closed = 1;
nodes = (
(169,277,l),
(167,273,l),
(-30,0,l),
(-42,0,l),
(473,715,l),
(496,0,l),
(484,0,l),
(478,273,l),
(478,276,l),
(465,688,l)
);
},
{
closed = 1;
nodes = (
(348,777,l),
(343,784,l),
(542,921,l),
(646,782,l),
(638,775,l),
(540,909,l)
);
}
);
width = 564;
}
);
unicode = 194;
},
{
glyphname = Adieresis;
lastChange = "2024-07-24 13:57:39 +0000";
layers = (
{
layerId = m001;
shapes = (
{
closed = 1;
nodes = (
(209,289,l),
(504,290,l),
(506,210,l),
(156,212,l)
);
},
{
closed = 1;
nodes = (
(239,264,l),
(226,246,l),
(42,0,l),
(-55,0,l),
(507,738,l),
(561,0,l),
(473,0,l),
(459,240,l),
(459,260,l),
(446,542,l)
);
},
{
closed = 1;
nodes = (
(594,876,o),
(632,907,o),
(657,904,cs),
(684,901,o),
(699,874,o),
(693,848,cs),
(687,824,o),
(649,793,o),
(624,796,cs),
(597,799,o),
(582,826,o),
(588,852,cs)
);
},
{
closed = 1;
nodes = (
(405,876,o),
(444,907,o),
(469,904,cs),
(496,901,o),
(511,874,o),
(505,848,cs),
(499,824,o),
(461,793,o),
(436,796,cs),
(409,799,o),
(393,826,o),
(399,852,cs)
);
}
);
width = 620;
},
{
layerId = "E79D52FD-16C9-4CD8-B33B-848E03DA3A4F";
shapes = (
{
closed = 1;
nodes = (
(223,248,l),
(578,248,l),
(522,90,l),
(167,90,l)
);
},
{
closed = 1;
nodes = (
(301,188,l),
(301,137,l),
(184,0,l),
(-68,0,l),
(566,755,l),
(682,0,l),
(452,0,l),
(424,133,l),
(459,189,l),
(451,382,l)
);
},
{
closed = 1;
nodes = (
(658,874,o),
(718,915,o),
(772,915,cs),
(827,915,o),
(866,870,o),
(851,815,cs),
(836,762,o),
(776,721,o),
(722,721,cs),
(667,721,o),
(628,766,o),
(643,821,cs)
);
},
{
closed = 1;
nodes = (
(342,884,o),
(402,925,o),
(456,925,cs),
(511,925,o),
(550,880,o),
(535,825,cs),
(520,772,o),
(460,731,o),
(406,731,cs),
(351,731,o),
(312,776,o),
(327,831,cs)
);
}
);
width = 733;
},
{
layerId = "6A4E6D7A-FBCF-4CEF-9028-EBF7BE717EF8";
shapes = (
{
closed = 1;
nodes = (
(161,282,l),
(486,282,l),
(483,272,l),
(158,272,l)
);
},
{
closed = 1;
nodes = (
(169,277,l),
(167,273,l),
(-30,0,l),
(-42,0,l),
(473,715,l),
(496,0,l),
(484,0,l),
(478,273,l),
(478,276,l),
(465,688,l)
);
},
{
closed = 1;
nodes = (
(588,810,o),
(596,817,o),
(601,817,cs),
(606,817,o),
(609,811,o),
(608,806,cs),
(607,802,o),
(599,795,o),
(594,795,cs),
(589,795,o),
(586,801,o),
(587,806,cs)
);
},
{
closed = 1;
nodes = (
(399,810,o),
(407,817,o),
(412,817,cs),
(417,817,o),
(421,811,o),
(420,806,cs),
(419,802,o),
(411,795,o),
(406,795,cs),
(401,795,o),
(397,801,o),
(398,806,cs)
);
}
);
width = 564;
}
);
unicode = 196;
},
{
glyphname = Agrave;
lastChange = "2024-07-24 13:57:39 +0000";
layers = (
{
layerId = m001;
shapes = (
{
closed = 1;
nodes = (
(209,289,l),
(504,290,l),
(506,210,l),
(156,212,l)
);
},
{
closed = 1;
nodes = (
(239,264,l),
(226,246,l),
(42,0,l),
(-55,0,l),
(507,738,l),
(561,0,l),
(473,0,l),
(459,240,l),
(459,260,l),
(446,542,l)
);
},
{
closed = 1;
nodes = (
(538,985,l),
(629,823,l),
(579,795,l),
(455,947,l)
);
}
);
width = 620;
},
{
layerId = "E79D52FD-16C9-4CD8-B33B-848E03DA3A4F";
shapes = (
{
closed = 1;
nodes = (
(223,248,l),
(578,248,l),
(522,90,l),
(167,90,l)
);
},
{
closed = 1;
nodes = (
(301,188,l),
(301,137,l),
(184,0,l),
(-68,0,l),
(566,755,l),
(682,0,l),
(452,0,l),
(424,133,l),
(459,189,l),
(451,382,l)
);
},
{
closed = 1;
nodes = (
(616,1021,l),
(708,853,l),
(598,810,l),
(473,966,l)
);
}
);
width = 733;
},
{
layerId = "6A4E6D7A-FBCF-4CEF-9028-EBF7BE717EF8";
shapes = (
{
closed = 1;
nodes = (
(161,282,l),
(486,282,l),
(483,272,l),
(158,272,l)
);
},
{
closed = 1;
nodes = (
(169,277,l),
(167,273,l),
(-30,0,l),
(-42,0,l),
(473,715,l),
(496,0,l),
(484,0,l),
(478,273,l),
(478,276,l),
(465,688,l)
);
},
{
closed = 1;
nodes = (
(427,939,l),
(535,780,l),
(530,776,l),
(417,932,l)
);
}
);
width = 564;
}
);
unicode = 192;
},
{
glyphname = Amacron;
lastChange = "2024-07-24 13:57:39 +0000";
layers = (
{
layerId = m001;
shapes = (
{
closed = 1;
nodes = (
(209,289,l),
(504,290,l),
(506,210,l),
(156,212,l)
);
},
{
closed = 1;
nodes = (
(239,264,l),
(226,246,l),
(42,0,l),
(-55,0,l),
(507,738,l),
(561,0,l),
(473,0,l),
(459,240,l),
(459,260,l),
(446,542,l)
);
},
{
closed = 1;
nodes = (
(388,870,l),
(721,870,l),
(696,795,l),
(364,796,l)
);
}
);
width = 620;
},
{
layerId = "E79D52FD-16C9-4CD8-B33B-848E03DA3A4F";
shapes = (
{
closed = 1;
nodes = (
(223,248,l),
(578,248,l),
(522,90,l),
(167,90,l)
);
},
{
closed = 1;
nodes = (
(301,188,l),
(301,137,l),
(184,0,l),
(-68,0,l),
(566,755,l),
(682,0,l),
(452,0,l),
(424,133,l),
(459,189,l),
(451,382,l)
);
},
{
closed = 1;
nodes = (
(462,975,l),
(830,975,l),
(772,810,l),
(404,810,l)
);
}
);
width = 733;
},
{
layerId = "6A4E6D7A-FBCF-4CEF-9028-EBF7BE717EF8";
shapes = (
{
closed = 1;
nodes = (
(161,282,l),
(486,282,l),
(483,272,l),
(158,272,l)
);
},
{
closed = 1;
nodes = (
(169,277,l),
(167,273,l),
(-30,0,l),
(-42,0,l),
(473,715,l),
(496,0,l),
(484,0,l),
(478,273,l),
(478,276,l),
(465,688,l)
);
},
{
closed = 1;
nodes = (
(338,805,l),
(668,805,l),
(664,795,l),
(335,795,l)
);
}
);
width = 564;
}
);
unicode = 256;
},
{
glyphname = Aogonek;
lastChange = "2024-07-24 13:57:39 +0000";
layers = (
{
layerId = m001;
shapes = (
{
closed = 1;
nodes = (
(209,289,l),
(504,290,l),
(506,210,l),
(156,212,l)
);
},
{
closed = 1;
nodes = (
(239,264,l),
(226,246,l),
(42,0,l),
(-55,0,l),
(507,738,l),
(561,0,l),
(473,0,l),
(459,240,l),
(459,260,l),
(446,542,l)
);
},
{
closed = 1;
nodes = (
(537,-183,l),
(508,-202,o),
(479,-218,o),
(444,-219,cs),
(384,-221,o),
(339,-181,o),
(357,-119,cs),
(379,-46,o),
(465,-6,o),
(528,24,c),
(564,0,l),
(523,-23,o),
(454,-49,o),
(440,-100,cs),
(434,-122,o),
(440,-145,o),
(465,-149,cs),
(483,-152,o),
(505,-138,o),
(520,-130,c)
);
}
);
width = 620;
},
{
layerId = "E79D52FD-16C9-4CD8-B33B-848E03DA3A4F";
shapes = (
{
closed = 1;
nodes = (
(223,248,l),
(578,248,l),
(522,90,l),
(167,90,l)
);
},
{
closed = 1;
nodes = (
(301,188,l),
(301,137,l),
(184,0,l),
(-68,0,l),
(566,755,l),
(682,0,l),
(452,0,l),
(424,133,l),
(459,189,l),
(451,382,l)
);
},
{
closed = 1;
nodes = (
(585,-183,l),
(552,-205,o),
(517,-221,o),
(477,-220,cs),
(420,-218,o),
(379,-177,o),
(394,-118,cs),
(414,-41,o),
(506,-5,o),
(570,25,c),
(611,0,l),
(578,-25,o),
(524,-48,o),
(510,-91,cs),
(507,-102,o),
(506,-116,o),
(520,-119,cs),
(537,-122,o),
(562,-106,o),
(577,-99,c)
);
}
);
width = 733;
},
{
layerId = "6A4E6D7A-FBCF-4CEF-9028-EBF7BE717EF8";
shapes = (
{
closed = 1;
nodes = (
(163,282,l),
(486,282,l),
(483,272,l),
(160,272,l)
);
},
{
closed = 1;
nodes = (
(169,277,l),
(167,273,l),
(-30,0,l),
(-42,0,l),
(473,715,l),
(496,0,l),
(484,0,l),
(478,273,l),
(478,276,l),
(465,688,l)
);
},
{
closed = 1;
nodes = (
(474,-182,l),
(442,-202,o),
(407,-220,o),
(368,-219,cs),
(321,-218,o),
(283,-190,o),
(297,-139,cs),
(319,-59,o),
(426,-20,o),
(493,9,c),
(497,0,l),
(435,-30,o),
(327,-64,o),
(307,-140,cs),
(295,-184,o),
(330,-208,o),
(370,-209,cs),
(406,-210,o),
(439,-191,o),
(469,-174,c)
);
}
);
width = 564;
}
);
unicode = 260;
},
{
glyphname = Aring;
lastChange = "2024-07-24 13:57:39 +0000";
layers = (
{
layerId = m001;
shapes = (
{
closed = 1;
nodes = (
(209,289,l),
(504,290,l),
(506,210,l),
(156,212,l)
);
},
{
closed = 1;
nodes = (
(239,264,l),
(226,246,l),
(42,0,l),
(-55,0,l),
(507,738,l),
(561,0,l),
(473,0,l),
(459,240,l),
(459,260,l),
(446,542,l)
);
},
{
closed = 1;
nodes = (
(446,850,o),
(505,898,o),
(559,897,cs),
(613,896,o),
(641,845,o),
(626,796,cs),
(611,746,o),
(552,698,o),
(498,699,cs),
(444,700,o),
(416,751,o),
(431,800,cs)
);
},
{
closed = 1;
nodes = (
(474,777,o),
(484,749,o),
(507,746,cs),
(531,742,o),
(571,777,o),
(577,799,cs),
(583,819,o),
(573,847,o),
(550,850,cs),
(526,854,o),
(486,819,o),
(480,797,cs)
);
}
);
width = 620;
},
{
layerId = "E79D52FD-16C9-4CD8-B33B-848E03DA3A4F";
shapes = (
{
closed = 1;
nodes = (
(223,248,l),
(578,248,l),
(522,90,l),
(167,90,l)
);
},
{
closed = 1;
nodes = (
(301,188,l),
(301,137,l),
(184,0,l),
(-68,0,l),
(566,755,l),
(682,0,l),
(452,0,l),
(424,133,l),
(459,189,l),
(451,382,l)
);
},
{
closed = 1;
nodes = (
(472,873,o),
(547,926,o),
(618,926,cs),
(689,926,o),
(740,871,o),
(720,800,cs),
(701,730,o),
(625,678,o),
(553,678,cs),
(482,678,o),
(433,734,o),
(453,804,cs)
);
},
{
closed = 1;
nodes = (
(540,785,o),
(545,761,o),
(564,759,cs),
(586,757,o),
(620,785,o),
(627,804,cs),
(632,819,o),
(626,844,o),
(607,846,cs),
(585,848,o),
(552,819,o),
(545,800,cs)
);
}
);
width = 733;
},
{
layerId = "6A4E6D7A-FBCF-4CEF-9028-EBF7BE717EF8";
shapes = (
{
closed = 1;
nodes = (
(161,282,l),
(486,282,l),
(483,272,l),
(158,272,l)
);
},
{
closed = 1;
nodes = (
(169,277,l),
(167,273,l),
(-30,0,l),
(-42,0,l),
(473,715,l),
(496,0,l),
(484,0,l),
(478,273,l),
(478,276,l),
(465,688,l)
);
},
{
closed = 1;
nodes = (
(424,860,o),
(483,908,o),
(538,907,cs),
(592,906,o),
(617,855,o),
(601,807,cs),
(584,756,o),
(525,708,o),
(470,709,cs),
(416,710,o),
(391,761,o),
(407,809,cs)
);
},
{
closed = 1;
nodes = (
(403,766,o),
(424,721,o),
(472,719,cs),
(521,717,o),
(576,763,o),
(591,808,cs),
(605,850,o),
(584,895,o),
(536,897,cs),
(487,899,o),
(432,853,o),
(417,808,cs)
);
}
);
width = 564;
}
);
unicode = 197;
},
{
glyphname = Atilde;
lastChange = "2024-07-24 13:57:39 +0000";
layers = (
{
layerId = m001;
shapes = (
{
closed = 1;
nodes = (
(209,289,l),
(504,290,l),
(506,210,l),
(156,212,l)
);
},
{
closed = 1;
nodes = (
(239,264,l),
(226,246,l),
(42,0,l),
(-55,0,l),
(507,738,l),
(561,0,l),
(473,0,l),
(459,240,l),
(459,260,l),
(446,542,l)
);
},
{
closed = 1;
nodes = (
(405,851,o),
(447,896,o),
(499,893,cs),
(538,891,o),
(560,845,o),
(599,848,cs),
(627,850,o),
(652,877,o),
(671,894,c),
(704,849,l),
(674,818,o),
(631,776,o),
(583,780,cs),
(545,783,o),
(524,827,o),
(485,825,cs),
(455,823,o),
(436,797,o),
(419,776,c),
(376,815,l)
);
}
);
width = 620;
},
{
layerId = "E79D52FD-16C9-4CD8-B33B-848E03DA3A4F";
shapes = (
{
closed = 1;
nodes = (
(223,248,l),
(578,248,l),
(522,90,l),
(167,90,l)
);
},
{
closed = 1;
nodes = (
(301,188,l),
(301,137,l),
(184,0,l),
(-68,0,l),
(566,755,l),
(682,0,l),
(452,0,l),
(424,133,l),
(459,189,l),
(451,382,l)
);
},
{
closed = 1;
nodes = (
(446,946,o),
(496,997,o),
(560,994,cs),
(605,992,o),
(632,939,o),
(677,942,cs),
(712,944,o),
(740,974,o),
(765,996,c),
(826,899,l),
(787,856,o),
(724,806,o),
(661,811,cs),
(616,815,o),
(585,873,o),
(539,865,cs),
(510,860,o),
(492,837,o),
(475,816,c),
(413,897,l)
);
}
);
width = 733;
},
{
layerId = "6A4E6D7A-FBCF-4CEF-9028-EBF7BE717EF8";
shapes = (
{
closed = 1;
nodes = (
(161,282,l),
(486,282,l),
(483,272,l),
(158,272,l)
);
},
{
closed = 1;
nodes = (
(169,277,l),
(167,273,l),
(-30,0,l),
(-42,0,l),
(473,715,l),
(496,0,l),
(484,0,l),
(478,273,l),
(478,276,l),
(465,688,l)
);
},
{
closed = 1;
nodes = (
(399,824,o),
(421,853,o),
(458,853,cs),
(508,853,o),
(519,806,o),
(559,808,cs),
(588,809,o),
(610,835,o),
(629,854,c),
(639,851,l),
(618,829,o),
(591,800,o),
(558,800,cs),
(509,800,o),
(498,846,o),
(459,845,cs),
(427,844,o),
(408,819,o),
(390,796,c),
(380,797,l)
);
}
);
width = 564;
}
);
unicode = 195;
},
{
glyphname = AE;
lastChange = "2024-07-24 13:57:39 +0000";
layers = (
{
layerId = m001;
shapes = (
{
closed = 1;
nodes = (
(249,290,l),
(534,290,l),
(507,210,l),
(222,211,l)
);
},
{
closed = 1;
nodes = (
(647,655,l),
(43,0,l),
(-50,0,l),
(598,700,l)
);
},
{
closed = 1;
nodes = (
(478,80,l),
(814,80,l),
(786,0,l),
(452,0,l)
);
},
{
closed = 1;
nodes = (
(598,700,l),
(1025,700,l),
(998,620,l),
(676,620,l)
);
},
{
closed = 1;
nodes = (
(594,420,l),
(911,420,l),
(884,340,l),
(568,341,l)
);
},
{
closed = 1;
nodes = (
(729,700,l),
(487,0,l),
(407,0,l),
(643,699,l)
);
}
);
width = 903;
},
{
layerId = "E79D52FD-16C9-4CD8-B33B-848E03DA3A4F";
shapes = (
{
closed = 1;
nodes = (
(344,315,l),
(633,315,l),
(563,115,l),
(264,115,l)
);
},
{
closed = 1;
nodes = (
(797,656,l),
(241,0,l),
(-45,0,l),
(607,700,l)
);
},
{
closed = 1;
nodes = (
(649,175,l),
(1035,175,l),
(974,0,l),
(588,0,l)
);
},
{
closed = 1;
nodes = (
(607,700,l),
(1214,700,l),
(1153,525,l),
(788,525,l)
);
},
{
closed = 1;
nodes = (
(742,445,l),
(1109,445,l),
(1049,275,l),
(682,275,l)
);
},
{
closed = 1;
nodes = (
(965,700,l),
(725,0,l),
(492,0,l),
(732,700,l)
);
}
);
width = 1091;
},
{
layerId = "6A4E6D7A-FBCF-4CEF-9028-EBF7BE717EF8";
shapes = (
{
closed = 1;
nodes = (
(239,290,l),
(513,290,l),
(509,280,l),
(236,280,l)
);
},
{
closed = 1;
nodes = (
(655,698,l),
(-38,0,l),
(-51,0,l),
(641,700,l)
);
},
{
closed = 1;
nodes = (
(417,10,l),
(717,10,l),
(714,0,l),
(413,0,l)
);
},
{
closed = 1;
nodes = (
(641,700,l),
(953,700,l),
(949,690,l),
(653,690,l)
);
},
{
closed = 1;
nodes = (
(548,394,l),
(829,394,l),
(826,384,l),
(544,384,l)
);
},
{
closed = 1;
nodes = (
(658,699,l),
(416,0,l),
(405,0,l),
(647,699,l)
);
}
);
width = 843;
}
);
unicode = 198;
},
{
glyphname = B;
lastChange = "2024-07-24 13:57:39 +0000";
layers = (
{
layerId = m001;
shapes = (
{
closed = 1;
nodes = (
(225,416,l),
(328,417,ls),
(392,418,o),
(460,456,o),
(483,520,cs),
(505,580,o),
(468,623,o),
(409,624,cs),
(316,625,l),
(128,75,l),
(219,76,ls),
(303,77,o),
(385,129,o),
(415,210,cs),
(443,287,o),
(398,342,o),
(321,343,cs),
(200,344,l),
(216,389,l),
(328,390,ls),
(439,387,o),
(532,326,o),
(495,204,cs),
(456,77,o),
(333,0,o),
(206,0,cs),
(19,0,l),
(259,700,l),
(423,700,ls),
(526,700,o),
(603,634,o),
(567,524,cs),
(533,420,o),
(423,374,o),
(321,371,cs),
(210,371,l)
);
}
);
width = 525;
},
{
layerId = "E79D52FD-16C9-4CD8-B33B-848E03DA3A4F";
shapes = (
{
closed = 1;
nodes = (
(307,425,l),
(405,425,ls),
(442,425,o),
(489,446,o),
(503,485,cs),
(515,520,o),
(492,534,o),
(461,535,cs),
(408,535,l),
(275,164,l),
(335,164,ls),
(378,166,o),
(439,179,o),
(454,228,cs),
(467,271,o),
(427,277,o),
(394,279,cs),
(255,280,l),
(298,400,l),
(442,400,ls),
(562,400,o),
(701,334,o),
(661,191,cs),
(620,44,o),
(466,-1.666,o),
(330,0,cs),
(8,0,l),
(248,700,l),
(525,700,ls),
(630,700,o),
(774,653,o),
(736,519,cs),
(699,387,o),
(548,335,o),
(425,335,cs),
(274,335,l)
);
}
);
width = 684;
},
{
layerId = "6A4E6D7A-FBCF-4CEF-9028-EBF7BE717EF8";
shapes = (
{
closed = 1;
nodes = (
(171,394,l),
(267,394,ls),
(363,398,o),
(461,444,o),
(494,540,cs),
(527,635,o),
(459,689,o),
(370,689,cs),
(276,689,l),
(43,11,l),
(146,11,ls),
(265,11,o),
(375,83,o),
(413,200,cs),
(446,302,o),
(376,384,o),
(275,384,cs),
(168,384,l),
(170,392,l),
(285,392,ls),
(389,392,o),
(456,302,o),
(424,200,cs),
(386,77,o),
(269,0,o),
(144,0,cs),
(29,0,l),
(270,700,l),
(372,700,ls),
(466,700,o),
(539,640,o),
(505,539,cs),
(472,441,o),
(375,390,o),
(276,386,cs),
(169,386,l)
);
}
);
width = 465;
}
);
unicode = 66;
},
{
glyphname = C;
lastChange = "2024-07-24 13:57:39 +0000";
layers = (
{
layerId = m001;
shapes = (
{
closed = 1;
nodes = (
(146,229,o),
(182,79,o),
(332,76,cs),
(426,74,o),
(512,123,o),
(585,177,c),
(550,66,l),
(479,20,o),
(401,-11,o),
(315,-10,cs),
(118,-8,o),
(46,182,o),
(101,350,cs),
(162,537,o),
(345,708,o),
(549,710,cs),
(625,711,o),
(687,686,o),
(741,632,c),
(705,521,l),
(668,589,o),
(610,624,o),
(532,624,cs),
(378,623,o),
(239,489,o),
(189,350,cs)
);
}
);
width = 644;
},
{
layerId = "E79D52FD-16C9-4CD8-B33B-848E03DA3A4F";
shapes = (
{
closed = 1;
nodes = (
(290,265,o),
(329,191,o),
(423,188,cs),
(505,186,o),
(579,230,o),
(646,271,c),
(580,47,l),
(512,8,o),
(440,-20,o),
(361,-20,cs),
(148,-20,o),
(27,148,o),
(90,350,cs),
(156,563,o),
(365,720,o),
(589,720,cs),
(662,720,o),
(722,695,o),
(779,652,c),
(711,427,l),
(673,480,o),
(625,512,o),
(557,512,cs),
(457,511,o),
(359,443,o),
(323,350,cs)
);
}
);
width = 668;
},
{
layerId = "6A4E6D7A-FBCF-4CEF-9028-EBF7BE717EF8";
shapes = (
{
closed = 1;
nodes = (
(72,197,o),
(113,8,o),
(304,5,cs),
(393,4,o),
(473,39,o),
(546,86,c),
(540,71,l),
(467,26,o),
(389,-8,o),
(302,-7,cs),
(104,-5,o),
(58,190,o),
(112,350,cs),
(173,532,o),
(342,706,o),
(544,708,cs),
(619,709,o),
(679,683,o),
(730,629,c),
(725,614,l),
(678,672,o),
(616,697,o),
(542,696,cs),
(346,694,o),
(184,525,o),
(124,350,cs)
);
}
);
width = 644;
}
);
unicode = 67;
},
{
glyphname = Cacute;
lastChange = "2024-07-24 13:57:39 +0000";
layers = (
{
layerId = m001;
shapes = (
{
closed = 1;
nodes = (
(146,229,o),
(182,79,o),
(332,76,cs),
(426,74,o),
(512,123,o),
(585,177,c),
(550,66,l),
(479,20,o),
(401,-11,o),
(315,-10,cs),
(118,-8,o),
(46,182,o),
(101,350,cs),
(162,537,o),
(345,708,o),
(549,710,cs),
(625,711,o),
(687,686,o),
(741,632,c),
(705,521,l),
(668,589,o),
(610,624,o),
(532,624,cs),
(378,623,o),
(239,489,o),
(189,350,cs)
);
},
{
closed = 1;
nodes = (
(533,772,l),
(495,803,l),
(688,959,l),
(750,915,l)
);
}
);
width = 644;
},
{
layerId = "E79D52FD-16C9-4CD8-B33B-848E03DA3A4F";
shapes = (
{
closed = 1;
nodes = (
(290,265,o),
(329,191,o),
(423,188,cs),
(505,186,o),
(579,230,o),
(646,271,c),
(580,47,l),
(512,8,o),
(440,-20,o),
(361,-20,cs),
(148,-20,o),
(27,148,o),
(90,350,cs),
(156,563,o),
(365,721,o),
(589,720,cs),
(662,720,o),
(722,695,o),
(779,652,c),
(711,427,l),
(673,480,o),
(625,512,o),
(557,512,cs),
(457,511,o),
(359,443,o),
(323,350,cs)
);
},
{
closed = 1;
nodes = (
(584,781,l),
(485,837,l),
(674,988,l),
(797,923,l)
);
}
);
width = 668;
},
{
layerId = "6A4E6D7A-FBCF-4CEF-9028-EBF7BE717EF8";
shapes = (
{
closed = 1;
nodes = (
(72,197,o),
(113,8,o),
(304,5,cs),
(393,4,o),
(473,39,o),
(546,86,c),
(540,71,l),
(467,26,o),
(389,-8,o),
(302,-7,cs),
(104,-5,o),
(58,190,o),
(112,350,cs),
(173,532,o),
(342,706,o),
(544,708,cs),
(619,709,o),
(679,683,o),
(730,629,c),
(725,614,l),
(678,672,o),
(616,697,o),
(542,696,cs),
(346,694,o),
(184,525,o),
(124,350,cs)
);
},
{
closed = 1;
nodes = (
(529,770,l),
(526,775,l),
(743,931,l),
(748,923,l)
);
}
);
width = 644;
}
);
unicode = 262;
},
{
glyphname = Ccaron;
lastChange = "2024-07-24 13:57:39 +0000";
layers = (
{
layerId = m001;
shapes = (
{
closed = 1;
nodes = (
(146,229,o),
(182,79,o),
(332,76,cs),
(426,74,o),
(512,123,o),
(585,177,c),
(550,66,l),
(479,20,o),
(401,-11,o),
(315,-10,cs),
(118,-8,o),
(46,182,o),
(101,350,cs),
(162,537,o),
(345,708,o),
(549,710,cs),
(625,711,o),
(687,686,o),
(741,632,c),
(705,521,l),
(668,589,o),
(610,624,o),
(532,624,cs),
(378,623,o),
(239,489,o),
(189,350,cs)
);
},
{
closed = 1;
nodes = (
(737,949,l),
(775,907,l),
(579,770,l),
(471,912,l),
(529,949,l),
(599,856,l)
);
}
);
width = 644;
},
{
layerId = "E79D52FD-16C9-4CD8-B33B-848E03DA3A4F";
shapes = (
{
closed = 1;
nodes = (
(290,265,o),
(329,191,o),
(423,188,cs),
(505,186,o),
(579,230,o),
(646,271,c),
(580,47,l),
(512,8,o),
(440,-20,o),
(361,-20,cs),
(148,-20,o),
(27,148,o),
(90,350,cs),
(156,563,o),
(365,721,o),
(589,720,cs),
(662,720,o),
(722,695,o),
(779,652,c),
(711,427,l),
(673,480,o),
(625,512,o),
(557,512,cs),
(457,511,o),
(359,443,o),
(323,350,cs)
);
},
{
closed = 1;
nodes = (
(766,1010,l),
(876,913,l),
(631,780,l),
(462,927,l),
(617,1012,l),
(664,933,l)
);
}
);
width = 668;
},
{
layerId = "6A4E6D7A-FBCF-4CEF-9028-EBF7BE717EF8";
shapes = (
{
closed = 1;
nodes = (
(72,197,o),
(113,8,o),
(304,5,cs),
(393,4,o),
(473,39,o),
(546,86,c),
(540,71,l),
(467,26,o),
(389,-8,o),
(302,-7,cs),
(104,-4,o),
(58,190,o),
(112,350,cs),
(173,532,o),
(342,706,o),
(544,708,cs),
(619,709,o),
(679,683,o),
(730,629,c),
(725,614,l),
(678,672,o),
(616,697,o),
(542,696,cs),
(346,694,o),
(184,525,o),
(124,350,cs)
);
},
{
closed = 1;
nodes = (
(763,924,l),
(768,916,l),
(569,779,l),
(465,918,l),
(475,926,l),
(572,791,l)
);
}
);
width = 644;
}
);
unicode = 268;
},
{
glyphname = Ccedilla;
lastChange = "2024-07-24 13:57:39 +0000";
layers = (
{
layerId = m001;
shapes = (
{
closed = 1;
nodes = (
(146,229,o),
(182,79,o),
(332,76,cs),
(426,74,o),
(512,123,o),
(585,177,c),
(550,66,l),
(479,20,o),
(401,-11,o),
(315,-10,cs),
(118,-8,o),
(46,182,o),
(101,350,cs),
(162,537,o),
(345,708,o),
(549,710,cs),
(625,711,o),
(687,686,o),
(741,632,c),
(705,521,l),
(668,589,o),
(610,624,o),
(532,624,cs),
(378,623,o),
(239,489,o),
(189,350,cs)
);
},
{
closed = 1;
nodes = (
(381,57,l),
(281,-53,l),
(283,-53,o),
(285,-53,o),
(287,-53,cs),
(325,-60,o),
(345,-91,o),
(335,-129,cs),
(321,-181,o),
(258,-220,o),
(206,-220,cs),
(172,-220,o),
(152,-202,o),
(129,-180,c),
(171,-144,l),
(184,-155,o),
(197,-167,o),
(216,-167,cs),
(237,-167,o),
(274,-148,o),
(280,-126,cs),
(286,-105,o),
(267,-92,o),
(249,-91,cs),
(228,-89,o),
(204,-100,o),
(185,-107,c),
(320,57,l)
);
}
);
width = 644;
},
{
layerId = "E79D52FD-16C9-4CD8-B33B-848E03DA3A4F";
shapes = (
{
closed = 1;
nodes = (
(290,265,o),
(329,191,o),
(423,188,cs),
(505,186,o),
(579,230,o),
(646,271,c),
(580,47,l),
(512,8,o),
(440,-20,o),
(361,-20,cs),
(148,-20,o),
(27,148,o),
(90,350,cs),
(156,563,o),
(365,721,o),
(589,720,cs),
(662,720,o),
(722,695,o),
(779,652,c),
(711,427,l),
(673,480,o),
(625,512,o),
(557,512,cs),
(457,511,o),
(359,443,o),
(323,350,cs)
);
},
{
closed = 1;
nodes = (
(424,35,l),
(275,-93,l),
(289,-90,o),
(305,-87,o),
(319,-88,cs),
(378,-92,o),
(406,-146,o),
(390,-200,cs),
(369,-272,o),
(291,-311,o),
(221,-315,cs),
(162,-318,o),
(107,-299,o),
(55,-272,c),
(127,-192,l),
(151,-205,o),
(176,-218,o),
(205,-217,cs),
(223,-216,o),
(275,-203,o),
(278,-180,cs),
(281,-159,o),
(245,-155,o),
(233,-154,cs),
(199,-152,o),
(163,-160,o),
(129,-166,c),
(276,40,l)
);
}
);
width = 668;
},
{
layerId = "6A4E6D7A-FBCF-4CEF-9028-EBF7BE717EF8";
shapes = (
{
closed = 1;
nodes = (
(72,197,o),
(113,8,o),
(304,5,cs),
(393,4,o),
(473,39,o),
(546,86,c),
(540,71,l),
(467,26,o),
(389,-8,o),
(302,-7,cs),
(104,-5,o),
(58,190,o),
(112,350,cs),
(173,532,o),
(342,706,o),
(544,708,cs),
(619,709,o),
(679,683,o),
(730,629,c),
(725,614,l),
(678,672,o),
(616,697,o),
(542,696,cs),
(346,694,o),
(184,525,o),
(124,350,cs)
);
},
{
closed = 1;
nodes = (
(310,-2,l),
(229,-76,l),
(251,-66,o),
(278,-51,o),
(303,-54,cs),
(342,-58,o),
(358,-92,o),
(348,-128,cs),
(334,-181,o),
(268,-221,o),
(215,-220,cs),
(183,-220,o),
(164,-204,o),
(143,-183,c),
(151,-177,l),
(170,-195,o),
(189,-210,o),
(217,-210,cs),
(265,-210,o),
(324,-175,o),
(338,-127,cs),
(347,-97,o),
(334,-68,o),
(301,-64,cs),
(272,-60,o),
(241,-77,o),
(215,-88,c),
(298,-2,l)
);
}
);
width = 644;
}
);
unicode = 199;
},
{
glyphname = Ccircumflex;
lastChange = "2024-07-24 13:57:39 +0000";
layers = (
{
layerId = m001;
shapes = (
{
closed = 1;
nodes = (
(146,229,o),
(182,79,o),
(332,76,cs),
(426,74,o),
(512,123,o),
(585,177,c),
(550,66,l),
(479,20,o),
(401,-11,o),
(315,-10,cs),
(118,-8,o),
(46,182,o),
(101,350,cs),
(162,537,o),
(345,708,o),
(549,710,cs),
(625,711,o),
(687,686,o),
(741,632,c),
(705,521,l),
(668,589,o),
(610,624,o),
(532,624,cs),
(378,623,o),
(239,489,o),
(189,350,cs)
);
},
{
closed = 1;
nodes = (
(476,771,l),
(437,813,l),
(633,950,l),
(741,808,l),
(684,771,l),
(613,864,l)
);
}
);
width = 644;
},
{
layerId = "E79D52FD-16C9-4CD8-B33B-848E03DA3A4F";
shapes = (
{
closed = 1;
nodes = (
(290,265,o),
(329,191,o),
(423,188,cs),
(505,186,o),
(579,230,o),
(646,271,c),
(580,47,l),
(512,8,o),
(440,-20,o),
(361,-20,cs),
(148,-20,o),
(27,148,o),
(90,350,cs),
(156,563,o),
(365,721,o),
(589,720,cs),
(662,720,o),
(722,695,o),
(779,652,c),
(711,427,l),
(673,480,o),
(625,512,o),
(557,512,cs),
(457,511,o),
(359,443,o),
(323,350,cs)
);
},
{
closed = 1;
nodes = (
(555,780,l),
(445,877,l),
(690,1010,l),
(859,863,l),
(704,778,l),
(657,857,l)
);
}
);
width = 668;
},
{
layerId = "6A4E6D7A-FBCF-4CEF-9028-EBF7BE717EF8";
shapes = (
{
closed = 1;
nodes = (
(72,197,o),
(113,8,o),
(304,5,cs),
(393,4,o),
(473,39,o),
(546,86,c),
(540,71,l),
(467,26,o),
(389,-8,o),
(302,-7,cs),
(104,-4,o),
(58,190,o),
(112,350,cs),
(173,532,o),
(342,706,o),
(544,708,cs),
(619,709,o),
(679,683,o),
(730,629,c),
(725,614,l),
(678,672,o),
(616,697,o),
(542,696,cs),
(346,694,o),
(184,525,o),
(124,350,cs)
);
},
{
closed = 1;
nodes = (
(421,770,l),
(416,777,l),
(615,914,l),
(719,775,l),
(711,768,l),
(613,902,l)
);
}
);
width = 644;
}
);
unicode = 264;
},
{
glyphname = Cdotaccent;
lastChange = "2024-07-24 13:57:39 +0000";
layers = (
{
layerId = m001;
shapes = (
{
closed = 1;
nodes = (
(146,229,o),
(182,79,o),
(332,76,cs),
(426,74,o),
(512,123,o),
(585,177,c),
(550,66,l),
(479,20,o),
(401,-11,o),
(315,-10,cs),
(118,-8,o),
(46,182,o),
(101,350,cs),
(162,537,o),
(345,708,o),
(549,710,cs),
(625,711,o),
(687,686,o),
(741,632,c),
(705,521,l),
(668,589,o),
(610,624,o),
(532,624,cs),
(378,623,o),
(239,489,o),
(189,350,cs)
);
},
{
closed = 1;
nodes = (
(548,851,o),
(586,882,o),
(611,879,cs),
(638,876,o),
(653,849,o),
(647,823,cs),
(641,799,o),
(603,768,o),
(578,771,cs),
(551,774,o),
(536,801,o),
(542,827,cs)
);
}
);
width = 644;
},
{
layerId = "E79D52FD-16C9-4CD8-B33B-848E03DA3A4F";
shapes = (
{
closed = 1;
nodes = (
(290,265,o),
(329,191,o),
(423,188,cs),
(505,186,o),
(579,230,o),
(646,271,c),
(580,47,l),
(512,8,o),
(440,-20,o),
(361,-20,cs),
(148,-20,o),
(27,148,o),
(90,350,cs),
(156,563,o),
(365,721,o),
(589,720,cs),
(662,720,o),
(722,695,o),
(779,652,c),
(711,427,l),
(673,480,o),
(625,512,o),
(557,512,cs),
(457,511,o),
(359,443,o),
(323,350,cs)
);
},
{
closed = 1;
nodes = (
(528,934,o),
(588,975,o),
(642,975,cs),
(697,975,o),
(736,930,o),
(721,875,cs),
(706,822,o),
(646,781,o),
(592,781,cs),
(537,781,o),
(498,826,o),
(513,881,cs)
);
}
);
width = 668;
},
{
layerId = "6A4E6D7A-FBCF-4CEF-9028-EBF7BE717EF8";
shapes = (
{
closed = 1;
nodes = (
(72,197,o),
(113,8,o),
(304,5,cs),
(393,4,o),
(473,39,o),
(546,86,c),
(540,71,l),
(467,26,o),
(389,-8,o),
(302,-7,cs),
(104,-5,o),
(58,190,o),
(112,350,cs),
(173,532,o),
(342,706,o),
(544,708,cs),
(619,709,o),
(679,683,o),
(730,629,c),
(725,614,l),
(678,672,o),
(616,697,o),
(542,696,cs),
(346,694,o),
(184,525,o),
(124,350,cs)
);
},
{
closed = 1;
nodes = (
(563,793,o),
(571,800,o),
(576,800,cs),
(581,800,o),
(584,794,o),
(583,789,cs),
(582,785,o),
(574,778,o),
(569,778,cs),
(564,778,o),
(561,784,o),
(562,789,cs)
);
}
);
width = 644;
}
);
unicode = 266;
},
{
glyphname = D;
lastChange = "2024-07-24 13:57:39 +0000";
layers = (
{
layerId = m001;
shapes = (
{
closed = 1;
nodes = (
(343,700,l),
(101,0,l),
(22,0,l),
(257,699,l)
);
},
{
closed = 1;
nodes = (
(63,0,l),
(93,85,l),
(242,85,ls),
(399,85,o),
(534,204,o),
(586,350,cs),
(633,481,o),
(585,615,o),
(434,615,cs),
(273,615,l),
(303,700,l),
(451,700,ls),
(647,700,o),
(726,525,o),
(669,350,cs),
(607,159,o),
(429,0,o),
(225,0,cs)
);
}
);
width = 639;
},
{
layerId = "E79D52FD-16C9-4CD8-B33B-848E03DA3A4F";
shapes = (
{
closed = 1;
nodes = (
(470,700,l),
(230,0,l),
(8,0,l),
(248,700,l)
);
},
{
closed = 1;
nodes = (
(150,0,l),
(217,190,l),
(314,190,ls),
(418,190,o),
(500,253,o),
(538,350,cs),
(573,439,o),
(545,511,o),
(446,511,cs),
(324,511,l),
(391,700,l),
(497,700,ls),
(702,700,o),
(823,552,o),
(760,350,cs),
(695,139,o),
(500,0,o),
(282,0,cs)
);
}
);
width = 719;
},
{
layerId = "6A4E6D7A-FBCF-4CEF-9028-EBF7BE717EF8";
shapes = (
{
closed = 1;
nodes = (
(281,699,l),
(40,0,l),
(29,0,l),
(270,699,l)
);
},
{
closed = 1;
nodes = (
(35,0,l),
(39,11,l),
(184,11,ls),
(382,11,o),
(543,168,o),
(605,350,cs),
(661,513,o),
(609,689,o),
(417,689,cs),
(270,689,l),
(274,700,l),
(419,700,ls),
(617,700,o),
(673,518,o),
(616,350,cs),
(553,163,o),
(386,0,o),
(182,0,cs)
);
}
);
width = 597;
}
);
unicode = 68;
},
{
glyphname = Dcaron;
lastChange = "2024-07-24 13:57:39 +0000";
layers = (
{
layerId = m001;
shapes = (
{
closed = 1;
nodes = (
(343,700,l),
(101,0,l),
(22,0,l),
(257,699,l)
);
},
{
closed = 1;
nodes = (
(63,0,l),
(93,85,l),
(242,85,ls),
(399,91,o),
(534,204,o),
(586,350,cs),
(633,481,o),
(585,608,o),
(434,615,cs),
(273,615,l),
(303,700,l),
(451,700,ls),
(647,693,o),
(726,525,o),
(669,350,cs),
(607,159,o),
(429,6,o),
(225,0,cs)
);
},
{
closed = 1;
nodes = (
(680,949,l),
(719,907,l),
(523,770,l),
(415,912,l),
(472,949,l),
(543,856,l)
);
}
);
width = 639;
},
{
layerId = "E79D52FD-16C9-4CD8-B33B-848E03DA3A4F";
shapes = (
{
closed = 1;
nodes = (
(470,700,l),
(230,0,l),
(8,0,l),
(248,700,l)
);
},
{
closed = 1;
nodes = (
(150,0,l),
(217,190,l),
(314,190,ls),
(418,194,o),
(500,253,o),
(538,350,cs),
(573,439,o),
(545,504,o),
(446,509,cs),
(324,511,l),
(391,700,l),
(497,700,ls),
(702,695,o),
(823,552,o),
(760,350,cs),
(695,139,o),
(500,5,o),
(282,0,cs)
);
},
{
closed = 1;
nodes = (
(735,1010,l),
(845,913,l),
(601,780,l),
(432,927,l),
(586,1012,l),
(634,933,l)
);
}
);
width = 719;
},
{
layerId = "6A4E6D7A-FBCF-4CEF-9028-EBF7BE717EF8";
shapes = (
{
closed = 1;
nodes = (
(281,699,l),
(40,0,l),
(29,0,l),
(270,699,l)
);
},
{
closed = 1;
nodes = (
(35,0,l),
(39,11,l),
(184,11,ls),
(382,17,o),
(543,168,o),
(605,350,cs),
(661,513,o),
(609,681,o),
(417,689,cs),
(270,689,l),
(274,700,l),
(419,700,ls),
(617,693,o),
(673,518,o),
(616,350,cs),
(553,163,o),
(386,6,o),
(182,0,cs)
);
},
{
closed = 1;
nodes = (
(711,944,l),
(717,936,l),
(518,799,l),
(414,938,l),
(423,946,l),
(520,811,l)
);
}
);
width = 597;
}
);
unicode = 270;
},
{
glyphname = Dcroat;
lastChange = "2024-07-24 13:57:39 +0000";
layers = (
{
layerId = m001;
shapes = (
{
closed = 1;
nodes = (
(82,385,l),
(367,385,l),
(342,310,l),
(57,311,l)
);
},
{
closed = 1;
nodes = (
(343,700,l),
(101,0,l),
(22,0,l),
(257,699,l)
);
},
{
closed = 1;
nodes = (
(63,0,l),
(93,85,l),
(242,85,ls),
(399,91,o),
(534,204,o),
(586,350,cs),
(633,481,o),
(585,608,o),
(434,615,cs),
(273,615,l),
(303,700,l),
(451,700,ls),
(647,693,o),
(726,525,o),
(669,350,cs),
(607,159,o),
(429,6,o),
(225,0,cs)
);
}
);
width = 639;
},
{
layerId = "E79D52FD-16C9-4CD8-B33B-848E03DA3A4F";
shapes = (
{
closed = 1;
nodes = (
(86,405,l),
(441,405,l),
(400,290,l),
(45,290,l)
);
},
{
closed = 1;
nodes = (
(470,700,l),
(230,0,l),
(8,0,l),
(248,700,l)
);
},
{
closed = 1;
nodes = (
(150,0,l),
(217,190,l),
(314,190,ls),
(418,194,o),
(500,253,o),
(538,350,cs),
(573,439,o),
(545,504,o),
(446,509,cs),
(324,511,l),
(391,700,l),
(497,700,ls),
(702,695,o),
(823,552,o),
(760,350,cs),
(695,139,o),
(500,5,o),
(282,0,cs)
);
}
);
width = 719;
},
{
layerId = "6A4E6D7A-FBCF-4CEF-9028-EBF7BE717EF8";
shapes = (
{
closed = 1;
nodes = (
(71,355,l),
(354,355,l),
(351,345,l),
(68,345,l)
);
},
{
closed = 1;
nodes = (
(281,699,l),
(40,0,l),
(29,0,l),
(270,699,l)
);
},
{
closed = 1;
nodes = (
(35,0,l),
(39,11,l),
(184,11,ls),
(381,18,o),
(543,169,o),
(605,350,cs),
(661,512,o),
(609,681,o),
(417,689,cs),
(270,689,l),
(274,700,l),
(419,700,ls),
(617,693,o),
(673,518,o),
(616,350,cs),
(553,163,o),
(386,6,o),
(182,0,cs)
);
}
);
width = 639;
}
);
unicode = 272;
},
{
glyphname = Eth;
lastChange = "2024-07-24 13:57:39 +0000";
layers = (
{
layerId = m001;
shapes = (
{
closed = 1;
nodes = (
(82,385,l),
(367,385,l),
(342,310,l),
(57,311,l)
);
},
{
closed = 1;
nodes = (
(343,700,l),
(101,0,l),
(22,0,l),
(257,699,l)
);
},
{
closed = 1;
nodes = (
(63,0,l),
(93,85,l),
(242,85,ls),
(399,91,o),
(534,204,o),
(586,350,cs),
(633,481,o),
(585,608,o),
(434,615,cs),
(273,615,l),
(303,700,l),
(451,700,ls),
(647,693,o),
(726,525,o),
(669,350,cs),
(607,159,o),
(429,6,o),
(225,0,cs)
);
}
);
width = 639;
},
{
layerId = "E79D52FD-16C9-4CD8-B33B-848E03DA3A4F";
shapes = (
{
closed = 1;
nodes = (
(90,413,l),
(454,413,l),
(413,298,l),
(49,298,l)
);
},
{
closed = 1;
nodes = (
(470,700,l),
(230,0,l),
(8,0,l),
(248,700,l)
);
},
{
closed = 1;
nodes = (
(150,0,l),
(217,190,l),
(314,190,ls),
(418,194,o),
(500,253,o),
(538,350,cs),
(573,439,o),
(545,504,o),
(446,509,cs),
(324,511,l),
(391,700,l),
(497,700,ls),
(702,695,o),
(823,552,o),
(760,350,cs),
(695,139,o),
(500,5,o),
(282,0,cs)
);
}
);
width = 719;
},
{
layerId = "6A4E6D7A-FBCF-4CEF-9028-EBF7BE717EF8";
shapes = (
{
closed = 1;
nodes = (
(71,355,l),
(354,355,l),
(351,345,l),
(68,345,l)
);
},
{
closed = 1;
nodes = (
(281,699,l),
(40,0,l),
(29,0,l),
(270,699,l)
);
},
{
closed = 1;
nodes = (
(35,0,l),
(39,11,l),
(184,11,ls),
(381,18,o),
(543,169,o),
(605,350,cs),
(661,512,o),
(609,681,o),
(417,689,cs),
(270,689,l),
(274,700,l),
(419,700,ls),
(617,693,o),
(673,518,o),
(616,350,cs),
(553,163,o),
(386,6,o),
(182,0,cs)
);
}
);
width = 639;
}
);
unicode = 208;
},
{
glyphname = E;
lastChange = "2024-07-24 13:57:39 +0000";
layers = (
{
layerId = m001;
shapes = (
{
closed = 1;
nodes = (
(92,80,l),
(428,80,l),
(401,0,l),
(66,0,l)
);
},
{
closed = 1;
nodes = (
(304,700,l),
(639,700,l),
(612,620,l),
(278,620,l)
);
},
{
closed = 1;
nodes = (
(209,420,l),
(525,420,l),
(498,341,l),
(182,341,l)
);
},
{
closed = 1;
nodes = (
(343,700,l),
(101,0,l),
(22,0,l),
(257,700,l)
);
}
);
width = 517;
},
{
layerId = "E79D52FD-16C9-4CD8-B33B-848E03DA3A4F";
shapes = (
{
closed = 1;
nodes = (
(212,175,l),
(551,175,l),
(489,0,l),
(150,0,l)
);
},
{
closed = 1;
nodes = (
(391,700,l),
(730,700,l),
(669,525,l),
(330,525,l)
);
},
{
closed = 1;
nodes = (
(304,445,l),
(624,445,l),
(564,275,l),
(244,275,l)
);
},
{
closed = 1;
nodes = (
(452,700,l),
(212,0,l),
(8,0,l),
(248,700,l)
);
}
);
width = 597;
},
{
layerId = "6A4E6D7A-FBCF-4CEF-9028-EBF7BE717EF8";
shapes = (
{
closed = 1;
nodes = (
(35,10,l),
(354,10,l),
(351,0,l),
(32,0,l)
);
},
{
closed = 1;
nodes = (
(271,700,l),
(589,700,l),
(586,690,l),
(268,690,l)
);
},
{
closed = 1;
nodes = (
(167,394,l),
(466,394,l),
(463,384,l),
(163,384,l)
);
},
{
closed = 1;
nodes = (
(281,699,l),
(40,0,l),
(29,0,l),
(270,699,l)
);
}
);
width = 479;
}
);
unicode = 69;
},
{
glyphname = Eacute;
lastChange = "2024-07-24 13:57:39 +0000";
layers = (
{
layerId = m001;
shapes = (
{
closed = 1;
nodes = (
(92,80,l),
(428,80,l),
(401,0,l),
(66,0,l)
);
},
{
closed = 1;
nodes = (
(304,700,l),
(639,700,l),
(612,620,l),
(278,621,l)
);
},
{
closed = 1;
nodes = (
(209,420,l),
(525,420,l),
(498,340,l),
(182,341,l)
);
},
{
closed = 1;
nodes = (
(343,700,l),
(101,0,l),
(22,0,l),
(257,699,l)
);
},
{
closed = 1;
nodes = (
(429,772,l),
(391,803,l),
(585,959,l),
(647,915,l)
);
}
);
width = 517;
},
{
layerId = "E79D52FD-16C9-4CD8-B33B-848E03DA3A4F";
shapes = (
{
closed = 1;
nodes = (
(212,175,l),
(551,175,l),
(489,0,l),
(150,0,l)
);
},
{
closed = 1;
nodes = (
(391,700,l),
(730,700,l),
(669,525,l),
(330,525,l)
);
},
{
closed = 1;
nodes = (
(304,445,l),
(624,445,l),
(564,275,l),
(244,275,l)
);
},
{
closed = 1;
nodes = (
(452,700,l),
(212,0,l),
(8,0,l),
(248,700,l)
);
},
{
closed = 1;
nodes = (
(525,791,l),
(425,847,l),
(614,998,l),
(738,933,l)
);
}
);
width = 597;
},
{
layerId = "6A4E6D7A-FBCF-4CEF-9028-EBF7BE717EF8";
shapes = (
{
closed = 1;
nodes = (
(35,10,l),
(354,10,l),
(351,0,l),
(32,0,l)
);
},
{
closed = 1;
nodes = (
(271,700,l),
(589,700,l),
(586,690,l),
(268,690,l)
);
},
{
closed = 1;
nodes = (
(167,394,l),
(466,394,l),
(463,384,l),
(163,384,l)
);
},
{
closed = 1;
nodes = (
(281,699,l),
(40,0,l),
(29,0,l),
(270,699,l)
);
},
{
closed = 1;
nodes = (
(435,770,l),
(432,775,l),
(649,931,l),
(654,923,l)
);
}
);
width = 479;
}
);
unicode = 201;
},
{
glyphname = Ebreve;
lastChange = "2024-07-24 13:57:39 +0000";
layers = (
{
layerId = m001;
shapes = (
{
closed = 1;
nodes = (
(92,80,l),
(428,80,l),
(401,0,l),
(66,0,l)
);
},
{
closed = 1;
nodes = (
(304,700,l),
(639,700,l),
(612,620,l),
(278,621,l)
);
},
{
closed = 1;
nodes = (
(209,420,l),
(525,420,l),
(498,340,l),
(182,341,l)
);
},
{
closed = 1;
nodes = (
(343,700,l),
(101,0,l),
(22,0,l),
(257,699,l)
);
},
{
closed = 1;
nodes = (
(436,909,l),
(433,869,o),
(441,837,o),
(488,836,cs),
(539,835,o),
(572,871,o),
(599,909,c),
(670,908,l),
(632,832,o),
(566,771,o),
(477,771,cs),
(390,771,o),
(358,832,o),
(369,910,c)
);
}
);
width = 517;
},
{
layerId = "E79D52FD-16C9-4CD8-B33B-848E03DA3A4F";
shapes = (
{
closed = 1;
nodes = (
(212,175,l),
(551,175,l),
(489,0,l),
(150,0,l)
);
},
{
closed = 1;
nodes = (
(391,700,l),
(730,700,l),
(669,525,l),
(330,525,l)
);
},
{
closed = 1;
nodes = (
(304,445,l),
(624,445,l),
(564,275,l),
(244,275,l)
);
},
{
closed = 1;
nodes = (
(452,700,l),
(212,0,l),
(8,0,l),
(248,700,l)
);
},
{
closed = 1;
nodes = (
(511,930,l),
(513,909,o),
(510,885,o),
(537,881,cs),
(566,877,o),
(590,910,o),
(606,929,c),
(724,927,l),
(689,843,o),
(621,782,o),
(526,781,cs),
(431,780,o),
(392,843,o),
(403,930,c)
);
}
);
width = 597;
},
{
layerId = "6A4E6D7A-FBCF-4CEF-9028-EBF7BE717EF8";
shapes = (
{
closed = 1;
nodes = (
(35,10,l),
(354,10,l),
(351,0,l),
(32,0,l)
);
},
{
closed = 1;
nodes = (
(271,700,l),
(589,700,l),
(586,690,l),
(268,690,l)
);
},
{
closed = 1;
nodes = (
(167,394,l),
(466,394,l),
(463,384,l),
(163,384,l)
);
},
{
closed = 1;
nodes = (
(281,699,l),
(40,0,l),
(29,0,l),
(270,699,l)
);
},
{
closed = 1;
nodes = (
(371,908,l),
(359,838,o),
(385,780,o),
(464,779,cs),
(548,778,o),
(611,838,o),
(650,906,c),
(660,906,l),
(620,831,o),
(553,768,o),
(463,769,cs),
(377,770,o),
(347,831,o),
(361,908,c)
);
}
);
width = 479;
}
);
unicode = 276;
},
{
glyphname = Ecaron;
lastChange = "2024-07-24 13:57:39 +0000";
layers = (
{
layerId = m001;
shapes = (
{
closed = 1;
nodes = (
(92,80,l),
(428,80,l),
(401,0,l),
(66,0,l)
);
},
{
closed = 1;
nodes = (
(304,700,l),
(639,700,l),
(612,620,l),
(278,621,l)
);
},
{
closed = 1;
nodes = (
(209,420,l),
(525,420,l),
(498,340,l),
(182,341,l)
);
},
{
closed = 1;
nodes = (
(343,700,l),
(101,0,l),
(22,0,l),
(257,699,l)
);
},
{
closed = 1;
nodes = (
(633,949,l),
(672,907,l),
(476,770,l),
(368,912,l),
(425,949,l),
(496,856,l)
);
}
);
width = 517;
},
{
layerId = "E79D52FD-16C9-4CD8-B33B-848E03DA3A4F";
shapes = (
{
closed = 1;
nodes = (
(212,175,l),
(551,175,l),
(489,0,l),
(150,0,l)
);
},
{
closed = 1;
nodes = (
(391,700,l),
(730,700,l),
(669,525,l),
(330,525,l)
);
},
{
closed = 1;
nodes = (
(304,445,l),
(624,445,l),
(564,275,l),
(244,275,l)
);
},
{
closed = 1;
nodes = (
(452,700,l),
(212,0,l),
(8,0,l),
(248,700,l)
);
},
{
closed = 1;
nodes = (
(660,1010,l),
(769,913,l),
(525,780,l),
(356,927,l),
(510,1012,l),
(558,933,l)
);
}
);
width = 597;
},
{
layerId = "6A4E6D7A-FBCF-4CEF-9028-EBF7BE717EF8";
shapes = (
{
closed = 1;
nodes = (
(35,10,l),
(354,10,l),
(351,0,l),
(32,0,l)
);
},
{
closed = 1;
nodes = (
(271,700,l),
(589,700,l),
(586,690,l),
(268,690,l)
);
},
{
closed = 1;
nodes = (
(167,394,l),
(466,394,l),
(463,384,l),
(163,384,l)
);
},
{
closed = 1;
nodes = (
(281,699,l),
(40,0,l),
(29,0,l),
(270,699,l)
);
},
{
closed = 1;
nodes = (
(646,914,l),
(652,906,l),
(453,769,l),
(349,908,l),
(359,916,l),
(455,781,l)
);
}
);
width = 479;
}
);
unicode = 282;
},
{
glyphname = Ecircumflex;
lastChange = "2024-07-24 13:57:39 +0000";
layers = (
{
layerId = m001;
shapes = (
{
closed = 1;
nodes = (
(92,80,l),
(428,80,l),
(401,0,l),
(66,0,l)
);
},
{
closed = 1;
nodes = (
(304,700,l),
(639,700,l),
(612,620,l),
(278,621,l)
);
},
{
closed = 1;
nodes = (
(209,420,l),
(525,420,l),
(498,340,l),
(182,341,l)
);
},
{
closed = 1;
nodes = (
(343,700,l),
(101,0,l),
(22,0,l),
(257,699,l)
);
},
{
closed = 1;
nodes = (
(382,771,l),
(343,813,l),
(539,950,l),
(647,808,l),
(590,771,l),
(519,864,l)
);
}
);
width = 517;
},
{
layerId = "E79D52FD-16C9-4CD8-B33B-848E03DA3A4F";
shapes = (
{
closed = 1;
nodes = (
(212,175,l),
(551,175,l),
(489,0,l),
(150,0,l)
);
},
{
closed = 1;
nodes = (
(391,700,l),
(730,700,l),
(669,525,l),
(330,525,l)
);
},
{
closed = 1;
nodes = (
(304,445,l),
(624,445,l),
(564,275,l),
(244,275,l)
);
},
{
closed = 1;
nodes = (
(452,700,l),
(212,0,l),
(8,0,l),
(248,700,l)
);
},
{
closed = 1;
nodes = (
(436,780,l),
(326,877,l),
(571,1010,l),
(740,863,l),
(586,778,l),
(538,857,l)
);
}
);
width = 597;
},
{
layerId = "6A4E6D7A-FBCF-4CEF-9028-EBF7BE717EF8";
shapes = (
{
closed = 1;
nodes = (
(35,10,l),
(354,10,l),
(351,0,l),
(32,0,l)
);
},
{
closed = 1;
nodes = (
(271,700,l),
(589,700,l),
(586,690,l),
(268,690,l)
);
},
{
closed = 1;
nodes = (
(167,394,l),
(466,394,l),
(463,384,l),
(163,384,l)
);
},
{
closed = 1;
nodes = (
(281,699,l),
(40,0,l),
(29,0,l),
(270,699,l)
);
},
{
closed = 1;
nodes = (
(308,770,l),
(303,777,l),
(502,914,l),
(606,775,l),
(598,768,l),
(500,902,l)
);
}
);
width = 479;
}
);
unicode = 202;
},
{
glyphname = Edieresis;
lastChange = "2024-07-24 13:57:39 +0000";
layers = (
{
layerId = m001;
shapes = (
{
closed = 1;
nodes = (
(92,80,l),
(428,80,l),
(401,0,l),
(66,0,l)
);
},
{
closed = 1;
nodes = (
(304,700,l),
(639,700,l),
(612,620,l),
(278,621,l)
);
},
{
closed = 1;
nodes = (
(209,420,l),
(525,420,l),
(498,340,l),
(182,341,l)
);
},
{
closed = 1;
nodes = (
(343,700,l),
(101,0,l),
(22,0,l),
(257,699,l)
);
},
{
closed = 1;
nodes = (
(554,871,o),
(593,902,o),
(618,899,cs),
(645,896,o),
(660,869,o),
(654,843,cs),
(648,819,o),
(610,788,o),
(585,791,cs),
(558,794,o),
(542,821,o),
(548,847,cs)
);
},
{
closed = 1;
nodes = (
(366,871,o),
(404,902,o),
(429,899,cs),
(456,896,o),
(472,869,o),
(466,843,cs),
(460,819,o),
(422,788,o),
(397,791,cs),
(370,794,o),
(354,821,o),
(360,847,cs)
);
}
);
width = 517;
},
{
layerId = "E79D52FD-16C9-4CD8-B33B-848E03DA3A4F";
shapes = (
{
closed = 1;
nodes = (
(212,175,l),
(551,175,l),
(489,0,l),
(150,0,l)
);
},
{
closed = 1;
nodes = (
(391,700,l),
(730,700,l),
(669,525,l),
(330,525,l)
);
},
{
closed = 1;
nodes = (
(304,445,l),
(624,445,l),
(564,275,l),
(244,275,l)
);
},
{
closed = 1;
nodes = (
(452,700,l),
(212,0,l),
(8,0,l),
(248,700,l)
);
},
{
closed = 1;
nodes = (
(587,934,o),
(647,975,o),
(701,975,cs),
(756,975,o),
(795,930,o),
(780,875,cs),
(765,822,o),
(705,781,o),
(651,781,cs),
(596,781,o),
(557,826,o),
(572,881,cs)
);
},
{
closed = 1;
nodes = (
(333,934,o),
(393,975,o),
(447,975,cs),
(502,975,o),
(541,930,o),
(526,875,cs),
(511,822,o),
(451,781,o),
(397,781,cs),
(342,781,o),
(303,826,o),
(318,881,cs)
);
}
);
width = 597;
},
{
layerId = "6A4E6D7A-FBCF-4CEF-9028-EBF7BE717EF8";
shapes = (
{
closed = 1;
nodes = (
(35,10,l),
(354,10,l),
(351,0,l),
(32,0,l)
);
},
{
closed = 1;
nodes = (
(271,700,l),
(589,700,l),
(586,690,l),
(268,690,l)
);
},
{
closed = 1;
nodes = (
(167,394,l),
(466,394,l),
(463,384,l),
(163,384,l)
);
},
{
closed = 1;
nodes = (
(281,699,l),
(40,0,l),
(29,0,l),
(270,699,l)
);
},
{
closed = 1;
nodes = (
(548,803,o),
(556,810,o),
(561,810,cs),
(566,810,o),
(569,804,o),
(568,799,cs),
(567,795,o),
(559,788,o),
(554,788,cs),
(549,788,o),
(546,794,o),
(547,799,cs)
);
},
{
closed = 1;
nodes = (
(359,803,o),
(367,810,o),
(372,810,cs),
(377,810,o),
(381,804,o),
(380,799,cs),
(379,795,o),
(371,788,o),
(366,788,cs),
(361,788,o),
(357,794,o),
(358,799,cs)
);
}
);
width = 479;
}
);
unicode = 203;
},
{
glyphname = Edotaccent;
lastChange = "2024-07-24 13:57:39 +0000";
layers = (
{
layerId = m001;
shapes = (
{
closed = 1;
nodes = (
(92,80,l),
(428,80,l),
(401,0,l),
(66,0,l)
);
},
{
closed = 1;
nodes = (
(304,700,l),
(639,700,l),
(612,620,l),
(278,621,l)
);
},
{
closed = 1;
nodes = (
(209,420,l),
(525,420,l),
(498,340,l),
(182,341,l)
);
},
{
closed = 1;
nodes = (
(343,700,l),
(101,0,l),
(22,0,l),
(257,699,l)
);
},
{
closed = 1;
nodes = (
(444,851,o),
(482,882,o),
(507,879,cs),
(534,876,o),
(550,849,o),
(544,823,cs),
(538,799,o),
(499,768,o),
(474,771,cs),
(447,774,o),
(432,801,o),
(438,827,cs)
);
}
);
width = 517;
},
{
layerId = "E79D52FD-16C9-4CD8-B33B-848E03DA3A4F";
shapes = (
{
closed = 1;
nodes = (
(212,175,l),
(551,175,l),
(489,0,l),
(150,0,l)
);
},
{
closed = 1;
nodes = (
(391,700,l),
(730,700,l),
(669,525,l),
(330,525,l)
);
},
{
closed = 1;
nodes = (
(304,445,l),
(624,445,l),
(564,275,l),
(244,275,l)
);
},
{
closed = 1;
nodes = (
(452,700,l),
(212,0,l),
(8,0,l),
(248,700,l)
);
},
{
closed = 1;
nodes = (
(459,934,o),
(519,975,o),
(573,975,cs),
(628,975,o),
(667,930,o),
(652,875,cs),
(637,822,o),
(578,781,o),
(524,781,cs),
(469,781,o),
(429,826,o),
(444,881,cs)
);
}
);
width = 597;
},
{
layerId = "6A4E6D7A-FBCF-4CEF-9028-EBF7BE717EF8";
shapes = (
{
closed = 1;
nodes = (
(35,10,l),
(354,10,l),
(351,0,l),
(32,0,l)
);
},
{
closed = 1;
nodes = (
(271,700,l),
(589,700,l),
(586,690,l),
(268,690,l)
);
},
{
closed = 1;
nodes = (
(167,394,l),
(466,394,l),
(463,384,l),
(163,384,l)
);
},
{
closed = 1;
nodes = (
(281,699,l),
(40,0,l),
(29,0,l),
(270,699,l)
);
},
{
closed = 1;
nodes = (
(447,783,o),
(455,790,o),
(460,790,cs),
(465,790,o),
(468,784,o),
(467,779,cs),
(466,775,o),
(458,768,o),
(453,768,cs),
(448,768,o),
(445,774,o),
(446,779,cs)
);
}
);
width = 479;
}
);
unicode = 278;
},
{
glyphname = Egrave;
lastChange = "2024-07-24 13:57:39 +0000";
layers = (
{
layerId = m001;
shapes = (
{
closed = 1;
nodes = (
(92,80,l),
(428,80,l),
(401,0,l),
(66,0,l)
);
},
{
closed = 1;
nodes = (
(304,700,l),
(639,700,l),
(612,620,l),
(278,621,l)
);
},
{
closed = 1;
nodes = (
(209,420,l),
(525,420,l),
(498,340,l),
(182,341,l)
);
},
{
closed = 1;
nodes = (
(343,700,l),
(101,0,l),
(22,0,l),
(257,699,l)
);
},
{
closed = 1;
nodes = (
(482,960,l),
(573,798,l),
(524,770,l),
(399,922,l)
);
}
);
width = 517;
},
{
layerId = "E79D52FD-16C9-4CD8-B33B-848E03DA3A4F";
shapes = (
{
closed = 1;
nodes = (
(212,175,l),
(551,175,l),
(489,0,l),
(150,0,l)
);
},
{
closed = 1;
nodes = (
(391,700,l),
(730,700,l),
(669,525,l),
(330,525,l)
);
},
{
closed = 1;
nodes = (
(304,445,l),
(624,445,l),
(564,275,l),
(244,275,l)
);
},
{
closed = 1;
nodes = (
(452,700,l),
(212,0,l),
(8,0,l),
(248,700,l)
);
},
{
closed = 1;
nodes = (
(545,1001,l),
(637,833,l),
(527,790,l),
(402,946,l)
);
}
);
width = 597;
},
{
layerId = "6A4E6D7A-FBCF-4CEF-9028-EBF7BE717EF8";
shapes = (
{
closed = 1;
nodes = (
(35,10,l),
(354,10,l),
(351,0,l),
(32,0,l)
);
},
{
closed = 1;
nodes = (
(271,700,l),
(589,700,l),
(586,690,l),
(268,690,l)
);
},
{
closed = 1;
nodes = (
(167,394,l),
(466,394,l),
(463,384,l),
(163,384,l)
);
},
{
closed = 1;
nodes = (
(281,699,l),
(40,0,l),
(29,0,l),
(270,699,l)
);
},
{
closed = 1;
nodes = (
(368,932,l),
(476,773,l),
(471,769,l),
(359,925,l)
);
}
);
width = 479;
}
);
unicode = 200;
},
{
glyphname = Emacron;
lastChange = "2024-07-24 13:57:39 +0000";
layers = (
{
layerId = m001;
shapes = (
{
closed = 1;
nodes = (
(92,80,l),
(428,80,l),
(401,0,l),
(66,0,l)
);
},
{
closed = 1;
nodes = (
(304,700,l),
(639,700,l),
(612,620,l),
(278,621,l)
);
},
{
closed = 1;
nodes = (
(209,420,l),
(525,420,l),
(498,340,l),
(182,341,l)
);
},
{
closed = 1;
nodes = (
(343,700,l),
(101,0,l),
(22,0,l),
(257,699,l)
);
},
{
closed = 1;
nodes = (
(333,845,l),
(665,845,l),
(640,770,l),
(308,771,l)
);
}
);
width = 517;
},
{
layerId = "E79D52FD-16C9-4CD8-B33B-848E03DA3A4F";
shapes = (
{
closed = 1;
nodes = (
(212,175,l),
(551,175,l),
(489,0,l),
(150,0,l)
);
},
{
closed = 1;
nodes = (
(391,700,l),
(730,700,l),
(669,525,l),
(330,525,l)
);
},
{
closed = 1;
nodes = (
(304,445,l),
(624,445,l),
(564,275,l),
(244,275,l)
);
},
{
closed = 1;
nodes = (
(452,700,l),
(212,0,l),
(8,0,l),
(248,700,l)
);
},
{
closed = 1;
nodes = (
(388,945,l),
(757,945,l),
(699,780,l),
(330,780,l)
);
}
);
width = 597;
},
{
layerId = "6A4E6D7A-FBCF-4CEF-9028-EBF7BE717EF8";
shapes = (
{
closed = 1;
nodes = (
(35,10,l),
(354,10,l),
(351,0,l),
(32,0,l)
);
},
{
closed = 1;
nodes = (
(271,700,l),
(589,700,l),
(586,690,l),
(268,690,l)
);
},
{
closed = 1;
nodes = (
(167,394,l),
(466,394,l),
(463,384,l),
(163,384,l)
);
},
{
closed = 1;
nodes = (
(281,699,l),
(40,0,l),
(29,0,l),
(270,699,l)
);
},
{
closed = 1;
nodes = (
(333,845,l),
(662,845,l),
(659,835,l),
(329,835,l)
);
}
);
width = 479;
}
);
unicode = 274;
},
{
glyphname = Eogonek;
lastChange = "2024-07-24 13:57:39 +0000";
layers = (
{
layerId = m001;
shapes = (
{
closed = 1;
nodes = (
(92,80,l),
(428,80,l),
(401,0,l),
(66,0,l)
);
},
{
closed = 1;
nodes = (
(304,700,l),
(639,700,l),
(612,620,l),
(278,621,l)
);
},
{
closed = 1;
nodes = (
(209,420,l),
(525,420,l),
(498,340,l),
(182,341,l)
);
},
{
closed = 1;
nodes = (
(343,700,l),
(101,0,l),
(22,0,l),
(257,699,l)
);
},
{
closed = 1;
nodes = (
(259,-183,l),
(230,-202,o),
(201,-218,o),
(166,-219,cs),
(106,-221,o),
(61,-181,o),
(79,-119,cs),
(101,-46,o),
(187,-6,o),
(250,24,c),
(286,0,l),
(245,-23,o),
(177,-49,o),
(163,-100,cs),
(157,-122,o),
(163,-145,o),
(188,-149,cs),
(206,-152,o),
(228,-138,o),
(243,-130,c)
);
}
);
width = 517;
},
{
layerId = "E79D52FD-16C9-4CD8-B33B-848E03DA3A4F";
shapes = (
{
closed = 1;
nodes = (
(212,175,l),
(551,175,l),
(489,0,l),
(150,0,l)
);
},
{
closed = 1;
nodes = (
(391,700,l),
(730,700,l),
(669,525,l),
(330,525,l)
);
},
{
closed = 1;
nodes = (
(304,445,l),
(624,445,l),
(564,275,l),
(244,275,l)
);
},
{
closed = 1;
nodes = (
(452,700,l),
(212,0,l),
(8,0,l),
(248,700,l)
);
},
{
closed = 1;
nodes = (
(312,-183,l),
(279,-205,o),
(244,-221,o),
(204,-220,cs),
(147,-218,o),
(106,-177,o),
(121,-118,cs),
(141,-41,o),
(233,-5,o),
(297,25,c),
(338,0,l),
(305,-25,o),
(252,-48,o),
(238,-91,cs),
(235,-102,o),
(233,-116,o),
(247,-119,cs),
(264,-122,o),
(289,-106,o),
(304,-99,c)
);
}
);
width = 597;
},
{
layerId = "6A4E6D7A-FBCF-4CEF-9028-EBF7BE717EF8";
shapes = (
{
closed = 1;
nodes = (
(35,10,l),
(354,10,l),
(351,0,l),
(32,0,l)
);
},
{
closed = 1;
nodes = (
(271,700,l),
(589,700,l),
(586,690,l),
(268,690,l)
);
},
{
closed = 1;
nodes = (
(167,394,l),
(466,394,l),
(463,384,l),
(163,384,l)
);
},
{
closed = 1;
nodes = (
(281,699,l),
(40,0,l),
(29,0,l),
(270,699,l)
);
},
{
closed = 1;
nodes = (
(328,-182,l),
(296,-202,o),
(261,-220,o),
(222,-219,cs),
(175,-218,o),
(137,-190,o),
(151,-139,cs),
(173,-59,o),
(280,-21,o),
(347,9,c),
(351,0,l),
(289,-30,o),
(181,-64,o),
(161,-140,cs),
(149,-184,o),
(184,-208,o),
(224,-209,cs),
(260,-210,o),
(293,-191,o),
(323,-174,c)
);
}
);
width = 479;
}
);
unicode = 280;
},
{
glyphname = F;
lastChange = "2024-07-24 13:57:39 +0000";
layers = (
{
layerId = m001;
shapes = (
{
closed = 1;
nodes = (
(304,700,l),
(602,700,l),
(575,620,l),
(278,620,l)
);
},
{
closed = 1;
nodes = (
(209,420,l),
(497,420,l),
(470,340,l),
(182,341,l)
);
},
{
closed = 1;
nodes = (
(343,700,l),
(101,0,l),
(22,0,l),
(257,700,l)
);
}
);
width = 470;
},
{
layerId = "E79D52FD-16C9-4CD8-B33B-848E03DA3A4F";
shapes = (
{
closed = 1;
nodes = (
(391,700,l),
(692,700,l),
(627,515,l),
(326,515,l)
);
},
{
closed = 1;
nodes = (
(294,415,l),
(586,415,l),
(526,245,l),
(234,245,l)
);
},
{
closed = 1;
nodes = (
(452,700,l),
(212,0,l),
(8,0,l),
(248,700,l)
);
}
);
width = 550;
},
{
layerId = "6A4E6D7A-FBCF-4CEF-9028-EBF7BE717EF8";
shapes = (
{
closed = 1;
nodes = (
(272,700,l),
(552,700,l),
(548,689,l),
(268,689,l)
);
},
{
closed = 1;
nodes = (
(164,383,l),
(434,383,l),
(431,373,l),
(160,373,l)
);
},
{
closed = 1;
nodes = (
(281,699,l),
(40,0,l),
(29,0,l),
(270,699,l)
);
}
);
width = 423;
}
);
unicode = 70;
},
{
glyphname = G;
lastChange = "2024-07-24 13:57:39 +0000";
layers = (
{
layerId = m001;
shapes = (
{
closed = 1;
nodes = (
(447,354,l),
(753,354,l),
(686,171,o),
(530,-10,o),
(320,-10,cs),
(120,-10,o),
(45,179,o),
(101,350,cs),
(163,540,o),
(347,709,o),
(554,710,cs),
(662,711,o),
(744,659,o),
(784,559,c),
(711,507,l),
(683,586,o),
(621,625,o),
(537,624,cs),
(380,623,o),
(240,492,o),
(189,350,cs),
(145,226,o),
(184,77,o),
(337,76,cs),
(470,75,o),
(562,173,o),
(632,275,c),
(418,275,l)
);
}
);
width = 729;
},
{
layerId = "E79D52FD-16C9-4CD8-B33B-848E03DA3A4F";
shapes = (
{
closed = 1;
nodes = (
(484,399,l),
(834,399,l),
(778,176,o),
(627,-30,o),
(363,-30,cs),
(147,-30,o),
(28,152,o),
(90,350,cs),
(157,563,o),
(369,720,o),
(593,720,cs),
(719,720,o),
(805,650,o),
(860,541,c),
(642,452,l),
(628,498,o),
(607,534,o),
(554,534,cs),
(446,534,o),
(349,444,o),
(312,350,cs),
(279,265,o),
(291,156,o),
(401,156,cs),
(474,156,o),
(521,183,o),
(562,240,c),
(427,240,l)
);
}
);
width = 788;
},
{
layerId = "6A4E6D7A-FBCF-4CEF-9028-EBF7BE717EF8";
shapes = (
{
closed = 1;
nodes = (
(457,340,l),
(730,339,l),
(660,169,o),
(511,-7,o),
(311,-7,cs),
(113,-7,o),
(58,188,o),
(112,350,cs),
(173,533,o),
(350,709,o),
(553,708,cs),
(656,708,o),
(727,649,o),
(765,556,c),
(754,550,l),
(723,642,o),
(650,697,o),
(552,697,cs),
(354,698,o),
(184,528,o),
(123,350,cs),
(70,194,o),
(120,4,o),
(313,4,cs),
(504,4,o),
(646,169,o),
(717,329,c),
(454,330,l)
);
}
);
width = 719;
}
);
unicode = 71;
},
{
glyphname = Gbreve;
lastChange = "2024-09-04 08:48:07 +0000";
layers = (
{
layerId = m001;
shapes = (
{
closed = 1;
nodes = (
(447,355,l),
(753,354,l),
(686,171,o),
(530,-10,o),
(320,-10,cs),
(120,-10,o),
(45,179,o),
(101,350,cs),
(163,540,o),
(347,709,o),
(554,710,cs),
(662,711,o),
(744,659,o),
(784,559,c),
(711,507,l),
(683,586,o),
(621,625,o),
(537,624,cs),
(380,623,o),
(240,492,o),
(189,350,cs),
(145,226,o),
(184,77,o),
(337,76,cs),
(470,75,o),
(571,173,o),
(641,275,c),
(418,275,l)
);
},
{
closed = 1;
nodes = (
(545,909,l),
(542,869,o),
(550,837,o),
(597,836,cs),
(648,835,o),
(681,871,o),
(708,909,c),
(778,908,l),
(740,832,o),
(674,771,o),
(585,771,cs),
(498,771,o),
(467,832,o),
(478,910,c)
);
}
);
width = 729;
},
{
layerId = "E79D52FD-16C9-4CD8-B33B-848E03DA3A4F";
shapes = (
{
closed = 1;
nodes = (
(484,400,l),
(834,399,l),
(778,176,o),
(597,-29,o),
(353,-30,cs),
(137,-30,o),
(28,152,o),
(90,350,cs),
(157,563,o),
(369,722,o),
(593,720,cs),
(719,719,o),
(805,650,o),
(860,541,c),
(642,452,l),
(628,498,o),
(607,532,o),
(554,534,cs),
(446,539,o),
(349,444,o),
(312,350,cs),
(279,265,o),
(291,159,o),
(401,156,cs),
(474,154,o),
(531,195,o),
(582,242,c),
(427,240,l)
);
},
{
closed = 1;
nodes = (
(622,930,l),
(624,909,o),
(621,885,o),
(648,881,cs),
(677,877,o),
(701,910,o),
(717,929,c),
(835,927,l),
(800,843,o),
(732,782,o),
(637,781,cs),
(542,780,o),
(503,843,o),
(514,930,c)
);
}
);
width = 788;
},
{
layerId = "6A4E6D7A-FBCF-4CEF-9028-EBF7BE717EF8";
shapes = (
{
closed = 1;
nodes = (
(457,339,l),
(730,339,l),
(660,169,o),
(511,-7,o),
(311,-7,cs),
(113,-7,o),
(58,188,o),
(112,350,cs),
(173,533,o),
(350,709,o),
(553,708,cs),
(656,708,o),
(727,649,o),
(765,556,c),
(754,550,l),
(723,642,o),
(650,697,o),
(552,697,cs),
(354,698,o),
(184,528,o),
(123,350,cs),
(70,194,o),
(120,4,o),
(313,4,cs),
(504,4,o),
(646,169,o),
(717,329,c),
(454,329,l)
);
},
{
closed = 1;
nodes = (
(484,908,l),
(472,838,o),
(498,780,o),
(577,779,cs),
(661,778,o),
(724,838,o),
(763,906,c),
(773,906,l),
(733,831,o),
(666,768,o),
(576,769,cs),
(490,770,o),
(460,831,o),
(474,908,c)
);
}
);
width = 719;
}
);
unicode = 286;
},
{
glyphname = Gcircumflex;
lastChange = "2024-07-24 13:57:39 +0000";
layers = (
{
layerId = m001;
shapes = (
{
closed = 1;
nodes = (
(447,355,l),
(753,354,l),
(686,171,o),
(530,-10,o),
(320,-10,cs),
(120,-10,o),
(45,179,o),
(101,350,cs),
(163,540,o),
(347,709,o),
(554,710,cs),
(662,711,o),
(744,659,o),
(784,559,c),
(711,507,l),
(683,586,o),
(621,625,o),
(537,624,cs),
(380,623,o),
(240,492,o),
(189,350,cs),
(145,226,o),
(184,77,o),
(337,76,cs),
(470,75,o),
(571,173,o),
(641,275,c),
(418,275,l)
);
},
{
closed = 1;
nodes = (
(480,771,l),
(442,813,l),
(638,950,l),
(746,808,l),
(689,771,l),
(618,864,l)
);
}
);
width = 729;
},
{
layerId = "E79D52FD-16C9-4CD8-B33B-848E03DA3A4F";
shapes = (
{
closed = 1;
nodes = (
(484,400,l),
(834,399,l),
(778,176,o),
(597,-29,o),
(353,-30,cs),
(137,-30,o),
(28,152,o),
(90,350,cs),
(157,563,o),
(369,722,o),
(593,720,cs),
(719,719,o),
(805,650,o),
(860,541,c),
(642,452,l),
(628,498,o),
(607,532,o),
(554,534,cs),
(446,539,o),
(349,444,o),
(312,350,cs),
(279,265,o),
(291,159,o),
(401,156,cs),
(474,154,o),
(531,195,o),
(582,242,c),
(427,240,l)
);
},
{
closed = 1;
nodes = (
(560,780,l),
(450,877,l),
(695,1010,l),
(863,863,l),
(709,778,l),
(661,857,l)
);
}
);
width = 788;
},
{
layerId = "6A4E6D7A-FBCF-4CEF-9028-EBF7BE717EF8";
shapes = (
{
closed = 1;
nodes = (
(457,340,l),
(730,339,l),
(660,169,o),
(511,-7,o),
(311,-7,cs),
(113,-7,o),
(58,188,o),
(112,350,cs),
(173,533,o),
(350,709,o),
(553,708,cs),
(656,708,o),
(727,649,o),
(765,556,c),
(754,550,l),
(723,642,o),
(650,697,o),
(552,697,cs),
(354,698,o),
(184,528,o),
(123,350,cs),
(70,194,o),
(120,4,o),
(313,4,cs),
(504,4,o),
(646,169,o),
(717,329,c),
(454,330,l)
);
},
{
closed = 1;
nodes = (
(430,770,l),
(425,777,l),
(624,914,l),
(729,775,l),
(720,768,l),
(622,902,l)
);
}
);
width = 719;
}
);
unicode = 284;
},
{
glyphname = Gcommaaccent;
lastChange = "2024-07-24 14:04:50 +0000";
layers = (
{
layerId = m001;
shapes = (
{
closed = 1;
nodes = (
(447,355,l),
(753,354,l),
(686,171,o),
(530,-10,o),
(320,-10,cs),
(120,-10,o),
(45,179,o),
(101,350,cs),
(163,540,o),
(347,709,o),
(554,710,cs),
(662,711,o),
(744,659,o),
(784,559,c),
(711,507,l),
(683,586,o),
(621,625,o),
(537,624,cs),
(380,623,o),
(240,492,o),
(189,350,cs),
(145,226,o),
(184,77,o),
(337,76,cs),
(470,75,o),
(571,173,o),
(641,275,c),
(418,275,l)
);
},
{
closed = 1;
nodes = (
(366,-104,l),
(176,-348,l),
(124,-327,l),
(293,-72,l)
);
}
);
width = 729;
},
{
layerId = "E79D52FD-16C9-4CD8-B33B-848E03DA3A4F";
shapes = (
{
closed = 1;
nodes = (
(484,400,l),
(834,399,l),
(778,176,o),
(597,-29,o),
(353,-30,cs),
(137,-30,o),
(28,152,o),
(90,350,cs),
(157,563,o),
(369,722,o),
(593,720,cs),
(719,719,o),
(805,650,o),
(860,541,c),
(642,452,l),
(628,498,o),
(607,532,o),
(554,534,cs),
(446,539,o),
(349,444,o),
(312,350,cs),
(279,265,o),
(291,159,o),
(401,156,cs),
(474,154,o),
(531,195,o),
(582,242,c),
(427,240,l)
);
},
{
closed = 1;
nodes = (
(401,-128,l),
(190,-372,l),
(45,-345,l),
(216,-92,l)
);
}
);
width = 788;
},
{
layerId = "6A4E6D7A-FBCF-4CEF-9028-EBF7BE717EF8";
shapes = (
{
closed = 1;
nodes = (
(457,340,l),
(730,339,l),
(660,169,o),
(511,-7,o),
(311,-7,cs),
(113,-7,o),
(58,188,o),
(112,350,cs),
(173,533,o),
(350,709,o),
(553,708,cs),
(656,708,o),
(727,649,o),
(765,556,c),
(754,550,l),
(723,642,o),
(650,697,o),
(552,697,cs),
(354,698,o),
(184,528,o),
(123,350,cs),
(70,194,o),
(120,4,o),
(313,4,cs),
(504,4,o),
(646,169,o),
(717,329,c),
(454,330,l)
);
},
{
closed = 1;
nodes = (
(345,-75,l),
(152,-321,l),
(146,-319,l),
(335,-70,l)
);
}
);
width = 719;
}
);
unicode = 290;
},
{
glyphname = Gdotaccent;
lastChange = "2024-07-24 13:57:39 +0000";
layers = (
{
layerId = m001;
shapes = (
{
closed = 1;
nodes = (
(447,355,l),
(753,354,l),
(686,171,o),
(530,-10,o),
(320,-10,cs),
(120,-10,o),
(45,179,o),
(101,350,cs),
(163,540,o),
(347,709,o),
(554,710,cs),
(662,711,o),
(744,659,o),
(784,559,c),
(711,507,l),
(683,586,o),
(621,625,o),
(537,624,cs),
(380,623,o),
(240,492,o),
(189,350,cs),
(145,226,o),
(184,77,o),
(337,76,cs),
(470,75,o),
(571,173,o),
(641,275,c),
(418,275,l)
);
},
{
closed = 1;
nodes = (
(552,851,o),
(590,882,o),
(615,879,cs),
(642,876,o),
(658,849,o),
(652,823,cs),
(646,799,o),
(608,768,o),
(583,771,cs),
(556,774,o),
(540,801,o),
(546,827,cs)
);
}
);
width = 729;
},
{
layerId = "E79D52FD-16C9-4CD8-B33B-848E03DA3A4F";
shapes = (
{
closed = 1;
nodes = (
(484,400,l),
(834,399,l),
(778,176,o),
(597,-29,o),
(353,-30,cs),
(137,-30,o),
(28,152,o),
(90,350,cs),
(157,563,o),
(369,722,o),
(593,720,cs),
(719,719,o),
(805,650,o),
(860,541,c),
(642,452,l),
(628,498,o),
(607,532,o),
(554,534,cs),
(446,539,o),
(349,444,o),
(312,350,cs),
(279,265,o),
(291,159,o),
(401,156,cs),
(474,154,o),
(531,195,o),
(582,242,c),
(427,240,l)
);
},
{
closed = 1;
nodes = (
(571,934,o),
(630,975,o),
(684,975,cs),
(739,975,o),
(778,930,o),
(763,875,cs),
(748,822,o),
(689,781,o),
(635,781,cs),
(580,781,o),
(541,826,o),
(556,881,cs)
);
}
);
width = 788;
},
{
layerId = "6A4E6D7A-FBCF-4CEF-9028-EBF7BE717EF8";
shapes = (
{
closed = 1;
nodes = (
(457,340,l),
(730,339,l),
(660,169,o),
(511,-7,o),
(311,-7,cs),
(113,-7,o),
(58,188,o),
(112,350,cs),
(173,533,o),
(350,709,o),
(553,708,cs),
(656,708,o),
(727,649,o),
(765,556,c),
(754,550,l),
(723,642,o),
(650,697,o),
(552,697,cs),
(354,698,o),
(184,528,o),
(123,350,cs),
(70,194,o),
(120,4,o),
(313,4,cs),
(504,4,o),
(646,169,o),
(717,329,c),
(454,330,l)
);
},
{
closed = 1;
nodes = (
(569,783,o),
(577,790,o),
(582,790,cs),
(587,790,o),
(590,784,o),
(589,779,cs),
(588,775,o),
(580,768,o),
(575,768,cs),
(570,768,o),
(567,774,o),
(568,779,cs)
);
}
);
width = 719;
}
);
unicode = 288;
},
{
glyphname = H;
lastChange = "2024-07-24 13:57:39 +0000";
layers = (
{
layerId = m001;
shapes = (
{
closed = 1;
nodes = (
(208,420,l),
(663,420,l),
(636,341,l),
(182,341,l)
);
},
{
closed = 1;
nodes = (
(786,700,l),
(543,0,l),
(464,0,l),
(699,699,l)
);
},
{
closed = 1;
nodes = (
(343,700,l),
(101,0,l),
(22,0,l),
(257,699,l)
);
}
);
width = 672;
},
{
layerId = "E79D52FD-16C9-4CD8-B33B-848E03DA3A4F";
shapes = (
{
closed = 1;
nodes = (
(210,460,l),
(744,460,l),
(676,265,l),
(142,265,l)
);
},
{
closed = 1;
nodes = (
(904,700,l),
(664,0,l),
(450,0,l),
(690,700,l)
);
},
{
closed = 1;
nodes = (
(462,700,l),
(221,0,l),
(8,0,l),
(248,700,l)
);
}
);
width = 780;
},
{
layerId = "6A4E6D7A-FBCF-4CEF-9028-EBF7BE717EF8";
shapes = (
{
closed = 1;
nodes = (
(165,387,l),
(598,387,l),
(595,377,l),
(162,377,l)
);
},
{
closed = 1;
nodes = (
(710,699,l),
(469,0,l),
(458,0,l),
(699,699,l)
);
},
{
closed = 1;
nodes = (
(281,699,l),
(40,0,l),
(29,0,l),
(270,699,l)
);
}
);
width = 608;
}
);
unicode = 72;
},
{
glyphname = Hbar;
lastChange = "2024-07-24 13:57:39 +0000";
layers = (
{
layerId = m001;
shapes = (
{
closed = 1;
nodes = (
(208,420,l),
(665,420,l),
(638,341,l),
(183,341,l)
);
},
{
closed = 1;
nodes = (
(787,700,l),
(544,0,l),
(464,0,l),
(697,699,l)
);
},
{
closed = 1;
nodes = (
(345,700,l),
(101,0,l),
(22,0,l),
(255,699,l)
);
},
{
closed = 1;
nodes = (
(160,615,l),
(828,615,l),
(804,541,l),
(136,541,l)
);
}
);
width = 672;
},
{
layerId = "E79D52FD-16C9-4CD8-B33B-848E03DA3A4F";
shapes = (
{
closed = 1;
nodes = (
(58.015,459.697,l),
(596.325,459.668,l),
(528.05,265.303,l),
(-10.261,265.332,l)
);
},
{
closed = 1;
nodes = (
(756.047,699.776,l),
(515.899,0,l),
(297.569,0,l),
(537.718,699.805,l)
);
},
{
closed = 1;
nodes = (
(313.824,699.776,l),
(73.677,0,l),
(-144.654,0,l),
(95.495,699.805,l)
);
},
{
closed = 1;
nodes = (
(20.802,659.742,l),
(803.796,659.717,l),
(759.549,535.258,l),
(-23.445,535.283,l)
);
}
);
width = 780;
},
{
layerId = "6A4E6D7A-FBCF-4CEF-9028-EBF7BE717EF8";
shapes = (
{
closed = 1;
nodes = (
(165,387,l),
(598,387,l),
(595,377,l),
(162,377,l)
);
},
{
closed = 1;
nodes = (
(710,699,l),
(469,0,l),
(458,0,l),
(699,699,l)
);
},
{
closed = 1;
nodes = (
(281,699,l),
(40,0,l),
(29,0,l),
(270,699,l)
);
},
{
closed = 1;
nodes = (
(160,615,l),
(760,615,l),
(757,605,l),
(157,605,l)
);
}
);
width = 608;
}
);
unicode = 294;
},
{
glyphname = Hcircumflex;
lastChange = "2024-07-24 13:57:39 +0000";
layers = (
{
layerId = m001;
shapes = (
{
closed = 1;
nodes = (
(208,420,l),
(663,420,l),
(636,340,l),
(182,341,l)
);
},
{
closed = 1;
nodes = (
(786,700,l),
(543,0,l),
(464,0,l),
(699,699,l)
);
},
{
closed = 1;
nodes = (
(343,700,l),
(101,0,l),
(22,0,l),
(257,699,l)
);
},
{
closed = 1;
nodes = (
(446,771,l),
(407,813,l),
(603,950,l),
(711,808,l),
(654,771,l),
(583,864,l)
);
}
);
width = 672;
},
{
layerId = "E79D52FD-16C9-4CD8-B33B-848E03DA3A4F";
shapes = (
{
closed = 1;
nodes = (
(210,460,l),
(744,460,l),
(676,265,l),
(142,265,l)
);
},
{
closed = 1;
nodes = (
(904,700,l),
(664,0,l),
(450,0,l),
(690,700,l)
);
},
{
closed = 1;
nodes = (
(462,700,l),
(221,0,l),
(8,0,l),
(248,700,l)
);
},
{
closed = 1;
nodes = (
(536,780,l),
(426,877,l),
(671,1010,l),
(840,863,l),
(686,778,l),
(638,857,l)
);
}
);
width = 780;
},
{
layerId = "6A4E6D7A-FBCF-4CEF-9028-EBF7BE717EF8";
shapes = (
{
closed = 1;
nodes = (
(165,387,l),
(598,387,l),
(595,377,l),
(162,377,l)
);
},
{
closed = 1;
nodes = (
(710,699,l),
(469,0,l),
(458,0,l),
(699,699,l)
);
},
{
closed = 1;
nodes = (
(281,699,l),
(40,0,l),
(29,0,l),
(270,699,l)
);
},
{
closed = 1;
nodes = (
(367,770,l),
(363,777,l),
(562,914,l),
(667,775,l),
(657,768,l),
(560,902,l)
);
}
);
width = 608;
}
);
unicode = 292;
},
{
glyphname = I;
lastChange = "2024-07-24 13:57:39 +0000";
layers = (
{
layerId = m001;
shapes = (
{
closed = 1;
nodes = (
(343,700,l),
(101,0,l),
(22,0,l),
(257,700,l)
);
}
);
width = 230;
},
{
layerId = "E79D52FD-16C9-4CD8-B33B-848E03DA3A4F";
shapes = (
{
closed = 1;
nodes = (
(466,700,l),
(226,0,l),
(8,0,l),
(248,700,l)
);
}
);
width = 343;
},
{
layerId = "6A4E6D7A-FBCF-4CEF-9028-EBF7BE717EF8";
shapes = (
{
closed = 1;
nodes = (
(276,699,l),
(34,0,l),
(24,0,l),
(266,699,l)
);
}
);
width = 169;
}
);
unicode = 73;
},
{
glyphname = IJ;
lastChange = "2024-07-24 13:57:39 +0000";
layers = (
{
layerId = m001;
shapes = (
{
closed = 1;
nodes = (
(94,-126,o),
(110,-142,o),
(139,-140,cs),
(187,-136,o),
(220,-90,o),
(237,-50,c),
(495,700,l),
(573,700,l),
(314,-61,ls),
(282,-145,o),
(214,-221,o),
(118,-219,cs),
(75,-218,o),
(45,-199,o),
(17,-168,c),
(78,-105,l)
);
},
{
closed = 1;
nodes = (
(343,700,l),
(101,0,l),
(22,0,l),
(257,699,l)
);
}
);
width = 461;
},
{
layerId = "E79D52FD-16C9-4CD8-B33B-848E03DA3A4F";
shapes = (
{
closed = 1;
nodes = (
(171,-54,o),
(193,-72,o),
(218,-71,cs),
(260,-70,o),
(293,-29,o),
(309,6,c),
(549,700,l),
(786,700,l),
(531,-51,ls),
(481,-187,o),
(347,-250,o),
(208,-250,cs),
(131,-250,o),
(62,-224,o),
(-4,-186,c),
(152,-40,l)
);
},
{
closed = 1;
nodes = (
(466,700,l),
(226,0,l),
(8,0,l),
(248,700,l)
);
}
);
width = 663;
},
{
layerId = "6A4E6D7A-FBCF-4CEF-9028-EBF7BE717EF8";
shapes = (
{
closed = 1;
nodes = (
(29,-186,o),
(55,-207,o),
(93,-208,cs),
(184,-211,o),
(227,-124,o),
(254,-50,cs),
(511,699,l),
(522,699,l),
(262,-60,ls),
(234,-137,o),
(185,-222,o),
(92,-219,cs),
(50,-218,o),
(22,-196,o),
(-2,-165,c),
(6,-159,l)
);
},
{
closed = 1;
nodes = (
(276,699,l),
(34,0,l),
(24,0,l),
(266,699,l)
);
}
);
width = 461;
}
);
unicode = 306;
},
{
glyphname = Iacute;
lastChange = "2024-07-24 13:57:39 +0000";
layers = (
{
layerId = m001;
shapes = (
{
closed = 1;
nodes = (
(343,700,l),
(101,0,l),
(22,0,l),
(257,699,l)
);
},
{
closed = 1;
nodes = (
(280,771,l),
(243,803,l),
(437,959,l),
(498,915,l)
);
}
);
width = 230;
},
{
layerId = "E79D52FD-16C9-4CD8-B33B-848E03DA3A4F";
shapes = (
{
closed = 1;
nodes = (
(466,700,l),
(226,0,l),
(8,0,l),
(248,700,l)
);
},
{
closed = 1;
nodes = (
(384,791,l),
(284,847,l),
(473,998,l),
(597,933,l)
);
}
);
width = 343;
},
{
layerId = "6A4E6D7A-FBCF-4CEF-9028-EBF7BE717EF8";
shapes = (
{
closed = 1;
nodes = (
(276,699,l),
(34,0,l),
(24,0,l),
(266,699,l)
);
},
{
closed = 1;
nodes = (
(275,770,l),
(272,775,l),
(489,931,l),
(494,923,l)
);
}
);
width = 169;
}
);
unicode = 205;
},
{
glyphname = Ibreve;
lastChange = "2024-07-24 13:57:39 +0000";
layers = (
{
layerId = m001;
shapes = (
{
closed = 1;
nodes = (
(343,700,l),
(101,0,l),
(22,0,l),
(257,699,l)
);
},
{
closed = 1;
nodes = (
(289,909,l),
(286,869,o),
(294,837,o),
(341,836,cs),
(392,835,o),
(425,871,o),
(452,909,c),
(522,908,l),
(484,833,o),
(419,771,o),
(330,771,cs),
(243,771,o),
(211,832,o),
(222,910,c)
);
}
);
width = 230;
},
{
layerId = "E79D52FD-16C9-4CD8-B33B-848E03DA3A4F";
shapes = (
{
closed = 1;
nodes = (
(466,700,l),
(226,0,l),
(8,0,l),
(248,700,l)
);
},
{
closed = 1;
nodes = (
(379,930,l),
(381,909,o),
(379,885,o),
(406,881,cs),
(435,877,o),
(459,910,o),
(475,929,c),
(592,927,l),
(557,843,o),
(489,782,o),
(394,781,cs),
(299,780,o),
(261,843,o),
(272,930,c)
);
}
);
width = 343;
},
{
layerId = "6A4E6D7A-FBCF-4CEF-9028-EBF7BE717EF8";
shapes = (
{
closed = 1;
nodes = (
(276,699,l),
(34,0,l),
(24,0,l),
(266,699,l)
);
},
{
closed = 1;
nodes = (
(200,910,l),
(188,840,o),
(214,782,o),
(293,781,cs),
(377,780,o),
(441,840,o),
(480,908,c),
(490,908,l),
(450,833,o),
(382,770,o),
(292,771,cs),
(206,772,o),
(177,833,o),
(191,910,c)
);
}
);
width = 169;
}
);
unicode = 300;
},
{
glyphname = Icircumflex;
lastChange = "2024-07-24 13:57:39 +0000";
layers = (
{
layerId = m001;
shapes = (
{
closed = 1;
nodes = (
(343,700,l),
(101,0,l),
(22,0,l),
(257,699,l)
);
},
{
closed = 1;
nodes = (
(223,771,l),
(185,813,l),
(381,950,l),
(489,808,l),
(432,771,l),
(361,864,l)
);
}
);
width = 230;
},
{
layerId = "E79D52FD-16C9-4CD8-B33B-848E03DA3A4F";
shapes = (
{
closed = 1;
nodes = (
(466,700,l),
(226,0,l),
(8,0,l),
(248,700,l)
);
},
{
closed = 1;
nodes = (
(286,780,l),
(176,877,l),
(421,1010,l),
(590,863,l),
(436,778,l),
(388,857,l)
);
}
);
width = 343;
},
{
layerId = "6A4E6D7A-FBCF-4CEF-9028-EBF7BE717EF8";
shapes = (
{
closed = 1;
nodes = (
(276,699,l),
(34,0,l),
(24,0,l),
(266,699,l)
);
},
{
closed = 1;
nodes = (
(148,770,l),
(143,777,l),
(342,914,l),
(446,775,l),
(438,768,l),
(340,902,l)
);
}
);
width = 169;
}
);
unicode = 206;
},
{
glyphname = Idieresis;
lastChange = "2024-07-24 13:57:39 +0000";
layers = (
{
layerId = m001;
shapes = (
{
closed = 1;
nodes = (
(343,700,l),
(101,0,l),
(22,0,l),
(257,699,l)
);
},
{
closed = 1;
nodes = (
(390,850,o),
(428,882,o),
(453,879,cs),
(480,876,o),
(496,849,o),
(490,823,cs),
(484,799,o),
(445,768,o),
(420,771,cs),
(392,774,o),
(378,802,o),
(384,827,cs)
);
},
{
closed = 1;
nodes = (
(202,850,o),
(239,882,o),
(264,879,cs),
(291,876,o),
(308,849,o),
(302,823,cs),
(296,799,o),
(257,768,o),
(232,771,cs),
(204,774,o),
(190,802,o),
(196,827,cs)
);
}
);
width = 230;
},
{
layerId = "E79D52FD-16C9-4CD8-B33B-848E03DA3A4F";
shapes = (
{
closed = 1;
nodes = (
(466,700,l),
(226,0,l),
(8,0,l),
(248,700,l)
);
},
{
closed = 1;
nodes = (
(456,934,o),
(516,975,o),
(570,975,cs),
(625,975,o),
(664,930,o),
(649,875,cs),
(634,822,o),
(574,781,o),
(520,781,cs),
(465,781,o),
(426,826,o),
(441,881,cs)
);
},
{
closed = 1;
nodes = (
(202,934,o),
(261,975,o),
(315,975,cs),
(370,975,o),
(410,930,o),
(395,875,cs),
(380,822,o),
(320,781,o),
(266,781,cs),
(211,781,o),
(172,826,o),
(187,881,cs)
);
}
);
width = 343;
},
{
layerId = "6A4E6D7A-FBCF-4CEF-9028-EBF7BE717EF8";
shapes = (
{
closed = 1;
nodes = (
(276,699,l),
(34,0,l),
(24,0,l),
(266,699,l)
);
},
{
closed = 1;
nodes = (
(359,803,o),
(367,810,o),
(372,810,cs),
(377,810,o),
(381,804,o),
(380,799,cs),
(379,795,o),
(371,788,o),
(366,788,cs),
(361,788,o),
(357,794,o),
(358,799,cs)
);
},
{
closed = 1;
nodes = (
(228,803,o),
(236,810,o),
(241,810,cs),
(246,810,o),
(249,804,o),
(248,799,cs),
(247,795,o),
(239,788,o),
(234,788,cs),
(229,788,o),
(226,794,o),
(227,799,cs)
);
}
);
width = 169;
}
);
unicode = 207;
},
{
glyphname = Idotaccent;
lastChange = "2024-07-24 13:57:39 +0000";
layers = (
{
layerId = m001;
shapes = (
{
closed = 1;
nodes = (
(343,700,l),
(101,0,l),
(22,0,l),
(257,699,l)
);
},
{
closed = 1;
nodes = (
(295,851,o),
(334,882,o),
(359,879,cs),
(386,876,o),
(401,849,o),
(395,823,cs),
(389,799,o),
(351,768,o),
(326,771,cs),
(299,774,o),
(283,801,o),
(289,827,cs)
);
}
);
width = 230;
},
{
layerId = "E79D52FD-16C9-4CD8-B33B-848E03DA3A4F";
shapes = (
{
closed = 1;
nodes = (
(466,700,l),
(226,0,l),
(8,0,l),
(248,700,l)
);
},
{
closed = 1;
nodes = (
(328,934,o),
(388,975,o),
(442,975,cs),
(497,975,o),
(536,930,o),
(521,875,cs),
(506,822,o),
(446,781,o),
(392,781,cs),
(337,781,o),
(298,826,o),
(313,881,cs)
);
}
);
width = 343;
},
{
layerId = "6A4E6D7A-FBCF-4CEF-9028-EBF7BE717EF8";
shapes = (
{
closed = 1;
nodes = (
(276,699,l),
(34,0,l),
(24,0,l),
(266,699,l)
);
},
{
closed = 1;
nodes = (
(289,790,o),
(297,797,o),
(302,797,cs),
(307,797,o),
(310,791,o),
(309,786,cs),
(308,782,o),
(300,775,o),
(295,775,cs),
(290,775,o),
(287,781,o),
(288,786,cs)
);
}
);
width = 169;
}
);
unicode = 304;
},
{
glyphname = Igrave;
lastChange = "2024-07-24 13:57:39 +0000";
layers = (
{
layerId = m001;
shapes = (
{
closed = 1;
nodes = (
(343,700,l),
(101,0,l),
(22,0,l),
(257,699,l)
);
},
{
closed = 1;
nodes = (
(334,960,l),
(425,798,l),
(375,770,l),
(251,922,l)
);
}
);
width = 230;
},
{
layerId = "E79D52FD-16C9-4CD8-B33B-848E03DA3A4F";
shapes = (
{
closed = 1;
nodes = (
(466,700,l),
(226,0,l),
(8,0,l),
(248,700,l)
);
},
{
closed = 1;
nodes = (
(404,1001,l),
(496,833,l),
(386,790,l),
(261,946,l)
);
}
);
width = 343;
},
{
layerId = "6A4E6D7A-FBCF-4CEF-9028-EBF7BE717EF8";
shapes = (
{
closed = 1;
nodes = (
(276,699,l),
(34,0,l),
(24,0,l),
(266,699,l)
);
},
{
closed = 1;
nodes = (
(208,932,l),
(316,773,l),
(311,769,l),
(199,925,l)
);
}
);
width = 169;
}
);
unicode = 204;
},
{
glyphname = Imacron;
lastChange = "2024-07-24 13:57:39 +0000";
layers = (
{
layerId = m001;
shapes = (
{
closed = 1;
nodes = (
(343,700,l),
(101,0,l),
(22,0,l),
(257,699,l)
);
},
{
closed = 1;
nodes = (
(185,845,l),
(518,845,l),
(492,770,l),
(160,771,l)
);
}
);
width = 230;
},
{
layerId = "E79D52FD-16C9-4CD8-B33B-848E03DA3A4F";
shapes = (
{
closed = 1;
nodes = (
(466,700,l),
(226,0,l),
(8,0,l),
(248,700,l)
);
},
{
closed = 1;
nodes = (
(256,945,l),
(625,945,l),
(567,780,l),
(198,780,l)
);
}
);
width = 343;
},
{
layerId = "6A4E6D7A-FBCF-4CEF-9028-EBF7BE717EF8";
shapes = (
{
closed = 1;
nodes = (
(276,699,l),
(34,0,l),
(24,0,l),
(266,699,l)
);
},
{
closed = 1;
nodes = (
(185,845,l),
(515,845,l),
(511,835,l),
(182,835,l)
);
}
);
width = 169;
}
);
unicode = 298;
},
{
glyphname = Iogonek;
lastChange = "2024-07-24 13:57:39 +0000";
layers = (
{
layerId = m001;
shapes = (
{
closed = 1;
nodes = (
(343,700,l),
(101,0,l),
(22,0,l),
(257,699,l)
);
},
{
closed = 1;
nodes = (
(76,-183,l),
(47,-202,o),
(18,-218,o),
(-17,-219,cs),
(-77,-221,o),
(-122,-181,o),
(-104,-119,cs),
(-82,-46,o),
(4,-6,o),
(67,24,c),
(103,0,l),
(62,-23,o),
(-7,-49,o),
(-21,-100,cs),
(-27,-122,o),
(-21,-145,o),
(4,-149,cs),
(22,-152,o),
(44,-138,o),
(59,-130,c)
);
}
);
width = 230;
},
{
layerId = "E79D52FD-16C9-4CD8-B33B-848E03DA3A4F";
shapes = (
{
closed = 1;
nodes = (
(466,700,l),
(226,0,l),
(8,0,l),
(248,700,l)
);
},
{
closed = 1;
nodes = (
(162,-180,l),
(129,-202,o),
(94,-218,o),
(54,-217,cs),
(-3,-215,o),
(-46,-174,o),
(-31,-115,cs),
(-12,-38,o),
(81,-2,o),
(145,28,c),
(187,-2,l),
(151,-22,o),
(100,-46,o),
(86,-88,cs),
(82,-99,o),
(82,-113,o),
(96,-116,cs),
(113,-119,o),
(137,-103,o),
(152,-96,c)
);
}
);
width = 343;
},
{
layerId = "6A4E6D7A-FBCF-4CEF-9028-EBF7BE717EF8";
shapes = (
{
closed = 1;
nodes = (
(276,699,l),
(34,0,l),
(24,0,l),
(266,699,l)
);
},
{
closed = 1;
nodes = (
(13,-182,l),
(-19,-202,o),
(-54,-220,o),
(-93,-219,cs),
(-140,-218,o),
(-178,-190,o),
(-164,-139,cs),
(-142,-59,o),
(-35,-21,o),
(32,9,c),
(36,0,l),
(-26,-30,o),
(-135,-64,o),
(-155,-140,cs),
(-167,-184,o),
(-131,-208,o),
(-91,-209,cs),
(-55,-210,o),
(-22,-191,o),
(8,-174,c)
);
}
);
width = 169;
}
);
unicode = 302;
},
{
glyphname = Itilde;
lastChange = "2024-07-24 13:57:39 +0000";
layers = (
{
layerId = m001;
shapes = (
{
closed = 1;
nodes = (
(343,700,l),
(101,0,l),
(22,0,l),
(257,699,l)
);
},
{
closed = 1;
nodes = (
(209,846,o),
(250,891,o),
(302,888,cs),
(341,886,o),
(364,840,o),
(403,843,cs),
(431,845,o),
(455,872,o),
(474,889,c),
(507,844,l),
(477,813,o),
(435,771,o),
(387,775,cs),
(349,778,o),
(328,822,o),
(289,820,cs),
(259,818,o),
(239,792,o),
(222,771,c),
(180,810,l)
);
}
);
width = 230;
},
{
layerId = "E79D52FD-16C9-4CD8-B33B-848E03DA3A4F";
shapes = (
{
closed = 1;
nodes = (
(466,700,l),
(226,0,l),
(8,0,l),
(248,700,l)
);
},
{
closed = 1;
nodes = (
(241,916,o),
(290,967,o),
(354,964,cs),
(400,962,o),
(425,909,o),
(471,912,cs),
(506,914,o),
(535,944,o),
(560,966,c),
(621,869,l),
(581,826,o),
(518,776,o),
(455,781,cs),
(410,785,o),
(380,843,o),
(334,835,cs),
(305,830,o),
(286,807,o),
(269,786,c),
(208,867,l)
);
}
);
width = 343;
},
{
layerId = "6A4E6D7A-FBCF-4CEF-9028-EBF7BE717EF8";
shapes = (
{
closed = 1;
nodes = (
(276,699,l),
(34,0,l),
(24,0,l),
(266,699,l)
);
},
{
closed = 1;
nodes = (
(223,859,o),
(246,888,o),
(283,888,cs),
(323,888,o),
(344,841,o),
(384,843,cs),
(413,844,o),
(435,870,o),
(454,889,c),
(463,886,l),
(442,864,o),
(416,835,o),
(382,835,cs),
(343,835,o),
(323,879,o),
(284,880,cs),
(251,881,o),
(230,855,o),
(213,831,c),
(204,832,l)
);
}
);
width = 169;
}
);
unicode = 296;
},
{
glyphname = J;
lastChange = "2024-07-24 13:57:39 +0000";
layers = (
{
layerId = m001;
shapes = (
{
closed = 1;
nodes = (
(-141,-126,o),
(-125,-142,o),
(-96,-140,cs),
(-48,-136,o),
(-12,-91,o),
(2,-50,cs),
(259,700,l),
(338,700,l),
(79,-61,ls),
(47,-145,o),
(-22,-221,o),
(-118,-219,cs),
(-161,-218,o),
(-190,-199,o),
(-218,-168,c),
(-157,-105,l)
);
}
);
width = 225;
},
{
layerId = "E79D52FD-16C9-4CD8-B33B-848E03DA3A4F";
shapes = (
{
closed = 1;
nodes = (
(-130,-54,o),
(-108,-72,o),
(-83,-71,cs),
(-41,-70,o),
(-5,-30,o),
(8,6,cs),
(248,700,l),
(485,700,l),
(230,-51,ls),
(183,-188,o),
(46,-250,o),
(-93,-250,cs),
(-170,-250,o),
(-239,-224,o),
(-305,-186,c),
(-149,-40,l)
);
}
);
width = 362;
},
{
layerId = "6A4E6D7A-FBCF-4CEF-9028-EBF7BE717EF8";
shapes = (
{
closed = 1;
nodes = (
(-206,-186,o),
(-181,-207,o),
(-143,-208,cs),
(-52,-211,o),
(-8,-124,o),
(19,-50,cs),
(276,699,l),
(287,699,l),
(27,-60,ls),
(-1,-137,o),
(-50,-222,o),
(-143,-219,cs),
(-185,-218,o),
(-213,-196,o),
(-237,-165,c),
(-229,-159,l)
);
}
);
width = 185;
}
);
unicode = 74;
},
{
glyphname = Jcircumflex;
lastChange = "2024-07-24 13:57:39 +0000";
layers = (
{
layerId = m001;
shapes = (
{
closed = 1;
nodes = (
(-141,-126,o),
(-125,-142,o),
(-96,-140,cs),
(-48,-136,o),
(-15,-90,o),
(2,-50,c),
(259,700,l),
(338,700,l),
(79,-61,ls),
(47,-145,o),
(-22,-221,o),
(-118,-219,cs),
(-161,-218,o),
(-190,-199,o),
(-218,-168,c),
(-157,-105,l)
);
},
{
closed = 1;
nodes = (
(222,771,l),
(183,813,l),
(379,950,l),
(487,808,l),
(430,771,l),
(359,864,l)
);
}
);
width = 225;
},
{
layerId = "E79D52FD-16C9-4CD8-B33B-848E03DA3A4F";
shapes = (
{
closed = 1;
nodes = (
(-130,-54,o),
(-108,-72,o),
(-83,-71,cs),
(-41,-70,o),
(-8,-29,o),
(8,6,c),
(248,700,l),
(485,700,l),
(230,-51,ls),
(180,-187,o),
(46,-250,o),
(-93,-250,cs),
(-170,-250,o),
(-239,-224,o),
(-305,-186,c),
(-149,-40,l)
);
},
{
closed = 1;
nodes = (
(327,780,l),
(217,877,l),
(461,1010,l),
(630,863,l),
(476,778,l),
(428,857,l)
);
}
);
width = 362;
},
{
layerId = "6A4E6D7A-FBCF-4CEF-9028-EBF7BE717EF8";
shapes = (
{
closed = 1;
nodes = (
(-206,-186,o),
(-181,-207,o),
(-143,-208,cs),
(-52,-211,o),
(-8,-124,o),
(19,-50,cs),
(276,699,l),
(287,699,l),
(27,-60,ls),
(-1,-137,o),
(-50,-222,o),
(-143,-219,cs),
(-185,-218,o),
(-213,-196,o),
(-237,-165,c),
(-229,-159,l)
);
},
{
closed = 1;
nodes = (
(158,770,l),
(155,777,l),
(354,914,l),
(458,775,l),
(448,768,l),
(351,902,l)
);
}
);
width = 185;
}
);
unicode = 308;
},
{
glyphname = K;
lastChange = "2024-07-24 13:57:39 +0000";
layers = (
{
layerId = m001;
shapes = (
{
closed = 1;
nodes = (
(343,700,l),
(101,0,l),
(22,0,l),
(257,700,l)
);
},
{
closed = 1;
nodes = (
(703,699,l),
(299,368,l),
(470,0,l),
(377,0,l),
(203,375,l),
(594,699,l)
);
}
);
width = 531;
},
{
layerId = "E79D52FD-16C9-4CD8-B33B-848E03DA3A4F";
shapes = (
{
closed = 1;
nodes = (
(471,700,l),
(231,0,l),
(8,0,l),
(248,700,l)
);
},
{
closed = 1;
nodes = (
(921,699,l),
(540,363,l),
(681,0,l),
(440,0,l),
(294,375,l),
(660,699,l)
);
}
);
width = 734;
},
{
layerId = "6A4E6D7A-FBCF-4CEF-9028-EBF7BE717EF8";
shapes = (
{
closed = 1;
nodes = (
(276,699,l),
(35,0,l),
(24,0,l),
(266,699,l)
);
},
{
closed = 1;
nodes = (
(585,698,l),
(173,371,l),
(357,0,l),
(344,0,l),
(161,373,l),
(569,698,l)
);
}
);
width = 427;
}
);
unicode = 75;
},
{
glyphname = Kcommaaccent;
lastChange = "2024-07-24 14:04:50 +0000";
layers = (
{
layerId = m001;
shapes = (
{
closed = 1;
nodes = (
(343,700,l),
(101,0,l),
(22,0,l),
(257,699,l)
);
},
{
closed = 1;
nodes = (
(703,699,l),
(299,368,l),
(470,0,l),
(377,0,l),
(203,375,l),
(594,699,l)
);
},
{
closed = 1;
nodes = (
(299,-94,l),
(109,-338,l),
(57,-317,l),
(226,-62,l)
);
}
);
width = 531;
},
{
layerId = "E79D52FD-16C9-4CD8-B33B-848E03DA3A4F";
shapes = (
{
closed = 1;
nodes = (
(471,700,l),
(231,0,l),
(8,0,l),
(248,700,l)
);
},
{
closed = 1;
nodes = (
(921,699,l),
(540,363,l),
(681,0,l),
(440,0,l),
(294,375,l),
(660,699,l)
);
},
{
closed = 1;
nodes = (
(419,-98,l),
(207,-342,l),
(62,-315,l),
(233,-62,l)
);
}
);
width = 734;
},
{
layerId = "6A4E6D7A-FBCF-4CEF-9028-EBF7BE717EF8";
shapes = (
{
closed = 1;
nodes = (
(276,699,l),
(35,0,l),
(24,0,l),
(266,699,l)
);
},
{
closed = 1;
nodes = (
(585,698,l),
(175,371,l),
(359,0,l),
(344,0,l),
(161,373,l),
(569,698,l)
);
},
{
closed = 1;
nodes = (
(227,-67,l),
(35,-313,l),
(29,-311,l),
(217,-62,l)
);
}
);
width = 427;
}
);
unicode = 310;
},
{
glyphname = L;
lastChange = "2024-07-24 13:57:39 +0000";
layers = (
{
layerId = m001;
shapes = (
{
closed = 1;
nodes = (
(343,700,l),
(130,80,l),
(389,80,l),
(361,0,l),
(19,0,l),
(259,700,l)
);
}
);
width = 423;
},
{
layerId = "E79D52FD-16C9-4CD8-B33B-848E03DA3A4F";
shapes = (
{
closed = 1;
nodes = (
(462,700,l),
(285,185,l),
(554,185,l),
(489,0,l),
(8,0,l),
(248,700,l)
);
}
);
width = 541;
},
{
layerId = "6A4E6D7A-FBCF-4CEF-9028-EBF7BE717EF8";
shapes = (
{
closed = 1;
nodes = (
(280,699,l),
(43,10,l),
(335,10,l),
(332,0,l),
(30,0,l),
(270,699,l)
);
}
);
width = 404;
}
);
unicode = 76;
},
{
glyphname = Lacute;
lastChange = "2024-07-24 13:57:39 +0000";
layers = (
{
layerId = m001;
shapes = (
{
closed = 1;
nodes = (
(343,700,l),
(130,80,l),
(389,80,l),
(361,0,l),
(19,0,l),
(259,700,l)
);
},
{
closed = 1;
nodes = (
(410,772,l),
(372,803,l),
(566,959,l),
(628,915,l)
);
}
);
width = 423;
},
{
layerId = "E79D52FD-16C9-4CD8-B33B-848E03DA3A4F";
shapes = (
{
closed = 1;
nodes = (
(462,700,l),
(285,185,l),
(554,185,l),
(489,0,l),
(8,0,l),
(248,700,l)
);
},
{
closed = 1;
nodes = (
(526,781,l),
(426,837,l),
(615,988,l),
(739,923,l)
);
}
);
width = 541;
},
{
layerId = "6A4E6D7A-FBCF-4CEF-9028-EBF7BE717EF8";
shapes = (
{
closed = 1;
nodes = (
(280,699,l),
(43,10,l),
(335,10,l),
(332,0,l),
(30,0,l),
(270,699,l)
);
},
{
closed = 1;
nodes = (
(444,770,l),
(442,775,l),
(658,931,l),
(664,923,l)
);
}
);
width = 404;
}
);
unicode = 313;
},
{
glyphname = Lcaron;
lastChange = "2024-07-24 13:57:39 +0000";
layers = (
{
layerId = m001;
shapes = (
{
closed = 1;
nodes = (
(343,700,l),
(130,80,l),
(389,80,l),
(361,0,l),
(19,0,l),
(259,700,l)
);
},
{
closed = 1;
nodes = (
(565,676,l),
(376,432,l),
(324,453,l),
(493,708,l)
);
}
);
width = 423;
},
{
layerId = "E79D52FD-16C9-4CD8-B33B-848E03DA3A4F";
shapes = (
{
closed = 1;
nodes = (
(462,700,l),
(285,185,l),
(554,185,l),
(489,0,l),
(8,0,l),
(248,700,l)
);
},
{
closed = 1;
nodes = (
(805,682,l),
(595,438,l),
(450,465,l),
(621,718,l)
);
}
);
width = 541;
},
{
layerId = "6A4E6D7A-FBCF-4CEF-9028-EBF7BE717EF8";
shapes = (
{
closed = 1;
nodes = (
(280,699,l),
(43,10,l),
(335,10,l),
(332,0,l),
(30,0,l),
(270,699,l)
);
},
{
closed = 1;
nodes = (
(523,701,l),
(331,455,l),
(325,457,l),
(513,706,l)
);
}
);
width = 404;
}
);
unicode = 317;
},
{
glyphname = Lcommaaccent;
lastChange = "2024-07-24 14:04:50 +0000";
layers = (
{
layerId = m001;
shapes = (
{
closed = 1;
nodes = (
(343,700,l),
(130,80,l),
(389,80,l),
(361,0,l),
(19,0,l),
(259,700,l)
);
},
{
closed = 1;
nodes = (
(242,-94,l),
(53,-338,l),
(0,-317,l),
(170,-62,l)
);
}
);
width = 423;
},
{
layerId = "E79D52FD-16C9-4CD8-B33B-848E03DA3A4F";
shapes = (
{
closed = 1;
nodes = (
(462,700,l),
(285,185,l),
(554,185,l),
(489,0,l),
(8,0,l),
(248,700,l)
);
},
{
closed = 1;
nodes = (
(357,-98,l),
(146,-342,l),
(1,-315,l),
(172,-62,l)
);
}
);
width = 541;
},
{
layerId = "6A4E6D7A-FBCF-4CEF-9028-EBF7BE717EF8";
shapes = (
{
closed = 1;
nodes = (
(280,699,l),
(43,10,l),
(335,10,l),
(332,0,l),
(30,0,l),
(270,699,l)
);
},
{
closed = 1;
nodes = (
(178,-67,l),
(-14,-313,l),
(-20,-311,l),
(168,-62,l)
);
}
);
width = 404;
}
);
unicode = 315;
},
{
glyphname = Ldot;
lastChange = "2024-07-24 13:57:39 +0000";
layers = (
{
layerId = m001;
shapes = (
{
closed = 1;
nodes = (
(343,700,l),
(130,80,l),
(389,80,l),
(361,0,l),
(19,0,l),
(259,700,l)
);
},
{
closed = 1;
nodes = (
(332,441,o),
(370,472,o),
(395,469,cs),
(422,466,o),
(438,439,o),
(432,413,cs),
(426,389,o),
(388,358,o),
(363,361,cs),
(336,364,o),
(320,391,o),
(326,417,cs)
);
}
);
width = 423;
},
{
layerId = "E79D52FD-16C9-4CD8-B33B-848E03DA3A4F";
shapes = (
{
closed = 1;
nodes = (
(462,700,l),
(285,185,l),
(554,185,l),
(489,0,l),
(8,0,l),
(248,700,l)
);
},
{
closed = 1;
nodes = (
(453,502,o),
(517,554,o),
(580,554,cs),
(644,554,o),
(681,497,o),
(664,438,cs),
(647,378,o),
(583,326,o),
(520,326,cs),
(456,326,o),
(419,383,o),
(436,442,cs)
);
}
);
width = 541;
},
{
layerId = "6A4E6D7A-FBCF-4CEF-9028-EBF7BE717EF8";
shapes = (
{
closed = 1;
nodes = (
(280,699,l),
(43,10,l),
(335,10,l),
(332,0,l),
(30,0,l),
(270,699,l)
);
},
{
closed = 1;
nodes = (
(341,418,o),
(349,425,o),
(354,425,cs),
(359,425,o),
(362,419,o),
(361,414,cs),
(360,410,o),
(352,403,o),
(347,403,cs),
(342,403,o),
(339,409,o),
(340,414,cs)
);
}
);
width = 404;
}
);
unicode = 319;
},
{
glyphname = Lslash;
lastChange = "2024-07-24 13:57:39 +0000";
layers = (
{
layerId = m001;
shapes = (
{
closed = 1;
nodes = (
(66,397,l),
(377,564,l),
(380,508,l),
(68,341,l)
);
},
{
closed = 1;
nodes = (
(343,700,l),
(130,80,l),
(389,80,l),
(361,0,l),
(19,0,l),
(259,700,l)
);
}
);
width = 423;
},
{
layerId = "E79D52FD-16C9-4CD8-B33B-848E03DA3A4F";
shapes = (
{
closed = 1;
nodes = (
(34,384,l),
(523,668,l),
(547,577,l),
(57,290,l)
);
},
{
closed = 1;
nodes = (
(462,700,l),
(285,185,l),
(554,185,l),
(489,0,l),
(8,0,l),
(248,700,l)
);
}
);
width = 550;
},
{
layerId = "6A4E6D7A-FBCF-4CEF-9028-EBF7BE717EF8";
shapes = (
{
closed = 1;
nodes = (
(66,397,l),
(379,564,l),
(382,555,l),
(69,388,l)
);
},
{
closed = 1;
nodes = (
(272,699,l),
(35,10,l),
(293,10,l),
(289,0,l),
(20,0,l),
(261,699,l)
);
}
);
width = 352;
}
);
unicode = 321;
},
{
glyphname = M;
lastChange = "2024-07-24 13:57:39 +0000";
layers = (
{
layerId = m001;
shapes = (
{
closed = 1;
nodes = (
(65,0,l),
(-20,0,l),
(314,736,l),
(402,231,l),
(846,743,l),
(670,0,l),
(588,0,l),
(701,464,l),
(350,63,l),
(277,472,l)
);
}
);
width = 762;
},
{
layerId = "E79D52FD-16C9-4CD8-B33B-848E03DA3A4F";
shapes = (
{
closed = 1;
nodes = (
(199,0,l),
(-32,0,l),
(343,735,l),
(503,360,l),
(935,746,l),
(803,0,l),
(578,0,l),
(641,271,l),
(416,62,l),
(332,285,l)
);
}
);
width = 884;
},
{
layerId = "6A4E6D7A-FBCF-4CEF-9028-EBF7BE717EF8";
shapes = (
{
closed = 1;
nodes = (
(11,0,l),
(1,0,l),
(318,715,l),
(380,132,l),
(846,716,l),
(669,0,l),
(659,0,l),
(825,672,l),
(372,104,l),
(311,674,l)
);
}
);
width = 780;
}
);
unicode = 77;
},
{
glyphname = N;
lastChange = "2024-07-24 13:57:39 +0000";
layers = (
{
layerId = m001;
shapes = (
{
closed = 1;
nodes = (
(841,700,l),
(589,-33,l),
(282,522,l),
(102,0,l),
(18,0,l),
(270,733,l),
(578,178,l),
(758,700,l)
);
}
);
width = 729;
},
{
layerId = "E79D52FD-16C9-4CD8-B33B-848E03DA3A4F";
shapes = (
{
closed = 1;
nodes = (
(880,700,l),
(630,-31,l),
(322,320,l),
(212,0,l),
(8,0,l),
(258,731,l),
(565,380,l),
(676,700,l)
);
}
);
width = 757;
},
{
layerId = "6A4E6D7A-FBCF-4CEF-9028-EBF7BE717EF8";
shapes = (
{
closed = 1;
nodes = (
(746,699,l),
(500,-15,l),
(236,678,l),
(2,0,l),
(-9,0,l),
(237,715,l),
(500,17,l),
(735,699,l)
);
}
);
width = 625;
}
);
unicode = 78;
},
{
glyphname = Nacute;
lastChange = "2024-07-24 13:57:39 +0000";
layers = (
{
layerId = m001;
shapes = (
{
closed = 1;
nodes = (
(841,700,l),
(589,-33,l),
(282,522,l),
(102,0,l),
(18,0,l),
(270,733,l),
(578,178,l),
(758,700,l)
);
},
{
closed = 1;
nodes = (
(565,757,l),
(527,788,l),
(721,944,l),
(783,900,l)
);
}
);
width = 729;
},
{
layerId = "E79D52FD-16C9-4CD8-B33B-848E03DA3A4F";
shapes = (
{
closed = 1;
nodes = (
(880,700,l),
(630,-31,l),
(322,320,l),
(212,0,l),
(8,0,l),
(258,731,l),
(565,380,l),
(676,700,l)
);
},
{
closed = 1;
nodes = (
(556,766,l),
(456,822,l),
(645,973,l),
(769,908,l)
);
}
);
width = 757;
},
{
layerId = "6A4E6D7A-FBCF-4CEF-9028-EBF7BE717EF8";
shapes = (
{
closed = 1;
nodes = (
(746,699,l),
(500,-15,l),
(236,678,l),
(2,0,l),
(-9,0,l),
(237,715,l),
(500,17,l),
(735,699,l)
);
},
{
closed = 1;
nodes = (
(487,757,l),
(484,762,l),
(701,918,l),
(706,910,l)
);
}
);
width = 625;
}
);
unicode = 323;
},
{
glyphname = Ncaron;
lastChange = "2024-07-24 13:57:39 +0000";
layers = (
{
layerId = m001;
shapes = (
{
closed = 1;
nodes = (
(755,974,l),
(793,932,l),
(597,795,l),
(489,937,l),
(547,974,l),
(617,881,l)
);
},
{
closed = 1;
nodes = (
(841,700,l),
(589,-33,l),
(282,522,l),
(102,0,l),
(18,0,l),
(270,733,l),
(578,178,l),
(758,700,l)
);
}
);
width = 729;
},
{
layerId = "E79D52FD-16C9-4CD8-B33B-848E03DA3A4F";
shapes = (
{
closed = 1;
nodes = (
(690,995,l),
(800,898,l),
(556,765,l),
(387,912,l),
(541,997,l),
(589,918,l)
);
},
{
closed = 1;
nodes = (
(880,700,l),
(630,-31,l),
(322,320,l),
(212,0,l),
(8,0,l),
(258,731,l),
(565,380,l),
(676,700,l)
);
}
);
width = 757;
},
{
layerId = "6A4E6D7A-FBCF-4CEF-9028-EBF7BE717EF8";
shapes = (
{
closed = 1;
nodes = (
(721,911,l),
(726,903,l),
(527,766,l),
(423,905,l),
(433,913,l),
(530,778,l)
);
},
{
closed = 1;
nodes = (
(746,699,l),
(500,-15,l),
(236,678,l),
(2,0,l),
(-9,0,l),
(237,715,l),
(500,17,l),
(735,699,l)
);
}
);
width = 625;
}
);
unicode = 327;
},
{
glyphname = Ncommaaccent;
lastChange = "2024-07-24 14:04:50 +0000";
layers = (
{
layerId = m001;
shapes = (
{
closed = 1;
nodes = (
(378,-69,l),
(188,-313,l),
(136,-292,l),
(305,-37,l)
);
},
{
closed = 1;
nodes = (
(841,700,l),
(589,-33,l),
(282,522,l),
(102,0,l),
(18,0,l),
(270,733,l),
(578,178,l),
(758,700,l)
);
}
);
width = 729;
},
{
layerId = "E79D52FD-16C9-4CD8-B33B-848E03DA3A4F";
shapes = (
{
closed = 1;
nodes = (
(423,-103,l),
(213,-347,l),
(68,-320,l),
(239,-67,l)
);
},
{
closed = 1;
nodes = (
(880,700,l),
(630,-31,l),
(322,320,l),
(212,0,l),
(8,0,l),
(258,731,l),
(565,380,l),
(676,700,l)
);
}
);
width = 757;
},
{
layerId = "6A4E6D7A-FBCF-4CEF-9028-EBF7BE717EF8";
shapes = (
{
closed = 1;
nodes = (
(263,-52,l),
(71,-298,l),
(65,-296,l),
(254,-47,l)
);
},
{
closed = 1;
nodes = (
(746,699,l),
(500,-15,l),
(236,678,l),
(2,0,l),
(-9,0,l),
(237,715,l),
(500,17,l),
(735,699,l)
);
}
);
width = 625;
}
);
unicode = 325;
},
{
glyphname = Ntilde;
lastChange = "2024-07-24 13:57:39 +0000";
layers = (
{
layerId = m001;
shapes = (
{
closed = 1;
nodes = (
(841,700,l),
(589,-33,l),
(282,522,l),
(102,0,l),
(18,0,l),
(270,733,l),
(578,178,l),
(758,700,l)
);
},
{
closed = 1;
nodes = (
(446,831,o),
(487,876,o),
(539,873,cs),
(578,871,o),
(601,825,o),
(640,828,cs),
(668,830,o),
(692,857,o),
(711,874,c),
(744,829,l),
(714,798,o),
(671,756,o),
(623,760,cs),
(585,763,o),
(565,807,o),
(526,805,cs),
(496,803,o),
(476,777,o),
(459,756,c),
(417,795,l)
);
}
);
width = 729;
},
{
layerId = "E79D52FD-16C9-4CD8-B33B-848E03DA3A4F";
shapes = (
{
closed = 1;
nodes = (
(880,700,l),
(630,-31,l),
(322,320,l),
(212,0,l),
(8,0,l),
(258,731,l),
(565,380,l),
(676,700,l)
);
},
{
closed = 1;
nodes = (
(406,911,o),
(456,962,o),
(520,959,cs),
(565,957,o),
(591,904,o),
(636,907,cs),
(671,909,o),
(700,939,o),
(725,961,c),
(785,864,l),
(746,821,o),
(684,771,o),
(621,776,cs),
(576,780,o),
(544,838,o),
(498,830,cs),
(469,825,o),
(452,802,o),
(435,781,c),
(373,862,l)
);
}
);
width = 757;
},
{
layerId = "6A4E6D7A-FBCF-4CEF-9028-EBF7BE717EF8";
shapes = (
{
closed = 1;
nodes = (
(746,699,l),
(500,-15,l),
(236,678,l),
(2,0,l),
(-9,0,l),
(237,715,l),
(500,17,l),
(735,699,l)
);
},
{
closed = 1;
nodes = (
(414,784,o),
(436,813,o),
(473,813,cs),
(513,813,o),
(534,766,o),
(574,768,cs),
(603,769,o),
(625,795,o),
(644,814,c),
(653,811,l),
(632,789,o),
(606,760,o),
(572,760,cs),
(533,760,o),
(513,804,o),
(474,805,cs),
(441,806,o),
(421,780,o),
(404,756,c),
(395,757,l)
);
}
);
width = 625;
}
);
unicode = 209;
},
{
glyphname = Eng;
lastChange = "2024-07-24 13:57:39 +0000";
layers = (
{
layerId = m001;
shapes = (
{
closed = 1;
nodes = (
(358,-220,o),
(335,-207,o),
(324,-180,c),
(390,-114,l),
(395,-130,o),
(409,-140,o),
(430,-140,cs),
(464,-140,o),
(487,-114,o),
(508,-50,cs),
(541,49,l),
(249,521,l),
(75,0,l),
(-10,0,l),
(236,735,l),
(580,179,l),
(754,700,l),
(839,700,l),
(585,-60,ls),
(551,-161,o),
(482,-220,o),
(398,-220,cs)
);
}
);
width = 775;
},
{
layerId = "E79D52FD-16C9-4CD8-B33B-848E03DA3A4F";
shapes = (
{
closed = 1;
nodes = (
(318,-212,o),
(282,-197,o),
(244,-155,c),
(361,-17,l),
(371,-35,o),
(381,-42,o),
(398,-42,cs),
(428,-42,o),
(453,-21,o),
(464,13,cs),
(496,108,l),
(296,316,l),
(190,0,l),
(-20,0,l),
(226,735,l),
(563,384,l),
(669,700,l),
(879,700,l),
(631,-42,ls),
(596,-146,o),
(498,-212,o),
(376,-212,cs)
);
}
);
width = 805;
},
{
layerId = "6A4E6D7A-FBCF-4CEF-9028-EBF7BE717EF8";
shapes = (
{
closed = 1;
nodes = (
(340,-220,o),
(322,-192,o),
(314,-172,c),
(324,-165,l),
(333,-185,o),
(350,-210,o),
(387,-210,cs),
(467,-210,o),
(509,-138,o),
(528,-82,cs),
(554,-2,l),
(258,678,l),
(31,0,l),
(20,0,l),
(259,715,l),
(560,17,l),
(788,700,l),
(799,700,l),
(538,-82,ls),
(515,-151,o),
(467,-220,o),
(383,-220,cs)
);
}
);
width = 725;
}
);
unicode = 330;
},
{
glyphname = O;
lastChange = "2024-07-24 13:57:39 +0000";
layers = (
{
layerId = m001;
shapes = (
{
closed = 1;
nodes = (
(145,226,o),
(184,78,o),
(337,76,cs),
(494,74,o),
(635,210,o),
(685,350,cs),
(729,474,o),
(690,622,o),
(537,624,cs),
(380,626,o),
(239,490,o),
(189,350,cs)
);
},
{
closed = 1;
nodes = (
(162,538,o),
(348,711,o),
(553,710,cs),
(752,709,o),
(828,521,o),
(773,350,cs),
(712,162,o),
(525,-11,o),
(320,-10,cs),
(121,-9,o),
(46,179,o),
(101,350,cs)
);
}
);
width = 743;
},
{
layerId = "E79D52FD-16C9-4CD8-B33B-848E03DA3A4F";
shapes = (
{
closed = 1;
nodes = (
(287,277,o),
(293,182,o),
(390,179,cs),
(489,176,o),
(572,264,o),
(606,350,cs),
(635,424,o),
(629,519,o),
(531,521,cs),
(432,523,o),
(348,436,o),
(315,350,cs)
);
},
{
closed = 1;
nodes = (
(154,555,o),
(356,720,o),
(574,720,cs),
(784,720,o),
(891,543,o),
(831,350,cs),
(767,143,o),
(565,-31,o),
(343,-30,cs),
(129,-29,o),
(30,157,o),
(90,350,cs)
);
}
);
width = 790;
},
{
layerId = "6A4E6D7A-FBCF-4CEF-9028-EBF7BE717EF8";
shapes = (
{
closed = 1;
nodes = (
(70,194,o),
(117,4,o),
(310,3,cs),
(507,2,o),
(676,174,o),
(736,350,cs),
(789,506,o),
(742,696,o),
(549,697,cs),
(352,698,o),
(183,526,o),
(123,350,cs)
);
},
{
closed = 1;
nodes = (
(173,532,o),
(348,709,o),
(550,708,cs),
(748,707,o),
(801,512,o),
(747,350,cs),
(686,168,o),
(511,-9,o),
(309,-8,cs),
(111,-7,o),
(58,188,o),
(112,350,cs)
);
}
);
width = 728;
}
);
unicode = 79;
},
{
glyphname = Oacute;
lastChange = "2024-07-24 13:57:39 +0000";
layers = (
{
layerId = m001;
shapes = (
{
closed = 1;
nodes = (
(145,226,o),
(184,78,o),
(337,76,cs),
(494,74,o),
(635,210,o),
(685,350,cs),
(729,474,o),
(690,622,o),
(537,624,cs),
(380,626,o),
(239,490,o),
(189,350,cs)
);
},
{
closed = 1;
nodes = (
(162,538,o),
(348,711,o),
(553,710,cs),
(752,709,o),
(828,521,o),
(773,350,cs),
(712,162,o),
(525,-11,o),
(320,-10,cs),
(121,-9,o),
(46,179,o),
(101,350,cs)
);
},
{
closed = 1;
nodes = (
(528,772,l),
(490,803,l),
(683,959,l),
(746,915,l)
);
}
);
width = 743;
},
{
layerId = "E79D52FD-16C9-4CD8-B33B-848E03DA3A4F";
shapes = (
{
closed = 1;
nodes = (
(287,277,o),
(293,182,o),
(390,179,cs),
(489,176,o),
(572,264,o),
(606,350,cs),
(635,424,o),
(629,519,o),
(531,521,cs),
(432,523,o),
(348,436,o),
(315,350,cs)
);
},
{
closed = 1;
nodes = (
(154,555,o),
(356,720,o),
(574,720,cs),
(784,720,o),
(891,543,o),
(831,350,cs),
(767,143,o),
(565,-31,o),
(343,-30,cs),
(129,-29,o),
(30,157,o),
(90,350,cs)
);
},
{
closed = 1;
nodes = (
(630,791,l),
(530,847,l),
(719,998,l),
(843,933,l)
);
}
);
width = 790;
},
{
layerId = "6A4E6D7A-FBCF-4CEF-9028-EBF7BE717EF8";
shapes = (
{
closed = 1;
nodes = (
(70,194,o),
(117,4,o),
(310,3,cs),
(507,2,o),
(676,174,o),
(736,350,cs),
(789,506,o),
(742,696,o),
(549,697,cs),
(352,698,o),
(183,526,o),
(123,350,cs)
);
},
{
closed = 1;
nodes = (
(173,532,o),
(348,709,o),
(550,708,cs),
(748,707,o),
(801,512,o),
(747,350,cs),
(686,168,o),
(511,-9,o),
(309,-8,cs),
(111,-7,o),
(58,188,o),
(112,350,cs)
);
},
{
closed = 1;
nodes = (
(537,770,l),
(532,775,l),
(748,931,l),
(754,923,l)
);
}
);
width = 728;
}
);
unicode = 211;
},
{
glyphname = Obreve;
lastChange = "2024-07-24 13:57:39 +0000";
layers = (
{
layerId = m001;
shapes = (
{
closed = 1;
nodes = (
(145,226,o),
(184,78,o),
(337,76,cs),
(494,74,o),
(635,210,o),
(685,350,cs),
(729,474,o),
(690,622,o),
(537,624,cs),
(380,626,o),
(239,490,o),
(189,350,cs)
);
},
{
closed = 1;
nodes = (
(162,538,o),
(349,711,o),
(554,710,cs),
(753,709,o),
(828,521,o),
(773,350,cs),
(712,162,o),
(525,-11,o),
(320,-10,cs),
(121,-9,o),
(46,179,o),
(101,350,cs)
);
},
{
closed = 1;
nodes = (
(545,909,l),
(542,869,o),
(550,837,o),
(597,836,cs),
(648,835,o),
(681,871,o),
(708,909,c),
(778,908,l),
(740,833,o),
(674,771,o),
(585,771,cs),
(498,771,o),
(467,832,o),
(478,910,c)
);
}
);
width = 743;
},
{
layerId = "E79D52FD-16C9-4CD8-B33B-848E03DA3A4F";
shapes = (
{
closed = 1;
nodes = (
(287,277,o),
(293,182,o),
(390,179,cs),
(489,176,o),
(572,264,o),
(606,350,cs),
(635,424,o),
(629,519,o),
(531,521,cs),
(432,523,o),
(348,436,o),
(315,350,cs)
);
},
{
closed = 1;
nodes = (
(154,555,o),
(356,720,o),
(574,720,cs),
(784,720,o),
(891,543,o),
(831,350,cs),
(767,143,o),
(565,-31,o),
(343,-30,cs),
(129,-29,o),
(30,157,o),
(90,350,cs)
);
},
{
closed = 1;
nodes = (
(603,930,l),
(605,909,o),
(603,885,o),
(630,881,cs),
(659,877,o),
(682,910,o),
(698,929,c),
(816,927,l),
(781,843,o),
(713,782,o),
(618,781,cs),
(523,780,o),
(485,843,o),
(496,930,c)
);
}
);
width = 790;
},
{
layerId = "6A4E6D7A-FBCF-4CEF-9028-EBF7BE717EF8";
shapes = (
{
closed = 1;
nodes = (
(70,194,o),
(117,4,o),
(310,3,cs),
(507,2,o),
(676,174,o),
(736,350,cs),
(789,506,o),
(742,696,o),
(549,697,cs),
(352,698,o),
(183,526,o),
(123,350,cs)
);
},
{
closed = 1;
nodes = (
(173,532,o),
(348,709,o),
(550,708,cs),
(748,707,o),
(801,512,o),
(747,350,cs),
(686,168,o),
(511,-9,o),
(309,-8,cs),
(111,-7,o),
(58,188,o),
(112,350,cs)
);
},
{
closed = 1;
nodes = (
(481,908,l),
(469,838,o),
(495,780,o),
(574,779,cs),
(658,778,o),
(721,838,o),
(760,906,c),
(770,906,l),
(730,831,o),
(663,768,o),
(573,769,cs),
(487,770,o),
(457,831,o),
(471,908,c)
);
}
);
width = 728;
}
);
unicode = 334;
},
{
glyphname = Ocircumflex;
lastChange = "2024-07-24 13:57:39 +0000";
layers = (
{
layerId = m001;
shapes = (
{
closed = 1;
nodes = (
(145,226,o),
(184,78,o),
(337,76,cs),
(494,74,o),
(635,210,o),
(685,350,cs),
(729,474,o),
(690,622,o),
(537,624,cs),
(380,626,o),
(239,490,o),
(189,350,cs)
);
},
{
closed = 1;
nodes = (
(162,538,o),
(349,711,o),
(554,710,cs),
(753,709,o),
(828,521,o),
(773,350,cs),
(712,162,o),
(525,-11,o),
(320,-10,cs),
(121,-9,o),
(46,179,o),
(101,350,cs)
);
},
{
closed = 1;
nodes = (
(480,771,l),
(442,813,l),
(638,950,l),
(746,808,l),
(689,771,l),
(618,864,l)
);
}
);
width = 743;
},
{
layerId = "E79D52FD-16C9-4CD8-B33B-848E03DA3A4F";
shapes = (
{
closed = 1;
nodes = (
(287,277,o),
(293,182,o),
(390,179,cs),
(489,176,o),
(572,264,o),
(606,350,cs),
(635,424,o),
(629,519,o),
(531,521,cs),
(432,523,o),
(348,436,o),
(315,350,cs)
);
},
{
closed = 1;
nodes = (
(154,555,o),
(356,720,o),
(574,720,cs),
(784,720,o),
(891,543,o),
(831,350,cs),
(767,143,o),
(565,-31,o),
(343,-30,cs),
(129,-29,o),
(30,157,o),
(90,350,cs)
);
},
{
closed = 1;
nodes = (
(536,780,l),
(426,877,l),
(671,1010,l),
(840,863,l),
(686,778,l),
(638,857,l)
);
}
);
width = 790;
},
{
layerId = "6A4E6D7A-FBCF-4CEF-9028-EBF7BE717EF8";
shapes = (
{
closed = 1;
nodes = (
(70,194,o),
(117,4,o),
(310,3,cs),
(507,2,o),
(676,174,o),
(736,350,cs),
(789,506,o),
(742,696,o),
(549,697,cs),
(352,698,o),
(183,526,o),
(123,350,cs)
);
},
{
closed = 1;
nodes = (
(173,532,o),
(348,709,o),
(550,708,cs),
(748,707,o),
(801,512,o),
(747,350,cs),
(686,168,o),
(511,-9,o),
(309,-8,cs),
(111,-7,o),
(58,188,o),
(112,350,cs)
);
},
{
closed = 1;
nodes = (
(428,770,l),
(423,777,l),
(622,914,l),
(726,775,l),
(717,768,l),
(619,902,l)
);
}
);
width = 728;
}
);
unicode = 212;
},
{
glyphname = Odieresis;
lastChange = "2024-07-24 13:57:39 +0000";
layers = (
{
layerId = m001;
shapes = (
{
closed = 1;
nodes = (
(145,226,o),
(184,78,o),
(337,76,cs),
(494,74,o),
(635,210,o),
(685,350,cs),
(729,474,o),
(690,622,o),
(537,624,cs),
(380,626,o),
(239,490,o),
(189,350,cs)
);
},
{
closed = 1;
nodes = (
(162,538,o),
(348,711,o),
(553,710,cs),
(752,709,o),
(828,521,o),
(773,350,cs),
(712,162,o),
(525,-11,o),
(320,-10,cs),
(121,-9,o),
(46,179,o),
(101,350,cs)
);
},
{
closed = 1;
nodes = (
(646,851,o),
(684,882,o),
(709,879,cs),
(736,876,o),
(752,849,o),
(746,823,cs),
(740,799,o),
(702,768,o),
(677,771,cs),
(650,774,o),
(634,801,o),
(640,827,cs)
);
},
{
closed = 1;
nodes = (
(458,851,o),
(496,882,o),
(521,879,cs),
(548,876,o),
(564,849,o),
(558,823,cs),
(552,799,o),
(514,768,o),
(489,771,cs),
(462,774,o),
(446,801,o),
(452,827,cs)
);
}
);
width = 743;
},
{
layerId = "E79D52FD-16C9-4CD8-B33B-848E03DA3A4F";
shapes = (
{
closed = 1;
nodes = (
(287,277,o),
(293,182,o),
(390,179,cs),
(489,176,o),
(572,264,o),
(606,350,cs),
(635,424,o),
(629,519,o),
(531,521,cs),
(432,523,o),
(348,436,o),
(315,350,cs)
);
},
{
closed = 1;
nodes = (
(154,555,o),
(356,720,o),
(574,720,cs),
(784,720,o),
(891,543,o),
(831,350,cs),
(767,143,o),
(565,-31,o),
(343,-30,cs),
(129,-29,o),
(30,157,o),
(90,350,cs)
);
},
{
closed = 1;
nodes = (
(679,934,o),
(739,975,o),
(793,975,cs),
(848,975,o),
(887,930,o),
(872,875,cs),
(857,822,o),
(797,781,o),
(743,781,cs),
(688,781,o),
(649,826,o),
(664,881,cs)
);
},
{
closed = 1;
nodes = (
(425,934,o),
(484,975,o),
(538,975,cs),
(593,975,o),
(633,930,o),
(618,875,cs),
(603,822,o),
(543,781,o),
(489,781,cs),
(434,781,o),
(395,826,o),
(410,881,cs)
);
}
);
width = 790;
},
{
layerId = "6A4E6D7A-FBCF-4CEF-9028-EBF7BE717EF8";
shapes = (
{
closed = 1;
nodes = (
(70,194,o),
(117,4,o),
(310,3,cs),
(507,2,o),
(676,174,o),
(736,350,cs),
(789,506,o),
(742,696,o),
(549,697,cs),
(352,698,o),
(183,526,o),
(123,350,cs)
);
},
{
closed = 1;
nodes = (
(173,532,o),
(348,709,o),
(550,708,cs),
(748,707,o),
(801,512,o),
(747,350,cs),
(686,168,o),
(511,-9,o),
(309,-8,cs),
(111,-7,o),
(58,188,o),
(112,350,cs)
);
},
{
closed = 1;
nodes = (
(680,813,o),
(688,820,o),
(693,820,cs),
(698,820,o),
(701,814,o),
(700,809,cs),
(699,805,o),
(691,798,o),
(686,798,cs),
(681,798,o),
(678,804,o),
(679,809,cs)
);
},
{
closed = 1;
nodes = (
(473,813,o),
(481,820,o),
(486,820,cs),
(491,820,o),
(494,814,o),
(493,809,cs),
(492,805,o),
(484,798,o),
(479,798,cs),
(474,798,o),
(471,804,o),
(472,809,cs)
);
}
);
width = 728;
}
);
unicode = 214;
},
{
glyphname = Ograve;
lastChange = "2024-07-24 13:57:39 +0000";
layers = (
{
layerId = m001;
shapes = (
{
closed = 1;
nodes = (
(145,226,o),
(184,78,o),
(337,76,cs),
(494,74,o),
(635,210,o),
(685,350,cs),
(729,474,o),
(690,622,o),
(537,624,cs),
(380,626,o),
(239,490,o),
(189,350,cs)
);
},
{
closed = 1;
nodes = (
(162,538,o),
(348,711,o),
(553,710,cs),
(752,709,o),
(828,521,o),
(773,350,cs),
(712,162,o),
(525,-11,o),
(320,-10,cs),
(121,-9,o),
(46,179,o),
(101,350,cs)
);
},
{
closed = 1;
nodes = (
(600,960,l),
(691,798,l),
(641,770,l),
(517,922,l)
);
}
);
width = 743;
},
{
layerId = "E79D52FD-16C9-4CD8-B33B-848E03DA3A4F";
shapes = (
{
closed = 1;
nodes = (
(287,277,o),
(293,182,o),
(390,179,cs),
(489,176,o),
(572,264,o),
(606,350,cs),
(635,424,o),
(629,519,o),
(531,521,cs),
(432,523,o),
(348,436,o),
(315,350,cs)
);
},
{
closed = 1;
nodes = (
(154,555,o),
(356,720,o),
(574,720,cs),
(784,720,o),
(891,543,o),
(831,350,cs),
(767,143,o),
(565,-31,o),
(343,-30,cs),
(129,-29,o),
(30,157,o),
(90,350,cs)
);
},
{
closed = 1;
nodes = (
(651,1001,l),
(743,833,l),
(634,790,l),
(509,946,l)
);
}
);
width = 790;
},
{
layerId = "6A4E6D7A-FBCF-4CEF-9028-EBF7BE717EF8";
shapes = (
{
closed = 1;
nodes = (
(70,194,o),
(117,4,o),
(310,3,cs),
(507,2,o),
(676,174,o),
(736,350,cs),
(789,506,o),
(742,696,o),
(549,697,cs),
(352,698,o),
(183,526,o),
(123,350,cs)
);
},
{
closed = 1;
nodes = (
(173,532,o),
(348,709,o),
(550,708,cs),
(748,707,o),
(801,512,o),
(747,350,cs),
(686,168,o),
(511,-9,o),
(309,-8,cs),
(111,-7,o),
(58,188,o),
(112,350,cs)
);
},
{
closed = 1;
nodes = (
(508,932,l),
(615,773,l),
(608,769,l),
(498,925,l)
);
}
);
width = 728;
}
);
unicode = 210;
},
{
glyphname = Ohungarumlaut;
lastChange = "2024-09-04 08:52:15 +0000";
layers = (
{
layerId = m001;
shapes = (
{
closed = 1;
nodes = (
(433,792,l),
(587,986,l),
(675,961,l),
(491,770,l)
);
},
{
closed = 1;
nodes = (
(598,792,l),
(751,986,l),
(841,961,l),
(655,770,l)
);
},
{
closed = 1;
nodes = (
(145,226,o),
(184,78,o),
(337,76,cs),
(494,74,o),
(635,210,o),
(685,350,cs),
(729,474,o),
(690,622,o),
(537,624,cs),
(380,626,o),
(239,490,o),
(189,350,cs)
);
},
{
closed = 1;
nodes = (
(162,538,o),
(348,711,o),
(553,710,cs),
(752,709,o),
(828,521,o),
(773,350,cs),
(712,162,o),
(525,-11,o),
(320,-10,cs),
(121,-9,o),
(46,179,o),
(101,350,cs)
);
}
);
width = 743;
},
{
layerId = "E79D52FD-16C9-4CD8-B33B-848E03DA3A4F";
shapes = (
{
closed = 1;
nodes = (
(364,820,l),
(546,1004,l),
(696,958,l),
(485,780,l)
);
},
{
closed = 1;
nodes = (
(584,820,l),
(766,1004,l),
(916,958,l),
(705,780,l)
);
},
{
closed = 1;
nodes = (
(287,277,o),
(293,182,o),
(390,179,cs),
(489,176,o),
(572,264,o),
(606,350,cs),
(635,424,o),
(629,519,o),
(531,521,cs),
(432,523,o),
(348,436,o),
(315,350,cs)
);
},
{
closed = 1;
nodes = (
(154,555,o),
(356,720,o),
(574,720,cs),
(784,720,o),
(891,543,o),
(831,350,cs),
(767,143,o),
(565,-31,o),
(343,-30,cs),
(129,-29,o),
(30,157,o),
(90,350,cs)
);
}
);
width = 790;
},
{
layerId = "6A4E6D7A-FBCF-4CEF-9028-EBF7BE717EF8";
shapes = (
{
closed = 1;
nodes = (
(518,771,l),
(693,979,l),
(701,974,l),
(523,768,l)
);
},
{
closed = 1;
nodes = (
(618,771,l),
(793,979,l),
(801,974,l),
(623,768,l)
);
},
{
closed = 1;
nodes = (
(70,194,o),
(117,4,o),
(310,3,cs),
(507,2,o),
(676,174,o),
(736,350,cs),
(789,506,o),
(742,696,o),
(549,697,cs),
(352,698,o),
(183,526,o),
(123,350,cs)
);
},
{
closed = 1;
nodes = (
(173,532,o),
(348,709,o),
(550,708,cs),
(748,707,o),
(801,512,o),
(747,350,cs),
(686,168,o),
(511,-9,o),
(309,-8,cs),
(111,-7,o),
(58,188,o),
(112,350,cs)
);
}
);
width = 728;
}
);
unicode = 336;
},
{
glyphname = Omacron;
lastChange = "2024-07-24 13:57:39 +0000";
layers = (
{
layerId = m001;
shapes = (
{
closed = 1;
nodes = (
(145,226,o),
(184,78,o),
(337,76,cs),
(494,74,o),
(635,210,o),
(685,350,cs),
(729,474,o),
(690,622,o),
(537,624,cs),
(380,626,o),
(239,490,o),
(189,350,cs)
);
},
{
closed = 1;
nodes = (
(162,538,o),
(349,711,o),
(554,710,cs),
(753,709,o),
(828,521,o),
(773,350,cs),
(712,162,o),
(525,-11,o),
(320,-10,cs),
(121,-9,o),
(46,179,o),
(101,350,cs)
);
},
{
closed = 1;
nodes = (
(441,845,l),
(774,845,l),
(748,770,l),
(416,771,l)
);
}
);
width = 743;
},
{
layerId = "E79D52FD-16C9-4CD8-B33B-848E03DA3A4F";
shapes = (
{
closed = 1;
nodes = (
(287,277,o),
(293,182,o),
(390,179,cs),
(489,176,o),
(572,264,o),
(606,350,cs),
(635,424,o),
(629,519,o),
(531,521,cs),
(432,523,o),
(348,436,o),
(315,350,cs)
);
},
{
closed = 1;
nodes = (
(154,555,o),
(356,720,o),
(574,720,cs),
(784,720,o),
(891,543,o),
(831,350,cs),
(767,143,o),
(565,-31,o),
(343,-30,cs),
(129,-29,o),
(30,157,o),
(90,350,cs)
);
},
{
closed = 1;
nodes = (
(480,945,l),
(848,945,l),
(790,780,l),
(422,780,l)
);
}
);
width = 790;
},
{
layerId = "6A4E6D7A-FBCF-4CEF-9028-EBF7BE717EF8";
shapes = (
{
closed = 1;
nodes = (
(70,194,o),
(117,4,o),
(310,3,cs),
(507,2,o),
(676,174,o),
(736,350,cs),
(789,506,o),
(742,696,o),
(549,697,cs),
(352,698,o),
(183,526,o),
(123,350,cs)
);
},
{
closed = 1;
nodes = (
(173,532,o),
(348,709,o),
(550,708,cs),
(748,707,o),
(801,512,o),
(747,350,cs),
(686,168,o),
(511,-9,o),
(309,-8,cs),
(111,-7,o),
(58,188,o),
(112,350,cs)
);
},
{
closed = 1;
nodes = (
(417,798,l),
(747,798,l),
(744,788,l),
(414,788,l)
);
}
);
width = 728;
}
);
unicode = 332;
},
{
glyphname = Oslash;
lastChange = "2024-07-24 13:57:39 +0000";
layers = (
{
layerId = m001;
shapes = (
{
closed = 1;
nodes = (
(145,226,o),
(184,78,o),
(337,76,cs),
(494,74,o),
(635,210,o),
(685,350,cs),
(729,474,o),
(690,622,o),
(537,624,cs),
(380,626,o),
(239,490,o),
(189,350,cs)
);
},
{
closed = 1;
nodes = (
(162,538,o),
(349,711,o),
(554,710,cs),
(753,709,o),
(828,521,o),
(773,350,cs),
(712,162,o),
(525,-11,o),
(320,-10,cs),
(121,-9,o),
(46,179,o),
(101,350,cs)
);
},
{
closed = 1;
nodes = (
(893,707,l),
(25,-49,l),
(-22,-7,l),
(845,749,l)
);
}
);
width = 743;
},
{
layerId = "E79D52FD-16C9-4CD8-B33B-848E03DA3A4F";
shapes = (
{
closed = 1;
nodes = (
(286,276,o),
(292,181,o),
(390,179,cs),
(490,176,o),
(572,263,o),
(606,350,cs),
(635,424,o),
(629,519,o),
(531,521,cs),
(431,524,o),
(349,437,o),
(315,350,cs)
);
},
{
closed = 1;
nodes = (
(154,556,o),
(355,721,o),
(574,720,cs),
(783,719,o),
(891,543,o),
(831,350,cs),
(767,144,o),
(564,-31,o),
(343,-30,cs),
(130,-29,o),
(30,158,o),
(90,350,cs)
);
},
{
closed = 1;
nodes = (
(921,690,l),
(57,-60,l),
(-5,0,l),
(856,759,l)
);
}
);
width = 743;
},
{
layerId = "6A4E6D7A-FBCF-4CEF-9028-EBF7BE717EF8";
shapes = (
{
closed = 1;
nodes = (
(70,194,o),
(117,4,o),
(310,3,cs),
(507,2,o),
(676,174,o),
(736,350,cs),
(789,506,o),
(742,696,o),
(549,697,cs),
(352,698,o),
(183,526,o),
(123,350,cs)
);
},
{
closed = 1;
nodes = (
(173,532,o),
(348,709,o),
(550,708,cs),
(748,707,o),
(801,512,o),
(747,350,cs),
(686,168,o),
(511,-9,o),
(309,-8,cs),
(111,-7,o),
(58,188,o),
(112,350,cs)
);
},
{
closed = 1;
nodes = (
(875,725,l),
(4,-32,l),
(-5,-25,l),
(866,732,l)
);
}
);
width = 743;
}
);
unicode = 216;
},
{
glyphname = Otilde;
lastChange = "2024-07-24 13:57:39 +0000";
layers = (
{
layerId = m001;
shapes = (
{
closed = 1;
nodes = (
(145,226,o),
(184,78,o),
(337,76,cs),
(494,74,o),
(635,210,o),
(685,350,cs),
(729,474,o),
(690,622,o),
(537,624,cs),
(380,626,o),
(239,490,o),
(189,350,cs)
);
},
{
closed = 1;
nodes = (
(162,538,o),
(349,711,o),
(554,710,cs),
(753,709,o),
(828,521,o),
(773,350,cs),
(712,162,o),
(525,-11,o),
(320,-10,cs),
(121,-9,o),
(46,179,o),
(101,350,cs)
);
},
{
closed = 1;
nodes = (
(427,850,o),
(530,889,o),
(558,888,cs),
(597,886,o),
(619,840,o),
(659,843,cs),
(687,845,o),
(711,872,o),
(730,889,c),
(763,844,l),
(733,813,o),
(691,771,o),
(643,775,cs),
(605,778,o),
(584,822,o),
(545,820,cs),
(515,818,o),
(495,792,o),
(478,771,c),
(436,810,l)
);
}
);
width = 743;
},
{
layerId = "E79D52FD-16C9-4CD8-B33B-848E03DA3A4F";
shapes = (
{
closed = 1;
nodes = (
(287,277,o),
(293,182,o),
(390,179,cs),
(489,176,o),
(572,264,o),
(606,350,cs),
(635,424,o),
(629,519,o),
(531,521,cs),
(432,523,o),
(348,436,o),
(315,350,cs)
);
},
{
closed = 1;
nodes = (
(154,555,o),
(356,720,o),
(574,720,cs),
(784,720,o),
(891,543,o),
(831,350,cs),
(767,143,o),
(565,-31,o),
(343,-30,cs),
(129,-29,o),
(30,157,o),
(90,350,cs)
);
},
{
closed = 1;
nodes = (
(446,911,o),
(496,962,o),
(560,959,cs),
(605,957,o),
(631,904,o),
(676,907,cs),
(711,909,o),
(740,939,o),
(765,961,c),
(825,864,l),
(786,821,o),
(724,771,o),
(661,776,cs),
(616,780,o),
(584,838,o),
(538,830,cs),
(509,825,o),
(492,802,o),
(475,781,c),
(413,862,l)
);
}
);
width = 790;
},
{
layerId = "6A4E6D7A-FBCF-4CEF-9028-EBF7BE717EF8";
shapes = (
{
closed = 1;
nodes = (
(70,194,o),
(117,4,o),
(310,3,cs),
(507,2,o),
(676,174,o),
(736,350,cs),
(789,506,o),
(742,696,o),
(549,697,cs),
(352,698,o),
(183,526,o),
(123,350,cs)
);
},
{
closed = 1;
nodes = (
(173,532,o),
(348,709,o),
(550,708,cs),
(748,707,o),
(801,512,o),
(747,350,cs),
(686,168,o),
(511,-9,o),
(309,-8,cs),
(111,-7,o),
(58,188,o),
(112,350,cs)
);
},
{
closed = 1;
nodes = (
(478,816,o),
(501,846,o),
(539,846,cs),
(579.012,846,o),
(599,799,o),
(639,801,cs),
(668,802,o),
(691,828,o),
(710,847,c),
(717,844,l),
(696,822,o),
(671,793,o),
(637,793,cs),
(598,793,o),
(578,837,o),
(540,838,cs),
(506,839,o),
(486,813,o),
(468,789,c),
(460,790,l)
);
}
);
width = 728;
}
);
unicode = 213;
},
{
glyphname = OE;
lastChange = "2024-07-24 13:57:39 +0000";
layers = (
{
layerId = m001;
shapes = (
{
closed = 1;
nodes = (
(618,420,l),
(934,420,l),
(907,340,l),
(591,341,l)
);
},
{
closed = 1;
nodes = (
(742,670,l),
(520,30,l),
(441,31,l),
(656,669,l)
);
},
{
closed = 1;
nodes = (
(808,0,l),
(319,0,ls),
(123,7,o),
(44,175,o),
(101,350,cs),
(163,541,o),
(341,694,o),
(545,700,cs),
(1048,700,l),
(1019,620,l),
(698,620,l),
(682,620,l),
(531,620,ls),
(372,614,o),
(236,496,o),
(184,350,cs),
(137,220,o),
(182,87,o),
(334,80,cs),
(483,80,l),
(505,80,l),
(834,79,l)
);
}
);
width = 926;
},
{
layerId = "E79D52FD-16C9-4CD8-B33B-848E03DA3A4F";
shapes = (
{
closed = 1;
nodes = (
(624,445,l),
(996,445,l),
(936,275,l),
(564,275,l)
);
},
{
closed = 1;
nodes = (
(814,670,l),
(594,30,l),
(389,30,l),
(609,670,l)
);
},
{
closed = 1;
nodes = (
(862,0,l),
(325,0,ls),
(131,7,o),
(35,170,o),
(90,350,cs),
(150,544,o),
(335,694,o),
(539,700,cs),
(1102,700,l),
(1040,525,l),
(672,525,l),
(650,510,l),
(546,510,ls),
(439,506,o),
(352,452,o),
(312,350,cs),
(275,255,o),
(312,196,o),
(413,191,cs),
(515,190,l),
(533,175,l),
(917,174,l)
);
}
);
width = 926;
},
{
layerId = "6A4E6D7A-FBCF-4CEF-9028-EBF7BE717EF8";
shapes = (
{
closed = 1;
nodes = (
(567,395,l),
(880,395,l),
(877,385,l),
(563,385,l)
);
},
{
closed = 1;
nodes = (
(679,694,l),
(441,6,l),
(431,6,l),
(669,694,l)
);
},
{
closed = 1;
nodes = (
(766,0,l),
(314,0,ls),
(118,7,o),
(44,177,o),
(102,350,cs),
(166,541,o),
(345,694,o),
(550,700,cs),
(1003,700,l),
(1000,690,l),
(675,690,l),
(659,690,l),
(549,690,ls),
(352,684,o),
(175,533,o),
(112,350,cs),
(56,185,o),
(127,17,o),
(315,10,cs),
(421,10,l),
(444,10,l),
(769,10,l)
);
}
);
width = 894;
}
);
unicode = 338;
},
{
glyphname = P;
lastChange = "2024-07-24 13:57:39 +0000";
layers = (
{
layerId = m001;
shapes = (
{
closed = 1;
nodes = (
(343,700,l),
(101,0,l),
(22,0,l),
(257,699,l)
);
},
{
closed = 1;
nodes = (
(303,700,l),
(433,700,ls),
(552,700,o),
(631,609,o),
(593,489,cs),
(554,364,o),
(428,280,o),
(301,280,cs),
(158,280,l),
(187,360,l),
(317,360,ls),
(400,364,o),
(480,409,o),
(510,490,cs),
(538,567,o),
(493,618,o),
(417,619,cs),
(274,620,l)
);
}
);
width = 515;
},
{
layerId = "E79D52FD-16C9-4CD8-B33B-848E03DA3A4F";
shapes = (
{
closed = 1;
nodes = (
(462,700,l),
(221,0,l),
(8,0,l),
(248,700,l)
);
},
{
closed = 1;
nodes = (
(382,700,l),
(497,700,ls),
(643,696,o),
(733,617,o),
(706,460,cs),
(678.224,298.487,o),
(515,224,o),
(358,220,cs),
(216,220,l),
(278,395,l),
(394,395,ls),
(436,395,o),
(488,417,o),
(504,461,cs),
(518,500,o),
(495,525,o),
(458,526,cs),
(323,526,l)
);
}
);
width = 628;
},
{
layerId = "6A4E6D7A-FBCF-4CEF-9028-EBF7BE717EF8";
shapes = (
{
closed = 1;
nodes = (
(281,700,l),
(40,0,l),
(29,0,l),
(270,700,l)
);
},
{
closed = 1;
nodes = (
(276,700,l),
(386,700,ls),
(502,700,o),
(558,606,o),
(521,497,cs),
(482,380,o),
(371,294,o),
(249,294,cs),
(137,294,l),
(140,304,l),
(251,304,ls),
(368,304,o),
(472,386,o),
(510,497,cs),
(546,601,o),
(495,690,o),
(384,690,cs),
(272,690,l)
);
}
);
width = 451;
}
);
unicode = 80;
},
{
glyphname = Thorn;
lastChange = "2024-07-24 13:57:39 +0000";
layers = (
{
layerId = m001;
shapes = (
{
closed = 1;
nodes = (
(343,700,l),
(101,0,l),
(22,0,l),
(257,699,l)
);
},
{
closed = 1;
nodes = (
(255,560,l),
(385,560,ls),
(504,555,o),
(583,469,o),
(545,349,cs),
(506,224,o),
(380,145,o),
(253,140,cs),
(110,140,l),
(139,220,l),
(269,220,ls),
(352,224,o),
(433,269,o),
(463,350,cs),
(491,427,o),
(445,474,o),
(369,479,c),
(226,480,l)
);
}
);
width = 517;
},
{
layerId = "E79D52FD-16C9-4CD8-B33B-848E03DA3A4F";
shapes = (
{
closed = 1;
nodes = (
(438,700,l),
(198,0,l),
(17,0,l),
(257,700,l)
);
},
{
closed = 1;
nodes = (
(335,590,l),
(450,590,ls),
(594,586,o),
(708,511,o),
(661,354,cs),
(614,197,o),
(469,124,o),
(314,120,cs),
(172,120,l),
(231,285,l),
(347,285,ls),
(399,287,o),
(457,302,o),
(478,356,cs),
(498,408,o),
(460,421,o),
(416,424,cs),
(276,425,l)
);
}
);
width = 611;
},
{
layerId = "6A4E6D7A-FBCF-4CEF-9028-EBF7BE717EF8";
shapes = (
{
closed = 1;
nodes = (
(271,699,l),
(29,0,l),
(20,0,l),
(261,699,l)
);
},
{
closed = 1;
nodes = (
(216,560,l),
(362,560,ls),
(481,555,o),
(556,468,o),
(516,350,cs),
(474,226,o),
(348,145,o),
(220,140,cs),
(72,140,l),
(76,150,l),
(222,150,ls),
(342,156,o),
(465,234,o),
(505,350,cs),
(544,462,o),
(473,544,o),
(360,550,cs),
(212,550,l)
);
}
);
width = 489;
}
);
unicode = 222;
},
{
glyphname = Q;
lastChange = "2024-07-24 13:57:39 +0000";
layers = (
{
layerId = m001;
shapes = (
{
closed = 1;
nodes = (
(145,226,o),
(184,78,o),
(337,76,cs),
(494,74,o),
(635,210,o),
(685,350,cs),
(729,474,o),
(690,622,o),
(537,624,cs),
(380,626,o),
(239,490,o),
(189,350,cs)
);
},
{
closed = 1;
nodes = (
(162,538,o),
(349,711,o),
(554,710,cs),
(753,709,o),
(828,521,o),
(773,350,cs),
(712,162,o),
(525,-11,o),
(320,-10,cs),
(121,-9,o),
(46,179,o),
(101,350,cs)
);
},
{
closed = 1;
nodes = (
(505,300,l),
(685,0,l),
(588,0,l),
(408,300,l)
);
}
);
width = 743;
},
{
layerId = "E79D52FD-16C9-4CD8-B33B-848E03DA3A4F";
shapes = (
{
closed = 1;
nodes = (
(283,267,o),
(300,161,o),
(407,159,cs),
(505,157,o),
(589,234,o),
(624,320,cs),
(657,403,o),
(646,518,o),
(535,521,cs),
(436,523,o),
(349,437,o),
(315,350,cs)
);
},
{
closed = 1;
nodes = (
(154,556,o),
(361,721,o),
(579,720,cs),
(789,719,o),
(890,541,o),
(831,350,cs),
(767,144,o),
(570,-31,o),
(348,-30,cs),
(134,-29,o),
(30,156,o),
(90,350,cs)
);
},
{
closed = 1;
nodes = (
(566,300,l),
(796,-20,l),
(598,-20,l),
(378,300,l)
);
}
);
width = 854;
},
{
layerId = "6A4E6D7A-FBCF-4CEF-9028-EBF7BE717EF8";
shapes = (
{
closed = 1;
nodes = (
(70,194,o),
(117,4,o),
(310,3,cs),
(507,2,o),
(676,174,o),
(736,350,cs),
(789,506,o),
(742,696,o),
(549,697,cs),
(352,698,o),
(183,526,o),
(123,350,cs)
);
},
{
closed = 1;
nodes = (
(173,532,o),
(348,709,o),
(550,708,cs),
(748,707,o),
(801,512,o),
(747,350,cs),
(686,168,o),
(511,-9,o),
(309,-8,cs),
(111,-7,o),
(58,188,o),
(112,350,cs)
);
},
{
closed = 1;
nodes = (
(438,300,l),
(639,0,l),
(624,0,l),
(424,300,l)
);
}
);
width = 725;
}
);
unicode = 81;
},
{
glyphname = R;
lastChange = "2024-07-24 13:57:39 +0000";
layers = (
{
layerId = m001;
shapes = (
{
closed = 1;
nodes = (
(344,345,l),
(461,0,l),
(368,0,l),
(256,345,l)
);
},
{
closed = 1;
nodes = (
(343,700,l),
(101,0,l),
(22,0,l),
(257,700,l)
);
},
{
closed = 1;
nodes = (
(303,700,l),
(433,700,ls),
(552,700,o),
(631,609,o),
(593,489,cs),
(554,364,o),
(428,280,o),
(301,280,cs),
(158,280,l),
(185,355,l),
(315,355,ls),
(399,355,o),
(480,409,o),
(510,490,cs),
(538,566,o),
(496,625,o),
(419,625,cs),
(276,625,l)
);
}
);
width = 526;
},
{
layerId = "E79D52FD-16C9-4CD8-B33B-848E03DA3A4F";
shapes = (
{
closed = 1;
nodes = (
(515,300,l),
(600,0,l),
(367,0,l),
(310,300,l)
);
},
{
closed = 1;
nodes = (
(462,700,l),
(221,0,l),
(8,0,l),
(248,700,l)
);
},
{
closed = 1;
nodes = (
(382,700,l),
(516,700,ls),
(659,700,o),
(760,614,o),
(725,460,cs),
(689.168,302.339,o),
(530,220,o),
(376,220,cs),
(216,220,l),
(275,385,l),
(391,385,ls),
(433,385,o),
(485,407,o),
(501,451,cs),
(515,490,o),
(492,513,o),
(455,514,cs),
(320,514,l)
);
}
);
width = 658;
},
{
layerId = "6A4E6D7A-FBCF-4CEF-9028-EBF7BE717EF8";
shapes = (
{
closed = 1;
nodes = (
(252,317,l),
(353,0,l),
(341,0,l),
(241,317,l)
);
},
{
closed = 1;
nodes = (
(281,699,l),
(40,0,l),
(29,0,l),
(270,699,l)
);
},
{
closed = 1;
nodes = (
(271,700,l),
(377,700,ls),
(490,700,o),
(574,626,o),
(534,507,cs),
(493,384,o),
(371,318,o),
(247,314,cs),
(139,314,l),
(143,324,l),
(248,324,ls),
(366,328,o),
(484,390,o),
(524,507,cs),
(563,621,o),
(483,684,o),
(375,689,cs),
(267,689,l)
);
}
);
width = 440;
}
);
unicode = 82;
},
{
glyphname = Racute;
lastChange = "2024-07-24 13:57:39 +0000";
layers = (
{
layerId = m001;
shapes = (
{
closed = 1;
nodes = (
(344,345,l),
(461,0,l),
(368,0,l),
(256,345,l)
);
},
{
closed = 1;
nodes = (
(343,700,l),
(101,0,l),
(22,0,l),
(257,699,l)
);
},
{
closed = 1;
nodes = (
(303,700,l),
(433,700,ls),
(552,695,o),
(631,609,o),
(593,489,cs),
(554,364,o),
(428,285,o),
(301,280,cs),
(158,280,l),
(185,355,l),
(315,355,l),
(399,360,o),
(480,409,o),
(510,490,cs),
(538,566,o),
(496,619,o),
(419,624,c),
(276,625,l)
);
},
{
closed = 1;
nodes = (
(424,772,l),
(386,803,l),
(580,959,l),
(642,915,l)
);
}
);
width = 526;
},
{
layerId = "E79D52FD-16C9-4CD8-B33B-848E03DA3A4F";
shapes = (
{
closed = 1;
nodes = (
(515,300,l),
(600,0,l),
(367,0,l),
(310,300,l)
);
},
{
closed = 1;
nodes = (
(462,700,l),
(221,0,l),
(8,0,l),
(248,700,l)
);
},
{
closed = 1;
nodes = (
(382,700,l),
(516,700,ls),
(659,696,o),
(770,614,o),
(725,460,cs),
(679,305,o),
(530,224,o),
(376,220,cs),
(216,220,l),
(275,385,l),
(391,385,l),
(433,388,o),
(485,407,o),
(501,451,cs),
(515,490,o),
(492,510,o),
(455,514,c),
(320,516,l)
);
},
{
closed = 1;
nodes = (
(531,781,l),
(431,837,l),
(620,988,l),
(744,923,l)
);
}
);
width = 658;
},
{
layerId = "6A4E6D7A-FBCF-4CEF-9028-EBF7BE717EF8";
shapes = (
{
closed = 1;
nodes = (
(252,317,l),
(353,0,l),
(341,0,l),
(241,317,l)
);
},
{
closed = 1;
nodes = (
(281,699,l),
(40,0,l),
(29,0,l),
(270,699,l)
);
},
{
closed = 1;
nodes = (
(271,700,l),
(377,700,ls),
(490,696,o),
(574,626,o),
(534,507,cs),
(493,384,o),
(371,318,o),
(247,314,cs),
(139,314,l),
(143,324,l),
(248,324,ls),
(366,328,o),
(484,390,o),
(524,507,cs),
(563,621,o),
(483,684,o),
(375,689,cs),
(267,689,l)
);
},
{
closed = 1;
nodes = (
(386,770,l),
(382,775,l),
(599,931,l),
(604,923,l)
);
}
);
width = 440;
}
);
unicode = 340;
},
{
glyphname = Rcaron;
lastChange = "2024-07-24 13:57:39 +0000";
layers = (
{
layerId = m001;
shapes = (
{
closed = 1;
nodes = (
(344,345,l),
(461,0,l),
(368,0,l),
(256,345,l)
);
},
{
closed = 1;
nodes = (
(343,700,l),
(101,0,l),
(22,0,l),
(257,699,l)
);
},
{
closed = 1;
nodes = (
(303,700,l),
(433,700,ls),
(552,695,o),
(631,609,o),
(593,489,cs),
(554,364,o),
(428,285,o),
(301,280,cs),
(158,280,l),
(185,355,l),
(315,355,l),
(399,360,o),
(480,409,o),
(510,490,cs),
(538,566,o),
(496,619,o),
(419,624,c),
(276,625,l)
);
},
{
closed = 1;
nodes = (
(610,949,l),
(648,907,l),
(452,770,l),
(344,912,l),
(402,949,l),
(472,856,l)
);
}
);
width = 526;
},
{
layerId = "E79D52FD-16C9-4CD8-B33B-848E03DA3A4F";
shapes = (
{
closed = 1;
nodes = (
(515,300,l),
(600,0,l),
(367,0,l),
(310,300,l)
);
},
{
closed = 1;
nodes = (
(462,700,l),
(221,0,l),
(8,0,l),
(248,700,l)
);
},
{
closed = 1;
nodes = (
(382,700,l),
(516,700,ls),
(659,696,o),
(770,614,o),
(725,460,cs),
(679,305,o),
(530,224,o),
(376,220,cs),
(216,220,l),
(275,385,l),
(391,385,l),
(433,388,o),
(485,407,o),
(501,451,cs),
(515,490,o),
(492,510,o),
(455,514,c),
(320,516,l)
);
},
{
closed = 1;
nodes = (
(684,1010,l),
(794,913,l),
(549,780,l),
(380,927,l),
(535,1012,l),
(583,933,l)
);
}
);
width = 658;
},
{
layerId = "6A4E6D7A-FBCF-4CEF-9028-EBF7BE717EF8";
shapes = (
{
closed = 1;
nodes = (
(252,317,l),
(353,0,l),
(341,0,l),
(241,317,l)
);
},
{
closed = 1;
nodes = (
(281,699,l),
(40,0,l),
(29,0,l),
(270,699,l)
);
},
{
closed = 1;
nodes = (
(271,700,l),
(377,700,ls),
(490,696,o),
(574,626,o),
(534,507,cs),
(493,384,o),
(371,318,o),
(247,314,cs),
(139,314,l),
(143,324,l),
(248,324,ls),
(366,328,o),
(484,390,o),
(524,507,cs),
(563,621,o),
(483,684,o),
(375,689,cs),
(267,689,l)
);
},
{
closed = 1;
nodes = (
(616,914,l),
(622,906,l),
(423,769,l),
(319,908,l),
(328,916,l),
(425,781,l)
);
}
);
width = 440;
}
);
unicode = 344;
},
{
glyphname = Rcommaaccent;
lastChange = "2024-07-24 14:04:50 +0000";
layers = (
{
layerId = m001;
shapes = (
{
closed = 1;
nodes = (
(344,345,l),
(461,0,l),
(368,0,l),
(256,345,l)
);
},
{
closed = 1;
nodes = (
(343,700,l),
(101,0,l),
(22,0,l),
(257,699,l)
);
},
{
closed = 1;
nodes = (
(303,700,l),
(433,700,ls),
(552,695,o),
(631,609,o),
(593,489,cs),
(554,364,o),
(428,285,o),
(301,280,cs),
(158,280,l),
(185,355,l),
(315,355,l),
(399,360,o),
(480,409,o),
(510,490,cs),
(538,566,o),
(496,619,o),
(419,624,c),
(276,625,l)
);
},
{
closed = 1;
nodes = (
(294,-94,l),
(105,-338,l),
(52,-317,l),
(221,-62,l)
);
}
);
width = 526;
},
{
layerId = "E79D52FD-16C9-4CD8-B33B-848E03DA3A4F";
shapes = (
{
closed = 1;
nodes = (
(515,300,l),
(600,0,l),
(367,0,l),
(310,300,l)
);
},
{
closed = 1;
nodes = (
(462,700,l),
(221,0,l),
(8,0,l),
(248,700,l)
);
},
{
closed = 1;
nodes = (
(382,700,l),
(516,700,ls),
(659,696,o),
(770,614,o),
(725,460,cs),
(679,305,o),
(530,224,o),
(376,220,cs),
(216,220,l),
(275,385,l),
(391,385,l),
(433,388,o),
(485,407,o),
(501,451,cs),
(515,490,o),
(492,510,o),
(455,514,c),
(320,516,l)
);
},
{
closed = 1;
nodes = (
(415,-98,l),
(205,-342,l),
(60,-315,l),
(231,-62,l)
);
}
);
width = 658;
},
{
layerId = "6A4E6D7A-FBCF-4CEF-9028-EBF7BE717EF8";
shapes = (
{
closed = 1;
nodes = (
(252,317,l),
(353,0,l),
(341,0,l),
(241,317,l)
);
},
{
closed = 1;
nodes = (
(281,699,l),
(40,0,l),
(29,0,l),
(270,699,l)
);
},
{
closed = 1;
nodes = (
(271,700,l),
(377,700,ls),
(490,696,o),
(574,626,o),
(534,507,cs),
(493,384,o),
(371,318,o),
(247,314,cs),
(139,314,l),
(143,324,l),
(248,324,ls),
(366,328,o),
(484,390,o),
(524,507,cs),
(563,621,o),
(483,684,o),
(375,689,cs),
(267,689,l)
);
},
{
closed = 1;
nodes = (
(180,-67,l),
(-12,-313,l),
(-18,-311,l),
(169,-62,l)
);
}
);
width = 440;
}
);
unicode = 342;
},
{
glyphname = Rinvertedbreve;
lastChange = "2024-07-24 14:04:50 +0000";
layers = (
{
layerId = m001;
shapes = (
{
closed = 1;
nodes = (
(344,345,l),
(461,0,l),
(368,0,l),
(256,345,l)
);
},
{
closed = 1;
nodes = (
(343,700,l),
(101,0,l),
(22,0,l),
(257,699,l)
);
},
{
closed = 1;
nodes = (
(303,700,l),
(433,700,ls),
(552,695,o),
(631,609,o),
(593,489,cs),
(554,364,o),
(428,285,o),
(301,280,cs),
(158,280,l),
(185,355,l),
(315,355,l),
(399,360,o),
(480,409,o),
(510,490,cs),
(538,566,o),
(496,619,o),
(419,624,c),
(276,625,l)
);
},
{
closed = 1;
nodes = (
(391,771,l),
(417,810,o),
(448,844,o),
(499,844,cs),
(548,844,o),
(560,812,o),
(558,769,c),
(613,770,l),
(630,845,o),
(607,907,o),
(521,909,cs),
(429,911,o),
(360,845,o),
(317,770,c)
);
}
);
width = 526;
},
{
layerId = "E79D52FD-16C9-4CD8-B33B-848E03DA3A4F";
shapes = (
{
closed = 1;
nodes = (
(515,300,l),
(600,0,l),
(367,0,l),
(310,300,l)
);
},
{
closed = 1;
nodes = (
(462,700,l),
(221,0,l),
(8,0,l),
(248,700,l)
);
},
{
closed = 1;
nodes = (
(382,700,l),
(516,700,ls),
(659,696,o),
(770,614,o),
(725,460,cs),
(679,305,o),
(530,224,o),
(376,220,cs),
(216,220,l),
(275,385,l),
(391,385,l),
(433,388,o),
(485,407,o),
(501,451,cs),
(515,490,o),
(492,510,o),
(455,514,c),
(320,516,l)
);
},
{
closed = 1;
nodes = (
(489,780,l),
(504,799,o),
(526,832,o),
(555,829,cs),
(586,826,o),
(587,804,o),
(591,779,c),
(701,780,l),
(723,860,o),
(706,927,o),
(611,929,cs),
(509,931,o),
(436,860,o),
(388,778,c)
);
}
);
width = 658;
},
{
layerId = "6A4E6D7A-FBCF-4CEF-9028-EBF7BE717EF8";
shapes = (
{
closed = 1;
nodes = (
(252,317,l),
(353,0,l),
(341,0,l),
(241,317,l)
);
},
{
closed = 1;
nodes = (
(281,699,l),
(40,0,l),
(29,0,l),
(270,699,l)
);
},
{
closed = 1;
nodes = (
(271,700,l),
(377,700,ls),
(490,696,o),
(574,626,o),
(534,507,cs),
(493,384,o),
(371,318,o),
(247,314,cs),
(139,314,l),
(143,324,l),
(248,324,ls),
(366,328,o),
(484,390,o),
(524,507,cs),
(563,621,o),
(483,684,o),
(375,689,cs),
(267,689,l)
);
},
{
closed = 1;
nodes = (
(309,769,l),
(348,838,o),
(410,897,o),
(494,897,cs),
(574,897,o),
(600,839,o),
(589,768,c),
(598,768,l),
(613,844,o),
(586,906,o),
(500,907,cs),
(409,908,o),
(341,844,o),
(300,769,c)
);
}
);
width = 440;
}
);
unicode = 530;
},
{
glyphname = S;
lastChange = "2024-07-24 13:57:39 +0000";
layers = (
{
layerId = m001;
shapes = (
{
closed = 1;
nodes = (
(133,127,o),
(167,70,o),
(251,70,cs),
(356,70,o),
(417,156,o),
(417,220,cs),
(417,284,o),
(371.819,304.953,o),
(310,341,cs),
(257.679,371.509,o),
(185,422,o),
(185,509,cs),
(185,613,o),
(269,710,o),
(408,710,cs),
(521,710,o),
(582,641,o),
(607,558,c),
(534,523,l),
(517,575,o),
(485,630,o),
(393,630,cs),
(317,630,o),
(271,585,o),
(271,520,cs),
(271,461,o),
(324.453,421.345,o),
(376,395,cs),
(438.013,363.306,o),
(503,327,o),
(503,230,cs),
(503,108,o),
(389,-10,o),
(248,-10,cs),
(134,-10,o),
(63,73,o),
(38,166,c),
(106,212,l)
);
}
);
width = 515;
},
{
layerId = "E79D52FD-16C9-4CD8-B33B-848E03DA3A4F";
shapes = (
{
closed = 1;
nodes = (
(216,212,o),
(244,158,o),
(310,159,cs),
(339,159,o),
(380,171,o),
(393,201,cs),
(413,248,o),
(335,266,o),
(306,280,cs),
(215,324,o),
(156,408,o),
(186,511,cs),
(226,648,o),
(381,721,o),
(515,720,cs),
(623,719,o),
(697,661,o),
(731,561,c),
(554,475,l),
(537,509,o),
(519,538,o),
(476,538,cs),
(452,538,o),
(411,526,o),
(399,502,cs),
(377,456,o),
(486,434,o),
(512,423,cs),
(605,383,o),
(645,296,o),
(616,199,cs),
(572,53,o),
(420,-31,o),
(273,-30,cs),
(151,-29,o),
(55,43,o),
(25,161,c),
(195,266,l)
);
}
);
width = 632;
},
{
layerId = "6A4E6D7A-FBCF-4CEF-9028-EBF7BE717EF8";
shapes = (
{
closed = 1;
nodes = (
(59,110,o),
(77,6,o),
(185,4,cs),
(289,2,o),
(381,78,o),
(412,175,cs),
(439,261,o),
(393,320,o),
(320,359,cs),
(244,399,o),
(177,455,o),
(208,550,cs),
(237,637,o),
(332,708,o),
(424,707,cs),
(517,706,o),
(546,631,o),
(546,550,c),
(536,548,l),
(536,623,o),
(510,695,o),
(423,696,cs),
(337,697,o),
(247,631,o),
(219,550,cs),
(187,459,o),
(255,406,o),
(327,368,cs),
(404,328,o),
(451,265,o),
(423,175,cs),
(391,73,o),
(294,-9,o),
(184,-7,cs),
(71,-5,o),
(49,100,o),
(50,193,c),
(60,197,l)
);
}
);
width = 459;
}
);
unicode = 83;
},
{
glyphname = Sacute;
lastChange = "2024-07-24 13:57:39 +0000";
layers = (
{
layerId = m001;
shapes = (
{
closed = 1;
nodes = (
(134,155,o),
(153,72,o),
(241,71,cs),
(310,70,o),
(374,119,o),
(398,183,cs),
(428,264,o),
(366,306,o),
(302,338,cs),
(223,378,o),
(168,444,o),
(197,536,cs),
(229,638,o),
(339,710,o),
(444,709,cs),
(537,708,o),
(588,643,o),
(603,558,c),
(524,514,l),
(513,569,o),
(495,626,o),
(429,628,cs),
(368,629,o),
(301,587,o),
(281,529,cs),
(255,456,o),
(330,423,o),
(383,396,cs),
(466,354,o),
(515,284,o),
(486,189,cs),
(452,75,o),
(341,-10,o),
(221,-9,cs),
(107,-8,o),
(58,84,o),
(45,185,c),
(126,226,l)
);
},
{
closed = 1;
nodes = (
(474,772,l),
(436,803,l),
(630,959,l),
(692,915,l)
);
}
);
width = 515;
},
{
layerId = "E79D52FD-16C9-4CD8-B33B-848E03DA3A4F";
shapes = (
{
closed = 1;
nodes = (
(216,212,o),
(244,158,o),
(310,159,cs),
(339,159,o),
(380,171,o),
(393,201,cs),
(413,248,o),
(335,266,o),
(306,280,cs),
(214,324,o),
(157,408,o),
(187,511,cs),
(227,646,o),
(372,720,o),
(506,720,cs),
(616,720,o),
(704,672,o),
(731,561,c),
(554,475,l),
(537,510,o),
(519,538,o),
(476,538,cs),
(452,538,o),
(411,526,o),
(399,502,cs),
(377,456,o),
(486,434,o),
(512,423,cs),
(605,383,o),
(645,296,o),
(616,199,cs),
(571,47,o),
(415,-31,o),
(264,-30,cs),
(142,-29,o),
(50,41,o),
(25,161,c),
(195,266,l)
);
},
{
closed = 1;
nodes = (
(549,781,l),
(449,837,l),
(638,988,l),
(762,923,l)
);
}
);
width = 632;
},
{
layerId = "6A4E6D7A-FBCF-4CEF-9028-EBF7BE717EF8";
shapes = (
{
closed = 1;
nodes = (
(59,110,o),
(77,6,o),
(185,4,cs),
(289,2,o),
(381,78,o),
(412,175,cs),
(439,261,o),
(393,320,o),
(320,359,cs),
(244,399,o),
(177,455,o),
(208,550,cs),
(237,637,o),
(332,708,o),
(424,707,cs),
(517,706,o),
(546,631,o),
(546,550,c),
(536,548,l),
(536,623,o),
(510,695,o),
(423,696,cs),
(337,697,o),
(247,631,o),
(219,550,cs),
(187,459,o),
(255,406,o),
(327,368,cs),
(404,328,o),
(451,265,o),
(423,175,cs),
(391,73,o),
(294,-9,o),
(184,-7,cs),
(71,-5,o),
(49,100,o),
(50,193,c),
(60,197,l)
);
},
{
closed = 1;
nodes = (
(429,770,l),
(425,775,l),
(641,931,l),
(647,923,l)
);
}
);
width = 459;
}
);
unicode = 346;
},
{
glyphname = Scaron;
lastChange = "2024-07-24 13:57:39 +0000";
layers = (
{
layerId = m001;
shapes = (
{
closed = 1;
nodes = (
(134,155,o),
(153,72,o),
(241,71,cs),
(310,70,o),
(374,119,o),
(398,183,cs),
(428,264,o),
(366,306,o),
(302,338,cs),
(223,378,o),
(168,444,o),
(197,536,cs),
(229,638,o),
(339,710,o),
(444,709,cs),
(537,708,o),
(588,643,o),
(603,558,c),
(524,514,l),
(513,569,o),
(495,626,o),
(429,628,cs),
(368,629,o),
(301,587,o),
(281,529,cs),
(255,456,o),
(330,423,o),
(383,396,cs),
(466,354,o),
(514,284,o),
(485,189,cs),
(451,75,o),
(341,-10,o),
(221,-9,cs),
(107,-8,o),
(58,84,o),
(45,185,c),
(126,226,l)
);
},
{
closed = 1;
nodes = (
(631,949,l),
(670,907,l),
(474,770,l),
(366,912,l),
(423,949,l),
(494,856,l)
);
}
);
width = 515;
},
{
layerId = "E79D52FD-16C9-4CD8-B33B-848E03DA3A4F";
shapes = (
{
closed = 1;
nodes = (
(216,212,o),
(244,158,o),
(310,159,cs),
(339,159,o),
(380,171,o),
(393,201,cs),
(413,248,o),
(335,266,o),
(306,280,cs),
(214,324,o),
(157,408,o),
(187,511,cs),
(227,646,o),
(372,720,o),
(506,720,cs),
(616,720,o),
(704,672,o),
(731,561,c),
(554,475,l),
(537,510,o),
(519,538,o),
(476,538,cs),
(452,538,o),
(411,526,o),
(399,502,cs),
(377,456,o),
(486,434,o),
(512,423,cs),
(605,383,o),
(645,296,o),
(616,199,cs),
(571,47,o),
(415,-31,o),
(264,-30,cs),
(142,-29,o),
(50,41,o),
(25,161,c),
(195,266,l)
);
},
{
closed = 1;
nodes = (
(683,1010,l),
(793,913,l),
(548,780,l),
(380,927,l),
(534,1012,l),
(582,933,l)
);
}
);
width = 632;
},
{
layerId = "6A4E6D7A-FBCF-4CEF-9028-EBF7BE717EF8";
shapes = (
{
closed = 1;
nodes = (
(59,110,o),
(77,6,o),
(185,4,cs),
(289,2,o),
(381,78,o),
(412,175,cs),
(439,261,o),
(393,320,o),
(320,359,cs),
(244,399,o),
(177,455,o),
(208,550,cs),
(237,637,o),
(332,708,o),
(424,707,cs),
(517,706,o),
(546,631,o),
(546,550,c),
(536,548,l),
(536,623,o),
(510,695,o),
(423,696,cs),
(337,697,o),
(247,631,o),
(219,550,cs),
(187,459,o),
(255,406,o),
(327,368,cs),
(404,328,o),
(451,265,o),
(423,175,cs),
(391,73,o),
(294,-9,o),
(184,-7,cs),
(71,-5,o),
(49,100,o),
(50,193,c),
(60,197,l)
);
},
{
closed = 1;
nodes = (
(643,924,l),
(649,916,l),
(450,779,l),
(346,918,l),
(355,926,l),
(452,791,l)
);
}
);
width = 459;
}
);
unicode = 352;
},
{
glyphname = Scedilla;
lastChange = "2024-07-24 13:57:39 +0000";
layers = (
{
layerId = m001;
shapes = (
{
closed = 1;
nodes = (
(134,155,o),
(153,72,o),
(241,71,cs),
(310,70,o),
(374,119,o),
(398,183,cs),
(428,264,o),
(366,307,o),
(302,338,cs),
(221,377,o),
(166,435,o),
(196,531,cs),
(229,635,o),
(335,709,o),
(444,709,cs),
(539,709,o),
(585,643,o),
(603,558,c),
(525,515,l),
(512,572,o),
(486,627,o),
(419,628,cs),
(360,629,o),
(300,585,o),
(281,529,cs),
(256,455,o),
(330,423,o),
(383,396,cs),
(466,354,o),
(515,284,o),
(486,189,cs),
(452,77,o),
(339,-9,o),
(221,-9,cs),
(107,-9,o),
(58,84,o),
(45,185,c),
(126,226,l)
);
},
{
closed = 1;
nodes = (
(306,57,l),
(206,-53,l),
(208,-53,o),
(209,-53,o),
(211,-53,cs),
(249,-60,o),
(269,-91,o),
(259,-129,cs),
(245,-181,o),
(182,-220,o),
(130,-220,cs),
(96,-220,o),
(76,-202,o),
(53,-180,c),
(96,-144,l),
(109,-155,o),
(122,-167,o),
(141,-167,cs),
(162,-167,o),
(199,-148,o),
(205,-126,cs),
(211,-105,o),
(192,-92,o),
(174,-91,cs),
(153,-89,o),
(128,-100,o),
(109,-107,c),
(245,57,l)
);
}
);
width = 515;
},
{
layerId = "E79D52FD-16C9-4CD8-B33B-848E03DA3A4F";
shapes = (
{
closed = 1;
nodes = (
(216,212,o),
(244,158,o),
(310,159,cs),
(339,159,o),
(380,171,o),
(393,201,cs),
(413,248,o),
(335,266,o),
(306,280,cs),
(214,324,o),
(157,408,o),
(187,511,cs),
(227,646,o),
(372,720,o),
(506,720,cs),
(616,720,o),
(704,672,o),
(731,561,c),
(554,475,l),
(537,510,o),
(519,538,o),
(476,538,cs),
(452,538,o),
(411,526,o),
(399,502,cs),
(377,456,o),
(486,434,o),
(512,423,cs),
(605,383,o),
(645,296,o),
(616,199,cs),
(571,47,o),
(415,-31,o),
(264,-30,cs),
(142,-29,o),
(50,41,o),
(25,161,c),
(195,266,l)
);
},
{
closed = 1;
nodes = (
(376,55,l),
(226,-73,l),
(240,-70,o),
(256,-66,o),
(270,-67,cs),
(329,-71,o),
(357,-126,o),
(341,-180,cs),
(320,-252,o),
(242,-291,o),
(172,-295,cs),
(113,-298,o),
(59,-279,o),
(7,-252,c),
(78,-172,l),
(102,-185,o),
(128,-198,o),
(157,-197,cs),
(175,-196,o),
(226,-183,o),
(229,-160,cs),
(232,-139,o),
(196,-135,o),
(184,-134,cs),
(150,-132,o),
(115,-140,o),
(81,-146,c),
(227,61,l)
);
}
);
width = 632;
},
{
layerId = "6A4E6D7A-FBCF-4CEF-9028-EBF7BE717EF8";
shapes = (
{
closed = 1;
nodes = (
(59,110,o),
(77,6,o),
(185,4,cs),
(289,2,o),
(381,78,o),
(412,175,cs),
(439,261,o),
(393,320,o),
(320,359,cs),
(244,399,o),
(177,455,o),
(208,550,cs),
(237,637,o),
(332,708,o),
(424,707,cs),
(517,706,o),
(546,631,o),
(546,550,c),
(536,548,l),
(536,623,o),
(510,695,o),
(423,696,cs),
(337,697,o),
(247,631,o),
(219,550,cs),
(187,459,o),
(255,406,o),
(327,368,cs),
(404,328,o),
(451,265,o),
(423,175,cs),
(391,73,o),
(294,-9,o),
(184,-7,cs),
(71,-5,o),
(49,100,o),
(50,193,c),
(60,197,l)
);
},
{
closed = 1;
nodes = (
(192,-2,l),
(111,-76,l),
(133,-66,o),
(161,-51,o),
(186,-54,cs),
(225,-58,o),
(241,-92,o),
(231,-128,cs),
(217,-181,o),
(151,-221,o),
(98,-220,cs),
(66,-220,o),
(46,-204,o),
(25,-183,c),
(33,-177,l),
(52,-195,o),
(71,-210,o),
(99,-210,cs),
(147,-210,o),
(207,-175,o),
(221,-127,cs),
(230,-97,o),
(217,-68,o),
(184,-64,cs),
(155,-60,o),
(123,-77,o),
(97,-88,c),
(180,-2,l)
);
}
);
width = 459;
}
);
unicode = 350;
},
{
glyphname = Scircumflex;
lastChange = "2024-07-24 13:57:39 +0000";
layers = (
{
layerId = m001;
shapes = (
{
closed = 1;
nodes = (
(134,155,o),
(153,72,o),
(241,71,cs),
(310,70,o),
(374,119,o),
(398,183,cs),
(428,264,o),
(366,306,o),
(302,338,cs),
(223,378,o),
(168,444,o),
(197,536,cs),
(229,638,o),
(339,710,o),
(444,709,cs),
(537,708,o),
(588,643,o),
(603,558,c),
(524,514,l),
(513,569,o),
(495,626,o),
(429,628,cs),
(368,629,o),
(301,587,o),
(281,529,cs),
(255,456,o),
(330,423,o),
(383,396,cs),
(466,354,o),
(514,284,o),
(485,189,cs),
(451,75,o),
(341,-10,o),
(221,-9,cs),
(107,-8,o),
(58,84,o),
(45,185,c),
(126,226,l)
);
},
{
closed = 1;
nodes = (
(370,771,l),
(332,813,l),
(528,950,l),
(636,808,l),
(579,771,l),
(508,864,l)
);
}
);
width = 515;
},
{
layerId = "E79D52FD-16C9-4CD8-B33B-848E03DA3A4F";
shapes = (
{
closed = 1;
nodes = (
(216,212,o),
(244,158,o),
(310,159,cs),
(339,159,o),
(380,171,o),
(393,201,cs),
(413,248,o),
(335,266,o),
(306,280,cs),
(214,324,o),
(157,408,o),
(187,511,cs),
(227,646,o),
(372,720,o),
(506,720,cs),
(616,720,o),
(704,672,o),
(731,561,c),
(554,475,l),
(537,510,o),
(519,538,o),
(476,538,cs),
(452,538,o),
(411,526,o),
(399,502,cs),
(377,456,o),
(486,434,o),
(512,423,cs),
(605,383,o),
(645,296,o),
(616,199,cs),
(571,47,o),
(415,-31,o),
(264,-30,cs),
(142,-29,o),
(50,41,o),
(25,161,c),
(195,266,l)
);
},
{
closed = 1;
nodes = (
(472,780,l),
(362,877,l),
(607,1010,l),
(776,863,l),
(622,778,l),
(574,857,l)
);
}
);
width = 632;
},
{
layerId = "6A4E6D7A-FBCF-4CEF-9028-EBF7BE717EF8";
shapes = (
{
closed = 1;
nodes = (
(59,110,o),
(77,6,o),
(185,4,cs),
(289,2,o),
(381,78,o),
(412,175,cs),
(439,261,o),
(393,320,o),
(320,359,cs),
(244,399,o),
(177,455,o),
(208,550,cs),
(237,637,o),
(332,708,o),
(424,707,cs),
(517,706,o),
(546,631,o),
(546,550,c),
(536,548,l),
(536,623,o),
(510,695,o),
(423,696,cs),
(337,697,o),
(247,631,o),
(219,550,cs),
(187,459,o),
(255,406,o),
(327,368,cs),
(404,328,o),
(451,265,o),
(423,175,cs),
(391,73,o),
(294,-9,o),
(184,-7,cs),
(71,-5,o),
(49,100,o),
(50,193,c),
(60,197,l)
);
},
{
closed = 1;
nodes = (
(302,770,l),
(297,777,l),
(496,914,l),
(600,775,l),
(591,768,l),
(493,902,l)
);
}
);
width = 459;
}
);
unicode = 348;
},
{
glyphname = Scommaaccent;
lastChange = "2024-07-24 14:04:50 +0000";
layers = (
{
layerId = m001;
shapes = (
{
closed = 1;
nodes = (
(134,155,o),
(153,72,o),
(241,71,cs),
(310,70,o),
(374,119,o),
(398,183,cs),
(428,264,o),
(366,306,o),
(302,338,cs),
(223,378,o),
(168,444,o),
(197,536,cs),
(229,638,o),
(339,710,o),
(444,709,cs),
(537,708,o),
(588,643,o),
(603,558,c),
(524,514,l),
(513,569,o),
(495,626,o),
(429,628,cs),
(368,629,o),
(301,587,o),
(281,529,cs),
(255,456,o),
(330,423,o),
(383,396,cs),
(466,354,o),
(515,284,o),
(486,189,cs),
(452,75,o),
(341,-10,o),
(221,-9,cs),
(107,-8,o),
(58,84,o),
(45,185,c),
(126,226,l)
);
},
{
closed = 1;
nodes = (
(267,-104,l),
(78,-348,l),
(25,-327,l),
(195,-72,l)
);
}
);
width = 515;
},
{
layerId = "E79D52FD-16C9-4CD8-B33B-848E03DA3A4F";
shapes = (
{
closed = 1;
nodes = (
(216,212,o),
(244,158,o),
(310,159,cs),
(339,159,o),
(380,171,o),
(393,201,cs),
(413,248,o),
(335,266,o),
(306,280,cs),
(214,324,o),
(157,408,o),
(187,511,cs),
(227,646,o),
(372,720,o),
(506,720,cs),
(616,720,o),
(704,672,o),
(731,561,c),
(554,475,l),
(537,510,o),
(519,538,o),
(476,538,cs),
(452,538,o),
(411,526,o),
(399,502,cs),
(377,456,o),
(486,434,o),
(512,423,cs),
(605,383,o),
(645,296,o),
(616,199,cs),
(571,47,o),
(415,-31,o),
(264,-30,cs),
(142,-29,o),
(50,41,o),
(25,161,c),
(195,266,l)
);
},
{
closed = 1;
nodes = (
(329,-108,l),
(117,-352,l),
(-28,-325,l),
(143,-72,l)
);
}
);
width = 632;
},
{
layerId = "6A4E6D7A-FBCF-4CEF-9028-EBF7BE717EF8";
shapes = (
{
closed = 1;
nodes = (
(59,110,o),
(77,6,o),
(185,4,cs),
(289,2,o),
(381,78,o),
(412,175,cs),
(439,261,o),
(393,320,o),
(320,359,cs),
(244,399,o),
(177,455,o),
(208,550,cs),
(237,637,o),
(332,708,o),
(424,707,cs),
(517,706,o),
(546,631,o),
(546,550,c),
(536,548,l),
(536,623,o),
(510,695,o),
(423,696,cs),
(337,697,o),
(247,631,o),
(219,550,cs),
(187,459,o),
(255,406,o),
(327,368,cs),
(404,328,o),
(451,265,o),
(423,175,cs),
(391,73,o),
(294,-9,o),
(184,-7,cs),
(71,-5,o),
(49,100,o),
(50,193,c),
(60,197,l)
);
},
{
closed = 1;
nodes = (
(218,-75,l),
(25,-321,l),
(19,-319,l),
(208,-70,l)
);
}
);
width = 459;
}
);
unicode = 536;
},
{
glyphname = Germandbls;
lastChange = "2024-07-24 14:04:50 +0000";
layers = (
{
layerId = m001;
shapes = (
{
closed = 1;
nodes = (
(572,-12,o),
(678,68,o),
(678,182,cs),
(678,333,o),
(546,307,o),
(546,363,cs),
(546,409,o),
(752,416,o),
(752,572,cs),
(752,668,o),
(658,709,o),
(536,709,cs),
(368,709,o),
(216.763,589.803,o),
(150,389,cs),
(20,-2,l),
(106,-2,l),
(234,382,ls),
(285.6,536.8,o),
(408,632,o),
(543,632,cs),
(627,632,o),
(662,596,o),
(662,554,cs),
(662,461,o),
(448,466,o),
(448,350,cs),
(448,256,o),
(583,272,o),
(583,176,cs),
(583,102,o),
(509,74,o),
(428,74,cs),
(358,74,o),
(316,95,o),
(270,126,c),
(230,54,l),
(279,15,o),
(336,-12,o),
(422,-12,cs)
);
}
);
width = 716;
},
{
layerId = "E79D52FD-16C9-4CD8-B33B-848E03DA3A4F";
shapes = (
{
closed = 1;
nodes = (
(734,-12,o),
(820,43,o),
(820,129,cs),
(820,241,o),
(779,255,o),
(779,336,cs),
(779,416,o),
(894,472,o),
(894,556,cs),
(894,638,o),
(799,720,o),
(615,720,cs),
(321,720,o),
(204.272,541.603,o),
(140,352,cs),
(20,-2,l),
(248,-2,l),
(368,330,ls),
(405.599,434.024,o),
(461,525,o),
(567,525,cs),
(612,525,o),
(653,514,o),
(653,482,cs),
(653,442,o),
(558,404,o),
(558,346,cs),
(558,265,o),
(588,269,o),
(588,200,cs),
(588,174,o),
(566,162,o),
(530,162,cs),
(499,162,o),
(451,175,o),
(388,198,c),
(350,22,l),
(427,1,o),
(548,-12,o),
(632,-12,cs)
);
}
);
width = 874;
},
{
layerId = "6A4E6D7A-FBCF-4CEF-9028-EBF7BE717EF8";
shapes = (
{
closed = 1;
nodes = (
(468,-10,o),
(574,62,o),
(574,196,cs),
(574,354,o),
(495,340,o),
(495,396,cs),
(495,472,o),
(668,431,o),
(668,583,cs),
(668,643,o),
(621,708,o),
(509,708,cs),
(366,708,o),
(224.306,614.271,o),
(171,454,cs),
(20,0,l),
(32,0,l),
(183,448,ls),
(234.454,600.657,o),
(364,698,o),
(509,698,cs),
(621,698,o),
(656,633,o),
(656,583,cs),
(656,437,o),
(483,482,o),
(483,396,cs),
(483,328,o),
(562,350,o),
(562,196,cs),
(562,73,o),
(468,0,o),
(342,0,cs),
(282,0,o),
(244,16,o),
(186,62,c),
(178,55,l),
(228,15,o),
(266,-10,o),
(342,-10,cs)
);
}
);
width = 666;
}
);
unicode = 7838;
},
{
glyphname = T;
lastChange = "2024-07-24 13:57:39 +0000";
layers = (
{
layerId = m001;
shapes = (
{
closed = 1;
nodes = (
(193,700,l),
(615,700,l),
(587,620,l),
(418,620,l),
(205,0,l),
(122,0,l),
(335,620,l),
(164,620,l)
);
}
);
width = 437;
},
{
layerId = "E79D52FD-16C9-4CD8-B33B-848E03DA3A4F";
shapes = (
{
closed = 1;
nodes = (
(182,700,l),
(772,700,l),
(704,505,l),
(517,505,l),
(344,0,l),
(130,0,l),
(303,505,l),
(114,505,l)
);
}
);
width = 583;
},
{
layerId = "6A4E6D7A-FBCF-4CEF-9028-EBF7BE717EF8";
shapes = (
{
closed = 1;
nodes = (
(203,700,l),
(572,700,l),
(568,689,l),
(389,689,l),
(153,0,l),
(142,0,l),
(378,689,l),
(200,689,l)
);
}
);
width = 405;
}
);
unicode = 84;
},
{
glyphname = Tcaron;
lastChange = "2024-07-24 13:57:39 +0000";
layers = (
{
layerId = m001;
shapes = (
{
closed = 1;
nodes = (
(193,700,l),
(615,700,l),
(587,620,l),
(418,620,l),
(205,0,l),
(122,0,l),
(335,620,l),
(164,620,l)
);
},
{
closed = 1;
nodes = (
(589,949,l),
(627,907,l),
(431,770,l),
(323,912,l),
(380,949,l),
(451,856,l)
);
}
);
width = 437;
},
{
layerId = "E79D52FD-16C9-4CD8-B33B-848E03DA3A4F";
shapes = (
{
closed = 1;
nodes = (
(182,700,l),
(772,700,l),
(704,505,l),
(517,505,l),
(344,0,l),
(130,0,l),
(303,505,l),
(114,505,l)
);
},
{
closed = 1;
nodes = (
(648,1010,l),
(758,913,l),
(514,780,l),
(345,927,l),
(499,1012,l),
(547,933,l)
);
}
);
width = 583;
},
{
layerId = "6A4E6D7A-FBCF-4CEF-9028-EBF7BE717EF8";
shapes = (
{
closed = 1;
nodes = (
(203,700,l),
(572,700,l),
(568,689,l),
(389,689,l),
(153,0,l),
(142,0,l),
(378,689,l),
(200,689,l)
);
},
{
closed = 1;
nodes = (
(605,914,l),
(610,906,l),
(411,769,l),
(307,908,l),
(317,916,l),
(414,781,l)
);
}
);
userData = {
com.fontlab.hintData = {
hhints = (
{
position = 0;
width = 21;
},
{
position = 689;
width = 11;
}
);
};
};
width = 405;
}
);
unicode = 356;
},
{
glyphname = Tcedilla;
lastChange = "2024-09-04 08:52:18 +0000";
layers = (
{
layerId = m001;
shapes = (
{
closed = 1;
nodes = (
(198,9,l),
(98,-101,l),
(100,-101,o),
(101,-101,o),
(103,-101,cs),
(142,-108,o),
(161,-138,o),
(152,-177,cs),
(139,-230,o),
(74,-269,o),
(22,-268,cs),
(-12,-268,o),
(-32,-251,o),
(-54,-228,c),
(-12,-192,l),
(1,-203,o),
(13,-215,o),
(32,-215,cs),
(53,-215,o),
(91,-196,o),
(97,-174,cs),
(103,-153,o),
(83,-140,o),
(65,-139,cs),
(44,-137,o),
(21,-148,o),
(2,-155,c),
(137,9,l)
);
},
{
closed = 1;
nodes = (
(193,700,l),
(615,700,l),
(587,620,l),
(418,620,l),
(205,0,l),
(122,0,l),
(335,620,l),
(164,620,l)
);
}
);
width = 437;
},
{
layerId = "E79D52FD-16C9-4CD8-B33B-848E03DA3A4F";
shapes = (
{
closed = 1;
nodes = (
(320,20,l),
(170,-108,l),
(184,-105,o),
(200,-101,o),
(214,-102,cs),
(273,-106,o),
(301,-161,o),
(285,-215,cs),
(264,-287,o),
(186,-326,o),
(116,-330,cs),
(57,-333,o),
(3,-314,o),
(-49,-287,c),
(22,-207,l),
(46,-220,o),
(72,-233,o),
(101,-232,cs),
(119,-231,o),
(170,-218,o),
(173,-195,cs),
(176,-174,o),
(140,-170,o),
(128,-169,cs),
(94,-167,o),
(59,-175,o),
(25,-181,c),
(171,26,l)
);
},
{
closed = 1;
nodes = (
(182,700,l),
(772,700,l),
(704,505,l),
(517,505,l),
(344,0,l),
(130,0,l),
(303,505,l),
(114,505,l)
);
}
);
width = 583;
},
{
layerId = "6A4E6D7A-FBCF-4CEF-9028-EBF7BE717EF8";
shapes = (
{
closed = 1;
nodes = (
(154,0,l),
(73,-75,l),
(95,-65,o),
(122,-50,o),
(147,-53,cs),
(186,-57,o),
(202,-91,o),
(192,-127,cs),
(178,-180,o),
(112,-220,o),
(59,-219,cs),
(27,-219,o),
(8,-203,o),
(-13,-182,c),
(-5,-176,l),
(14,-194,o),
(33,-209,o),
(61,-209,cs),
(109,-209,o),
(169,-174,o),
(183,-126,cs),
(192,-96,o),
(178,-67,o),
(145,-63,cs),
(116,-59,o),
(85,-76,o),
(59,-87,c),
(142,0,l)
);
},
{
closed = 1;
nodes = (
(203,700,l),
(572,700,l),
(568,689,l),
(389,689,l),
(153,0,l),
(142,0,l),
(378,689,l),
(200,689,l)
);
}
);
width = 405;
}
);
unicode = 354;
},
{
glyphname = Tcommaaccent;
lastChange = "2024-07-24 14:04:50 +0000";
layers = (
{
layerId = m001;
shapes = (
{
closed = 1;
nodes = (
(193,700,l),
(615,700,l),
(587,620,l),
(418,620,l),
(205,0,l),
(122,0,l),
(335,620,l),
(164,620,l)
);
},
{
closed = 1;
nodes = (
(216.518,-92,l),
(27.518,-336,l),
(-25.482,-315,l),
(144.518,-60,l)
);
}
);
width = 437;
},
{
layerId = "E79D52FD-16C9-4CD8-B33B-848E03DA3A4F";
shapes = (
{
closed = 1;
nodes = (
(182,700,l),
(772,700,l),
(704,505,l),
(517,505,l),
(344,0,l),
(130,0,l),
(303,505,l),
(114,505,l)
);
},
{
closed = 1;
nodes = (
(345.229,-96,l),
(134.229,-340,l),
(-10.771,-313,l),
(160.229,-60,l)
);
}
);
width = 583;
},
{
layerId = "6A4E6D7A-FBCF-4CEF-9028-EBF7BE717EF8";
shapes = (
{
closed = 1;
nodes = (
(203,700,l),
(572,700,l),
(568,689,l),
(389,689,l),
(153,0,l),
(142,0,l),
(378,689,l),
(200,689,l)
);
},
{
closed = 1;
nodes = (
(182.105,-65,l),
(-9.895,-311,l),
(-15.895,-309,l),
(173.105,-60,l)
);
}
);
width = 405;
}
);
unicode = 538;
},
{
glyphname = U;
lastChange = "2024-07-24 13:57:39 +0000";
layers = (
{
layerId = m001;
shapes = (
{
closed = 1;
nodes = (
(338,700,l),
(175,230,ls),
(152,155,o),
(164.979,71,o),
(259,71,cs),
(375,71,o),
(431.925,145.647,o),
(461,230,cs),
(623,700,l),
(706,700,l),
(545,230,ls),
(501.54,103.13,o),
(417,-9,o),
(245,-9,cs),
(108,-9,o),
(54,113,o),
(94,230,cs),
(255,700,l)
);
}
);
width = 589;
},
{
layerId = "E79D52FD-16C9-4CD8-B33B-848E03DA3A4F";
shapes = (
{
closed = 1;
nodes = (
(457,700,l),
(299,250,ls),
(287,209,o),
(285,159,o),
(339,156,cs),
(395,153,o),
(440,204,o),
(460,251,c),
(616,700,l),
(829,700,l),
(670,230,ls),
(612,68,o),
(469,-40,o),
(295,-40,cs),
(132,-40,o),
(37,69,o),
(84,230,cs),
(243,700,l)
);
}
);
width = 701;
},
{
layerId = "6A4E6D7A-FBCF-4CEF-9028-EBF7BE717EF8";
shapes = (
{
closed = 1;
nodes = (
(276,699,l),
(111,220,ls),
(81,124,o),
(90,3,o),
(216,2,cs),
(342,1,o),
(432,112,o),
(472,220,cs),
(637,699,l),
(648,699,l),
(484,220,ls),
(442,104,o),
(349,-10,o),
(215,-9,cs),
(81,-8,o),
(69,116,o),
(101,220,cs),
(266,699,l)
);
}
);
width = 541;
}
);
unicode = 85;
},
{
glyphname = Uacute;
lastChange = "2024-07-24 13:57:39 +0000";
layers = (
{
layerId = m001;
shapes = (
{
closed = 1;
nodes = (
(338,700,l),
(175,230,ls),
(152,155,o),
(165,73,o),
(259,71,cs),
(355,69,o),
(428,147,o),
(461,230,cs),
(623,700,l),
(706,700,l),
(545,230,ls),
(499,104,o),
(385,-9,o),
(243,-9,cs),
(106,-9,o),
(59,111,o),
(94,230,cs),
(255,700,l)
);
},
{
closed = 1;
nodes = (
(460,772,l),
(422,803,l),
(616,959,l),
(678,915,l)
);
}
);
width = 589;
},
{
layerId = "E79D52FD-16C9-4CD8-B33B-848E03DA3A4F";
shapes = (
{
closed = 1;
nodes = (
(457,700,l),
(299,250,ls),
(287,209,o),
(285,159,o),
(339,156,cs),
(395,153,o),
(440,204,o),
(460,251,c),
(616,700,l),
(829,700,l),
(670,230,ls),
(612,68,o),
(469,-40,o),
(295,-40,cs),
(132,-40,o),
(37,69,o),
(84,230,cs),
(243,700,l)
);
},
{
closed = 1;
nodes = (
(573,781,l),
(473,837,l),
(662,988,l),
(786,923,l)
);
}
);
width = 701;
},
{
layerId = "6A4E6D7A-FBCF-4CEF-9028-EBF7BE717EF8";
shapes = (
{
closed = 1;
nodes = (
(276,699,l),
(111,220,ls),
(81,124,o),
(90,3,o),
(216,2,cs),
(342,1,o),
(432,112,o),
(472,220,cs),
(637,699,l),
(648,699,l),
(484,220,ls),
(442,104,o),
(349,-10,o),
(215,-9,cs),
(81,-8,o),
(69,116,o),
(101,220,cs),
(266,699,l)
);
},
{
closed = 1;
nodes = (
(443,770,l),
(440,775,l),
(656,931,l),
(662,923,l)
);
}
);
width = 541;
}
);
unicode = 218;
},
{
glyphname = Ubreve;
lastChange = "2024-07-24 13:57:39 +0000";
layers = (
{
layerId = m001;
shapes = (
{
closed = 1;
nodes = (
(339,700,l),
(175,230,ls),
(152,156,o),
(162,73,o),
(256,71,cs),
(352,68,o),
(426,147,o),
(459,230,cs),
(621,700,l),
(707,700,l),
(547,230,ls),
(501,104,o),
(388,-9,o),
(246,-9,cs),
(109,-9,o),
(58,110,o),
(93,230,cs),
(254,700,l)
);
},
{
closed = 1;
nodes = (
(467,909,l),
(463,870,o),
(470,837,o),
(517,836,cs),
(568,835,o),
(601,871,o),
(628,909,c),
(701,907,l),
(665,831,o),
(600,771,o),
(511,771,cs),
(424,771,o),
(389,831,o),
(399,910,c)
);
}
);
width = 589;
},
{
layerId = "E79D52FD-16C9-4CD8-B33B-848E03DA3A4F";
shapes = (
{
closed = 1;
nodes = (
(457,700,l),
(299,250,ls),
(287,209,o),
(285,159,o),
(339,156,cs),
(395,153,o),
(440,204,o),
(460,251,c),
(616,700,l),
(829,700,l),
(670,230,ls),
(612,68,o),
(469,-40,o),
(295,-40,cs),
(132,-40,o),
(37,69,o),
(84,230,cs),
(243,700,l)
);
},
{
closed = 1;
nodes = (
(561.857,929.012,l),
(564.857,908.012,o),
(563.857,884.012,o),
(590.857,880.012,cs),
(619.857,876.012,o),
(642.857,909.012,o),
(657.857,928.012,c),
(774.857,927.012,l),
(741.857,843.012,o),
(675.857,781.012,o),
(580.857,780.012,cs),
(486.857,779.012,o),
(445.857,841.012,o),
(454.857,929.012,c)
);
}
);
width = 701;
},
{
layerId = "6A4E6D7A-FBCF-4CEF-9028-EBF7BE717EF8";
shapes = (
{
closed = 1;
nodes = (
(276,699,l),
(111,220,ls),
(81,124,o),
(90,3,o),
(216,2,cs),
(342,1,o),
(432,112,o),
(472,220,cs),
(637,699,l),
(648,699,l),
(484,220,ls),
(442,104,o),
(349,-10,o),
(215,-9,cs),
(81,-8,o),
(69,116,o),
(101,220,cs),
(266,699,l)
);
},
{
closed = 1;
nodes = (
(388,908,l),
(376,838,o),
(402,780,o),
(481,779,cs),
(565,778,o),
(628,838,o),
(667,906,c),
(677,906,l),
(637,831,o),
(570,768,o),
(480,769,cs),
(394,770,o),
(364,831,o),
(378,908,c)
);
}
);
width = 541;
}
);
unicode = 364;
},
{
glyphname = Ucircumflex;
lastChange = "2024-07-24 13:57:39 +0000";
layers = (
{
layerId = m001;
shapes = (
{
closed = 1;
nodes = (
(338,700,l),
(175,230,ls),
(152,155,o),
(165,73,o),
(259,71,cs),
(355,69,o),
(428,147,o),
(461,230,cs),
(623,700,l),
(706,700,l),
(545,230,ls),
(499,104,o),
(385,-9,o),
(243,-9,cs),
(106,-9,o),
(59,111,o),
(94,230,cs),
(255,700,l)
);
},
{
closed = 1;
nodes = (
(403,771,l),
(365,813,l),
(561,950,l),
(669,808,l),
(611,771,l),
(541,864,l)
);
}
);
width = 589;
},
{
layerId = "E79D52FD-16C9-4CD8-B33B-848E03DA3A4F";
shapes = (
{
closed = 1;
nodes = (
(457,700,l),
(299,250,ls),
(287,209,o),
(285,159,o),
(339,156,cs),
(395,153,o),
(440,204,o),
(460,251,c),
(616,700,l),
(829,700,l),
(670,230,ls),
(612,68,o),
(469,-40,o),
(295,-40,cs),
(132,-40,o),
(37,69,o),
(84,230,cs),
(243,700,l)
);
},
{
closed = 1;
nodes = (
(497,780,l),
(387,877,l),
(632,1010,l),
(800,863,l),
(646,778,l),
(598,857,l)
);
}
);
width = 701;
},
{
layerId = "6A4E6D7A-FBCF-4CEF-9028-EBF7BE717EF8";
shapes = (
{
closed = 1;
nodes = (
(276,699,l),
(111,220,ls),
(81,124,o),
(90,3,o),
(216,2,cs),
(342,1,o),
(432,112,o),
(472,220,cs),
(637,699,l),
(648,699,l),
(484,220,ls),
(442,104,o),
(349,-10,o),
(215,-9,cs),
(81,-8,o),
(69,116,o),
(101,220,cs),
(266,699,l)
);
},
{
closed = 1;
nodes = (
(334,770,l),
(330,777,l),
(529,914,l),
(633,775,l),
(624,768,l),
(526,902,l)
);
}
);
width = 541;
}
);
unicode = 219;
},
{
glyphname = Udieresis;
lastChange = "2024-07-24 13:57:39 +0000";
layers = (
{
layerId = m001;
shapes = (
{
closed = 1;
nodes = (
(338,700,l),
(175,230,ls),
(152,155,o),
(165,73,o),
(259,71,cs),
(355,69,o),
(428,147,o),
(461,230,cs),
(623,700,l),
(706,700,l),
(545,230,ls),
(499,104,o),
(385,-9,o),
(243,-9,cs),
(106,-9,o),
(59,111,o),
(94,230,cs),
(255,700,l)
);
},
{
closed = 1;
nodes = (
(569,851,o),
(607,882,o),
(632,879,cs),
(659,876,o),
(675,849,o),
(669,823,cs),
(663,799,o),
(625,768,o),
(600,771,cs),
(573,774,o),
(557,801,o),
(563,827,cs)
);
},
{
closed = 1;
nodes = (
(381,851,o),
(419,882,o),
(444,879,cs),
(471,876,o),
(487,849,o),
(481,823,cs),
(475,799,o),
(436,768,o),
(411,771,cs),
(384,774,o),
(369,801,o),
(375,827,cs)
);
}
);
width = 589;
},
{
layerId = "E79D52FD-16C9-4CD8-B33B-848E03DA3A4F";
shapes = (
{
closed = 1;
nodes = (
(457,700,l),
(299,250,ls),
(287,209,o),
(285,159,o),
(339,156,cs),
(395,153,o),
(440,204,o),
(460,251,c),
(616,700,l),
(829,700,l),
(670,230,ls),
(612,68,o),
(469,-40,o),
(295,-40,cs),
(132,-40,o),
(37,69,o),
(84,230,cs),
(243,700,l)
);
},
{
closed = 1;
nodes = (
(663,934,o),
(723,975,o),
(777,975,cs),
(832,975,o),
(871,930,o),
(856,875,cs),
(841,822,o),
(781,781,o),
(727,781,cs),
(672,781,o),
(633,826,o),
(648,881,cs)
);
},
{
closed = 1;
nodes = (
(352,934,o),
(412,975,o),
(466,975,cs),
(521,975,o),
(560,930,o),
(545,875,cs),
(530,822,o),
(470,781,o),
(416,781,cs),
(361,781,o),
(322,826,o),
(337,881,cs)
);
}
);
width = 701;
},
{
layerId = "6A4E6D7A-FBCF-4CEF-9028-EBF7BE717EF8";
shapes = (
{
closed = 1;
nodes = (
(276,699,l),
(111,220,ls),
(81,124,o),
(90,3,o),
(216,2,cs),
(342,1,o),
(432,112,o),
(472,220,cs),
(637,699,l),
(648,699,l),
(484,220,ls),
(442,104,o),
(349,-10,o),
(215,-9,cs),
(81,-8,o),
(69,116,o),
(101,220,cs),
(266,699,l)
);
},
{
closed = 1;
nodes = (
(558,783,o),
(566,790,o),
(571,790,cs),
(576,790,o),
(579,784,o),
(578,779,cs),
(577,775,o),
(569,768,o),
(564,768,cs),
(559,768,o),
(556,774,o),
(557,779,cs)
);
},
{
closed = 1;
nodes = (
(388,783,o),
(396,790,o),
(401,790,cs),
(406,790,o),
(410,784,o),
(409,779,cs),
(408,775,o),
(400,768,o),
(395,768,cs),
(390,768,o),
(386,774,o),
(387,779,cs)
);
}
);
width = 541;
}
);
unicode = 220;
},
{
glyphname = Ugrave;
lastChange = "2024-07-24 13:57:39 +0000";
layers = (
{
layerId = m001;
shapes = (
{
closed = 1;
nodes = (
(338,700,l),
(175,230,ls),
(152,155,o),
(165,73,o),
(259,71,cs),
(355,69,o),
(428,147,o),
(461,230,cs),
(623,700,l),
(706,700,l),
(545,230,ls),
(499,104,o),
(385,-9,o),
(243,-9,cs),
(106,-9,o),
(59,111,o),
(94,230,cs),
(255,700,l)
);
},
{
closed = 1;
nodes = (
(513,960,l),
(604,798,l),
(555,770,l),
(430,922,l)
);
}
);
width = 589;
},
{
layerId = "E79D52FD-16C9-4CD8-B33B-848E03DA3A4F";
shapes = (
{
closed = 1;
nodes = (
(457,700,l),
(299,250,ls),
(287,209,o),
(285,159,o),
(339,156,cs),
(395,153,o),
(440,204,o),
(460,251,c),
(616,700,l),
(829,700,l),
(670,230,ls),
(612,68,o),
(469,-40,o),
(295,-40,cs),
(132,-40,o),
(37,69,o),
(84,230,cs),
(243,700,l)
);
},
{
closed = 1;
nodes = (
(590,991,l),
(681,823,l),
(572,780,l),
(447,936,l)
);
}
);
width = 701;
},
{
layerId = "6A4E6D7A-FBCF-4CEF-9028-EBF7BE717EF8";
shapes = (
{
closed = 1;
nodes = (
(276,699,l),
(111,220,ls),
(81,124,o),
(90,3,o),
(216,2,cs),
(342,1,o),
(432,112,o),
(472,220,cs),
(637,699,l),
(648,699,l),
(484,220,ls),
(442,104,o),
(349,-10,o),
(215,-9,cs),
(81,-8,o),
(69,116,o),
(101,220,cs),
(266,699,l)
);
},
{
closed = 1;
nodes = (
(413,932,l),
(521,773,l),
(516,769,l),
(404,925,l)
);
}
);
width = 541;
}
);
unicode = 217;
},
{
glyphname = Uhungarumlaut;
lastChange = "2024-09-04 08:52:15 +0000";
layers = (
{
layerId = m001;
shapes = (
{
closed = 1;
nodes = (
(364,792,l),
(518,986,l),
(606,961,l),
(422,770,l)
);
},
{
closed = 1;
nodes = (
(529,792,l),
(682,986,l),
(772,961,l),
(586,770,l)
);
},
{
closed = 1;
nodes = (
(338,700,l),
(175,230,ls),
(152,155,o),
(164.979,71,o),
(259,71,cs),
(375,71,o),
(431.925,145.647,o),
(461,230,cs),
(623,700,l),
(706,700,l),
(545,230,ls),
(501.54,103.13,o),
(417,-9,o),
(245,-9,cs),
(108,-9,o),
(54,113,o),
(94,230,cs),
(255,700,l)
);
}
);
width = 589;
},
{
layerId = "E79D52FD-16C9-4CD8-B33B-848E03DA3A4F";
shapes = (
{
closed = 1;
nodes = (
(333,820,l),
(515,1004,l),
(665,958,l),
(454,780,l)
);
},
{
closed = 1;
nodes = (
(553,820,l),
(735,1004,l),
(885,958,l),
(674,780,l)
);
},
{
closed = 1;
nodes = (
(457,700,l),
(299,250,ls),
(287,209,o),
(285,159,o),
(339,156,cs),
(395,153,o),
(440,204,o),
(460,251,c),
(616,700,l),
(829,700,l),
(670,230,ls),
(612,68,o),
(469,-40,o),
(295,-40,cs),
(132,-40,o),
(37,69,o),
(84,230,cs),
(243,700,l)
);
}
);
width = 701;
},
{
layerId = "6A4E6D7A-FBCF-4CEF-9028-EBF7BE717EF8";
shapes = (
{
closed = 1;
nodes = (
(399,771,l),
(574,979,l),
(582,974,l),
(404,768,l)
);
},
{
closed = 1;
nodes = (
(499,771,l),
(674,979,l),
(682,974,l),
(504,768,l)
);
},
{
closed = 1;
nodes = (
(276,699,l),
(111,220,ls),
(81,124,o),
(90,3,o),
(216,2,cs),
(342,1,o),
(432,112,o),
(472,220,cs),
(637,699,l),
(648,699,l),
(484,220,ls),
(442,104,o),
(349,-10,o),
(215,-9,cs),
(81,-8,o),
(69,116,o),
(101,220,cs),
(266,699,l)
);
}
);
width = 541;
}
);
unicode = 368;
},
{
glyphname = Umacron;
lastChange = "2024-07-24 13:57:39 +0000";
layers = (
{
layerId = m001;
shapes = (
{
closed = 1;
nodes = (
(339,700,l),
(175,230,ls),
(152,156,o),
(162,73,o),
(256,71,cs),
(352,68,o),
(426,147,o),
(459,230,cs),
(621,700,l),
(707,700,l),
(547,230,ls),
(501,104,o),
(388,-9,o),
(246,-9,cs),
(109,-9,o),
(58,110,o),
(93,230,cs),
(254,700,l)
);
},
{
closed = 1;
nodes = (
(363,845,l),
(698,845,l),
(673,771,l),
(340,771,l)
);
}
);
width = 589;
},
{
layerId = "E79D52FD-16C9-4CD8-B33B-848E03DA3A4F";
shapes = (
{
closed = 1;
nodes = (
(457,700,l),
(299,250,ls),
(287,209,o),
(285,159,o),
(339,156,cs),
(395,153,o),
(440,204,o),
(460,251,c),
(616,700,l),
(829,700,l),
(670,230,ls),
(612,68,o),
(469,-40,o),
(295,-40,cs),
(132,-40,o),
(37,69,o),
(84,230,cs),
(243,700,l)
);
},
{
closed = 1;
nodes = (
(433.558,945,l),
(802.558,945,l),
(750.558,780,l),
(381.558,780,l)
);
}
);
width = 701;
},
{
layerId = "6A4E6D7A-FBCF-4CEF-9028-EBF7BE717EF8";
shapes = (
{
closed = 1;
nodes = (
(276,699,l),
(111,220,ls),
(81,124,o),
(90,3,o),
(216,2,cs),
(342,1,o),
(432,112,o),
(472,220,cs),
(637,699,l),
(648,699,l),
(484,220,ls),
(442,104,o),
(349,-10,o),
(215,-9,cs),
(81,-8,o),
(69,116,o),
(101,220,cs),
(266,699,l)
);
},
{
closed = 1;
nodes = (
(317,778,l),
(647,778,l),
(644,768,l),
(314,768,l)
);
}
);
width = 541;
}
);
unicode = 362;
},
{
glyphname = Uogonek;
lastChange = "2024-09-04 08:52:20 +0000";
layers = (
{
layerId = m001;
shapes = (
{
closed = 1;
nodes = (
(259,-184,l),
(231,-203,o),
(202,-220,o),
(167,-221,cs),
(107,-223,o),
(59,-183,o),
(76,-121,cs),
(96,-48,o),
(181,-8,o),
(243,22,c),
(279,-2,l),
(239,-25,o),
(171,-51,o),
(159,-102,cs),
(154,-124,o),
(161,-147,o),
(186,-151,cs),
(204,-154,o),
(226,-140,o),
(241,-132,c)
);
},
{
closed = 1;
nodes = (
(338,700,l),
(175,230,ls),
(152,155,o),
(164.979,71,o),
(259,71,cs),
(375,71,o),
(431.925,145.647,o),
(461,230,cs),
(623,700,l),
(706,700,l),
(545,230,ls),
(501.54,103.13,o),
(417,-9,o),
(245,-9,cs),
(108,-9,o),
(54,113,o),
(94,230,cs),
(255,700,l)
);
}
);
width = 589;
},
{
layerId = "E79D52FD-16C9-4CD8-B33B-848E03DA3A4F";
shapes = (
{
closed = 1;
nodes = (
(312,-215,l),
(280,-237,o),
(244,-253,o),
(204,-252,cs),
(147,-250,o),
(105,-209,o),
(118,-150,cs),
(135,-73,o),
(228,-37,o),
(291,-7,c),
(331,-32,l),
(298,-56,o),
(246,-81,o),
(234,-123,cs),
(231,-134,o),
(231,-147,o),
(245,-150,cs),
(262,-153,o),
(287,-138,o),
(301,-131,c)
);
},
{
closed = 1;
nodes = (
(457,700,l),
(299,250,ls),
(287,209,o),
(285,159,o),
(339,156,cs),
(395,153,o),
(440,204,o),
(460,251,c),
(616,700,l),
(829,700,l),
(670,230,ls),
(612,68,o),
(469,-40,o),
(295,-40,cs),
(132,-40,o),
(37,69,o),
(84,230,cs),
(243,700,l)
);
}
);
width = 701;
},
{
layerId = "6A4E6D7A-FBCF-4CEF-9028-EBF7BE717EF8";
shapes = (
{
closed = 1;
nodes = (
(203,-188,l),
(171,-208,o),
(138,-227,o),
(99,-226,cs),
(52,-225,o),
(13,-197,o),
(25,-146,cs),
(44,-67,o),
(151,-27,o),
(216,2,c),
(220,-7,l),
(159,-37,o),
(52,-72,o),
(34,-147,cs),
(24,-191,o),
(60,-215,o),
(100,-216,cs),
(136,-217,o),
(168,-199,o),
(198,-181,c)
);
},
{
closed = 1;
nodes = (
(276,699,l),
(111,220,ls),
(81,124,o),
(90,3,o),
(216,2,cs),
(342,1,o),
(432,112,o),
(472,220,cs),
(637,699,l),
(648,699,l),
(484,220,ls),
(442,104,o),
(349,-10,o),
(215,-9,cs),
(81,-8,o),
(69,116,o),
(101,220,cs),
(266,699,l)
);
}
);
width = 541;
}
);
unicode = 370;
},
{
glyphname = Uring;
lastChange = "2024-07-24 13:57:39 +0000";
layers = (
{
layerId = m001;
shapes = (
{
closed = 1;
nodes = (
(338,700,l),
(175,230,ls),
(152,155,o),
(165,73,o),
(259,71,cs),
(355,69,o),
(428,147,o),
(461,230,cs),
(623,700,l),
(706,700,l),
(545,230,ls),
(499,104,o),
(385,-9,o),
(243,-9,cs),
(106,-9,o),
(59,111,o),
(94,230,cs),
(255,700,l)
);
},
{
closed = 1;
nodes = (
(455,922,o),
(513,970,o),
(567,969,cs),
(621,968,o),
(650,917,o),
(635,868,cs),
(620,818,o),
(561,770,o),
(507,771,cs),
(453,772,o),
(425,823,o),
(440,872,cs)
);
},
{
closed = 1;
nodes = (
(483,849,o),
(493,821,o),
(516,818,cs),
(540,814,o),
(580,849,o),
(586,871,cs),
(592,891,o),
(582,919,o),
(559,922,cs),
(535,926,o),
(495,891,o),
(489,869,cs)
);
}
);
width = 589;
},
{
layerId = "E79D52FD-16C9-4CD8-B33B-848E03DA3A4F";
shapes = (
{
closed = 1;
nodes = (
(457,700,l),
(299,250,ls),
(287,209,o),
(285,159,o),
(339,156,cs),
(395,153,o),
(440,204,o),
(460,251,c),
(616,700,l),
(829,700,l),
(670,230,ls),
(612,68,o),
(469,-40,o),
(295,-40,cs),
(132,-40,o),
(37,69,o),
(84,230,cs),
(243,700,l)
);
},
{
closed = 1;
nodes = (
(491,976,o),
(566,1029,o),
(637,1029,cs),
(708,1029,o),
(759,974,o),
(739,903,cs),
(720,833,o),
(644,781,o),
(572,781,cs),
(501,781,o),
(452,837,o),
(472,907,cs)
);
},
{
closed = 1;
nodes = (
(559,888,o),
(564,864,o),
(583,862,cs),
(605,860,o),
(639,888,o),
(646,907,cs),
(651,922,o),
(645,947,o),
(626,949,cs),
(604,951,o),
(571,922,o),
(564,903,cs)
);
}
);
width = 701;
},
{
layerId = "6A4E6D7A-FBCF-4CEF-9028-EBF7BE717EF8";
shapes = (
{
closed = 1;
nodes = (
(276,699,l),
(111,220,ls),
(81,124,o),
(90,3,o),
(216,2,cs),
(342,1,o),
(432,112,o),
(472,220,cs),
(637,699,l),
(648,699,l),
(484,220,ls),
(442,104,o),
(349,-10,o),
(215,-9,cs),
(81,-8,o),
(69,116,o),
(101,220,cs),
(266,699,l)
);
},
{
closed = 1;
nodes = (
(433,920,o),
(492,968,o),
(547,967,cs),
(601,966,o),
(626,915,o),
(610,867,cs),
(593,816,o),
(534,768,o),
(479,769,cs),
(425,770,o),
(400,821,o),
(416,869,cs)
);
},
{
closed = 1;
nodes = (
(412,826,o),
(433,781,o),
(481,779,cs),
(530,777,o),
(585,823,o),
(600,868,cs),
(614,910,o),
(593,955,o),
(545,957,cs),
(496,959,o),
(441,913,o),
(426,868,cs)
);
}
);
userData = {
com.fontlab.hintData = {
hhints = (
{
position = -9;
width = 11;
},
{
position = 679;
width = 20;
},
{
position = 769;
width = 10;
},
{
position = 957;
width = 10;
}
);
};
};
width = 541;
}
);
unicode = 366;
},
{
glyphname = Utilde;
lastChange = "2024-07-24 13:57:39 +0000";
layers = (
{
layerId = m001;
shapes = (
{
closed = 1;
nodes = (
(339,700,l),
(175,230,ls),
(152,156,o),
(162,73,o),
(256,71,cs),
(352,68,o),
(426,147,o),
(459,230,cs),
(621,700,l),
(707,700,l),
(547,230,ls),
(501,104,o),
(388,-9,o),
(246,-9,cs),
(109,-9,o),
(58,110,o),
(93,230,cs),
(254,700,l)
);
},
{
closed = 1;
nodes = (
(348,849,o),
(450,889,o),
(478,888,cs),
(517,886,o),
(540,840,o),
(579,843,cs),
(607,845,o),
(632,873,o),
(651,890,c),
(686,843,l),
(657,812,o),
(615,771,o),
(568,775,cs),
(530,778,o),
(509,822,o),
(471,820,cs),
(441,818,o),
(420,792,o),
(403,771,c),
(358,810,l)
);
}
);
width = 589;
},
{
layerId = "E79D52FD-16C9-4CD8-B33B-848E03DA3A4F";
shapes = (
{
closed = 1;
nodes = (
(457,700,l),
(299,250,ls),
(287,209,o),
(285,159,o),
(339,156,cs),
(395,153,o),
(440,204,o),
(460,251,c),
(616,700,l),
(829,700,l),
(670,230,ls),
(612,68,o),
(469,-40,o),
(295,-40,cs),
(132,-40,o),
(37,69,o),
(84,230,cs),
(243,700,l)
);
},
{
closed = 1;
nodes = (
(419.442,914.347,o),
(468.442,966.347,o),
(532.442,963.347,cs),
(578.442,961.347,o),
(605.442,908.347,o),
(651.442,911.347,cs),
(686.442,913.347,o),
(713.442,943.347,o),
(737.442,965.347,c),
(800.442,869.347,l),
(761.442,825.347,o),
(700.442,775.347,o),
(637.442,780.347,cs),
(591.442,784.347,o),
(560.442,842.347,o),
(513.442,834.347,cs),
(484.442,829.347,o),
(468.442,806.347,o),
(452.442,785.347,c),
(387.442,865.347,l)
);
}
);
width = 701;
},
{
layerId = "6A4E6D7A-FBCF-4CEF-9028-EBF7BE717EF8";
shapes = (
{
closed = 1;
nodes = (
(276,699,l),
(111,220,ls),
(81,124,o),
(90,3,o),
(216,2,cs),
(342,1,o),
(432,112,o),
(472,220,cs),
(637,699,l),
(648,699,l),
(484,220,ls),
(442,104,o),
(349,-10,o),
(215,-9,cs),
(81,-8,o),
(69,116,o),
(101,220,cs),
(266,699,l)
);
},
{
closed = 1;
nodes = (
(380.929,796,o),
(401.929,825,o),
(438.929,825,cs),
(478.929,825,o),
(500.929,778,o),
(541.929,780,cs),
(570.929,781,o),
(591.929,807,o),
(609.929,826,c),
(618.929,823,l),
(597.929,801,o),
(572.929,772,o),
(539.929,772,cs),
(500.929,772,o),
(479.929,816,o),
(440.929,817,cs),
(407.929,818,o),
(388.929,792,o),
(371.929,768,c),
(362.929,769,l)
);
}
);
width = 541;
}
);
unicode = 360;
},
{
glyphname = V;
lastChange = "2024-07-24 13:57:39 +0000";
layers = (
{
layerId = m001;
shapes = (
{
closed = 1;
nodes = (
(706,699,l),
(802,699,l),
(266,-38,l),
(187,700,l),
(273,700,l),
(321,158,l)
);
}
);
width = 620;
},
{
layerId = "E79D52FD-16C9-4CD8-B33B-848E03DA3A4F";
shapes = (
{
closed = 1;
nodes = (
(669,699,l),
(928,699,l),
(320,-55,l),
(179,700,l),
(420,700,l),
(440,366,l)
);
}
);
width = 733;
},
{
layerId = "6A4E6D7A-FBCF-4CEF-9028-EBF7BE717EF8";
shapes = (
{
closed = 1;
nodes = (
(720,699,l),
(733,699,l),
(242,-15,l),
(196,700,l),
(208,700,l),
(251,15,l)
);
}
);
width = 564;
}
);
unicode = 86;
},
{
glyphname = W;
lastChange = "2024-07-24 13:57:39 +0000";
layers = (
{
layerId = m001;
shapes = (
{
closed = 1;
nodes = (
(1012,699,l),
(1108,699,l),
(618,-39,l),
(590,505,l),
(223,-39,l),
(191,700,l),
(280,700,l),
(291,180,l),
(659,739,l),
(677,180,l)
);
}
);
width = 931;
},
{
layerId = "E79D52FD-16C9-4CD8-B33B-848E03DA3A4F";
shapes = (
{
closed = 1;
nodes = (
(971,700,l),
(1233,699,l),
(699,-48,l),
(587,299,l),
(254,-51,l),
(183,700,l),
(431,700,l),
(414,362,l),
(712,741,l),
(773,356,l)
);
}
);
width = 1044;
},
{
layerId = "6A4E6D7A-FBCF-4CEF-9028-EBF7BE717EF8";
shapes = (
{
closed = 1;
nodes = (
(1047,699,l),
(1058,699,l),
(614,-16,l),
(622,676,l),
(200,-16,l),
(200,700,l),
(211,700,l),
(212,27,l),
(634,716,l),
(626,27,l)
);
}
);
width = 893;
}
);
unicode = 87;
},
{
glyphname = Wcircumflex;
lastChange = "2024-07-24 13:57:39 +0000";
layers = (
{
layerId = m001;
shapes = (
{
closed = 1;
nodes = (
(1013,699,l),
(1114,699,l),
(596,-42,l),
(587,502,l),
(201,-42,l),
(195,700,l),
(284,700,l),
(277,183,l),
(663,742,l),
(662,183,l)
);
},
{
closed = 1;
nodes = (
(585,796,l),
(544,839,l),
(738,975,l),
(849,832,l),
(793,795,l),
(723,888,l)
);
}
);
width = 931;
},
{
layerId = "E79D52FD-16C9-4CD8-B33B-848E03DA3A4F";
shapes = (
{
closed = 1;
nodes = (
(971,700,l),
(1233,699,l),
(699,-48,l),
(587,299,l),
(254,-51,l),
(183,700,l),
(431,700,l),
(414,362,l),
(712,741,l),
(773,356,l)
);
},
{
closed = 1;
nodes = (
(667.957,803,l),
(557.957,900,l),
(801.957,1033,l),
(970.957,886,l),
(816.957,801,l),
(768.957,880,l)
);
}
);
width = 1044;
},
{
layerId = "6A4E6D7A-FBCF-4CEF-9028-EBF7BE717EF8";
shapes = (
{
closed = 1;
nodes = (
(1047,699,l),
(1058,699,l),
(614,-16,l),
(622,676,l),
(200,-16,l),
(200,700,l),
(211,700,l),
(212,27,l),
(634,716,l),
(626,27,l)
);
},
{
closed = 1;
nodes = (
(511.389,778,l),
(506.389,785,l),
(705.389,922,l),
(809.389,783,l),
(801.389,776,l),
(703.389,910,l)
);
}
);
width = 893;
}
);
unicode = 372;
},
{
glyphname = Wdotaccent;
lastChange = "2024-09-04 08:52:09 +0000";
layers = (
{
layerId = m001;
shapes = (
{
closed = 1;
nodes = (
(643,884,o),
(668,909,o),
(698,909,cs),
(728,909,o),
(753,884,o),
(753,854,cs),
(753,824,o),
(728,799,o),
(698,799,cs),
(668,799,o),
(643,824,o),
(643,854,cs)
);
},
{
closed = 1;
nodes = (
(1012,699,l),
(1108,699,l),
(618,-39,l),
(590,505,l),
(223,-39,l),
(191,700,l),
(280,700,l),
(291,180,l),
(659,739,l),
(677,180,l)
);
}
);
width = 931;
},
{
layerId = "E79D52FD-16C9-4CD8-B33B-848E03DA3A4F";
shapes = (
{
closed = 1;
nodes = (
(677,954,o),
(737,995,o),
(791,995,cs),
(846,995,o),
(885,950,o),
(870,895,cs),
(855,842,o),
(795,801,o),
(741,801,cs),
(686,801,o),
(647,846,o),
(662,901,cs)
);
},
{
closed = 1;
nodes = (
(971,700,l),
(1233,699,l),
(699,-48,l),
(587,299,l),
(254,-51,l),
(183,700,l),
(431,700,l),
(414,362,l),
(712,741,l),
(773,356,l)
);
}
);
width = 1044;
},
{
layerId = "6A4E6D7A-FBCF-4CEF-9028-EBF7BE717EF8";
shapes = (
{
closed = 1;
nodes = (
(649,791,o),
(657,798,o),
(662,798,cs),
(667,798,o),
(670,792,o),
(669,787,cs),
(668,783,o),
(661,776,o),
(656,776,cs),
(651,776,o),
(647,782,o),
(648,787,cs)
);
},
{
closed = 1;
nodes = (
(1047,699,l),
(1058,699,l),
(614,-16,l),
(622,676,l),
(200,-16,l),
(200,700,l),
(211,700,l),
(212,27,l),
(634,716,l),
(626,27,l)
);
}
);
width = 893;
}
);
unicode = 7814;
},
{
glyphname = Wdotbelow;
lastChange = "2024-09-04 08:52:09 +0000";
layers = (
{
layerId = m001;
shapes = (
{
closed = 1;
nodes = (
(327,-124,o),
(352,-99,o),
(382,-99,cs),
(412,-99,o),
(437,-124,o),
(437,-154,cs),
(437,-184,o),
(412,-209,o),
(382,-209,cs),
(352,-209,o),
(327,-184,o),
(327,-154,cs)
);
},
{
closed = 1;
nodes = (
(1012,699,l),
(1108,699,l),
(618,-39,l),
(590,505,l),
(223,-39,l),
(191,700,l),
(280,700,l),
(291,180,l),
(659,739,l),
(677,180,l)
);
}
);
width = 931;
},
{
layerId = "E79D52FD-16C9-4CD8-B33B-848E03DA3A4F";
shapes = (
{
closed = 1;
nodes = (
(342,-152,o),
(402,-111,o),
(456,-111,cs),
(511,-111,o),
(550,-156,o),
(535,-211,cs),
(520,-264,o),
(460,-305,o),
(406,-305,cs),
(351,-305,o),
(312,-260,o),
(327,-205,cs)
);
},
{
closed = 1;
nodes = (
(971,700,l),
(1233,699,l),
(699,-48,l),
(587,299,l),
(254,-51,l),
(183,700,l),
(431,700,l),
(414,362,l),
(712,741,l),
(773,356,l)
);
}
);
width = 1044;
},
{
layerId = "6A4E6D7A-FBCF-4CEF-9028-EBF7BE717EF8";
shapes = (
{
closed = 1;
nodes = (
(373,-83,o),
(381,-76,o),
(386,-76,cs),
(391,-76,o),
(394,-82,o),
(393,-87,cs),
(392,-91,o),
(385,-98,o),
(380,-98,cs),
(375,-98,o),
(371,-92,o),
(372,-87,cs)
);
},
{
closed = 1;
nodes = (
(1047,699,l),
(1058,699,l),
(614,-16,l),
(622,676,l),
(200,-16,l),
(200,700,l),
(211,700,l),
(212,27,l),
(634,716,l),
(626,27,l)
);
}
);
width = 893;
}
);
unicode = 7816;
},
{
glyphname = X;
lastChange = "2024-07-24 13:57:39 +0000";
layers = (
{
layerId = m001;
shapes = (
{
closed = 1;
nodes = (
(685,699,l),
(382,363,l),
(477,0,l),
(386,0,l),
(322,290,l),
(72,0,l),
(-30,0,l),
(304,371,l),
(216,700,l),
(307,700,l),
(363,444,l),
(583,699,l)
);
}
);
width = 522;
},
{
layerId = "E79D52FD-16C9-4CD8-B33B-848E03DA3A4F";
shapes = (
{
closed = 1;
nodes = (
(896,699,l),
(566,345,l),
(682,0,l),
(429,0,l),
(392,190,l),
(232,0,l),
(-43,0,l),
(309,363,l),
(208,700,l),
(462,700,l),
(488,537,l),
(621,699,l)
);
}
);
width = 719;
},
{
layerId = "6A4E6D7A-FBCF-4CEF-9028-EBF7BE717EF8";
shapes = (
{
closed = 1;
nodes = (
(620,698,l),
(322,366,l),
(418,0,l),
(405,0,l),
(314,355,l),
(-3,0,l),
(-17,0,l),
(311,368,l),
(223,700,l),
(236,700,l),
(319,378,l),
(606,698,l)
);
}
);
width = 470;
}
);
unicode = 88;
},
{
glyphname = Y;
lastChange = "2024-07-24 13:57:39 +0000";
layers = (
{
layerId = m001;
shapes = (
{
closed = 1;
nodes = (
(713,699,l),
(353,297,l),
(250,0,l),
(167,0,l),
(274,307,l),
(191,700,l),
(278,700,l),
(335,379,l),
(615,699,l)
);
}
);
width = 527;
},
{
layerId = "E79D52FD-16C9-4CD8-B33B-848E03DA3A4F";
shapes = (
{
closed = 1;
nodes = (
(876,699,l),
(485,265,l),
(394,0,l),
(175,0,l),
(274,285,l),
(183,700,l),
(418,700,l),
(442,481,l),
(620,699,l)
);
}
);
width = 677;
},
{
layerId = "6A4E6D7A-FBCF-4CEF-9028-EBF7BE717EF8";
shapes = (
{
closed = 1;
nodes = (
(649,698,l),
(276,266,l),
(184,0,l),
(173,0,l),
(266,267,l),
(199,700,l),
(211,700,l),
(274,282,l),
(636,698,l)
);
}
);
width = 477;
}
);
unicode = 89;
},
{
glyphname = Yacute;
lastChange = "2024-07-24 13:57:39 +0000";
layers = (
{
layerId = m001;
shapes = (
{
closed = 1;
nodes = (
(429,771,l),
(392,803,l),
(585,959,l),
(647,915,l)
);
},
{
closed = 1;
nodes = (
(713,699,l),
(353,297,l),
(250,0,l),
(167,0,l),
(274,307,l),
(191,700,l),
(278,700,l),
(335,379,l),
(615,699,l)
);
}
);
width = 527;
},
{
layerId = "E79D52FD-16C9-4CD8-B33B-848E03DA3A4F";
shapes = (
{
closed = 1;
nodes = (
(561,781,l),
(461,837,l),
(650,988,l),
(774,923,l)
);
},
{
closed = 1;
nodes = (
(876,699,l),
(485,265,l),
(394,0,l),
(175,0,l),
(274,285,l),
(183,700,l),
(418,700,l),
(442,481,l),
(620,699,l)
);
}
);
width = 677;
},
{
layerId = "6A4E6D7A-FBCF-4CEF-9028-EBF7BE717EF8";
shapes = (
{
closed = 1;
nodes = (
(429,770,l),
(426,775,l),
(642,931,l),
(648,923,l)
);
},
{
closed = 1;
nodes = (
(649,698,l),
(276,266,l),
(184,0,l),
(173,0,l),
(266,267,l),
(199,700,l),
(211,700,l),
(274,282,l),
(636,698,l)
);
}
);
width = 477;
}
);
unicode = 221;
},
{
glyphname = Ycircumflex;
lastChange = "2024-07-24 13:57:39 +0000";
layers = (
{
layerId = m001;
shapes = (
{
closed = 1;
nodes = (
(716,699,l),
(353,295,l),
(251,0,l),
(166,0,l),
(274,310,l),
(192,700,l),
(277,700,l),
(334,381,l),
(613,699,l)
);
},
{
closed = 1;
nodes = (
(375,771,l),
(334,814,l),
(528,950,l),
(639,807,l),
(583,770,l),
(513,863,l)
);
}
);
width = 527;
},
{
layerId = "E79D52FD-16C9-4CD8-B33B-848E03DA3A4F";
shapes = (
{
closed = 1;
nodes = (
(876,699,l),
(485,265,l),
(394,0,l),
(175,0,l),
(274,285,l),
(183,700,l),
(418,700,l),
(442,481,l),
(620,699,l)
);
},
{
closed = 1;
nodes = (
(473.314,782,l),
(363.314,879,l),
(607.314,1012,l),
(776.314,865,l),
(622.314,780,l),
(574.314,859,l)
);
}
);
width = 677;
},
{
layerId = "6A4E6D7A-FBCF-4CEF-9028-EBF7BE717EF8";
shapes = (
{
closed = 1;
nodes = (
(649,698,l),
(276,266,l),
(184,0,l),
(173,0,l),
(266,267,l),
(199,700,l),
(211,700,l),
(274,282,l),
(636,698,l)
);
},
{
closed = 1;
nodes = (
(285.158,770,l),
(280.158,777,l),
(479.158,914,l),
(583.158,775,l),
(575.158,768,l),
(477.158,902,l)
);
}
);
width = 477;
}
);
unicode = 374;
},
{
glyphname = Ydieresis;
lastChange = "2024-07-24 13:57:39 +0000";
layers = (
{
layerId = m001;
shapes = (
{
closed = 1;
nodes = (
(351,850,o),
(388,882,o),
(413,879,cs),
(440,876,o),
(456,849,o),
(450,823,cs),
(444,799,o),
(405,768,o),
(380,771,cs),
(352,774,o),
(339,802,o),
(345,827,cs)
);
},
{
closed = 1;
nodes = (
(539,850,o),
(576,882,o),
(601,879,cs),
(628,876,o),
(645,849,o),
(639,823,cs),
(633,799,o),
(593,768,o),
(568,771,cs),
(540,774,o),
(527,802,o),
(533,827,cs)
);
},
{
closed = 1;
nodes = (
(713,699,l),
(353,297,l),
(250,0,l),
(167,0,l),
(274,307,l),
(191,700,l),
(278,700,l),
(335,379,l),
(615,699,l)
);
}
);
width = 527;
},
{
layerId = "E79D52FD-16C9-4CD8-B33B-848E03DA3A4F";
shapes = (
{
closed = 1;
nodes = (
(346,951,o),
(406,992,o),
(460,992,cs),
(515,992,o),
(554,947,o),
(539,892,cs),
(524,839,o),
(464,798,o),
(410,798,cs),
(355,798,o),
(316,843,o),
(331,898,cs)
);
},
{
closed = 1;
nodes = (
(656,951,o),
(716,992,o),
(770,992,cs),
(825,992,o),
(864,947,o),
(849,892,cs),
(834,839,o),
(774,798,o),
(720,798,cs),
(665,798,o),
(626,843,o),
(641,898,cs)
);
},
{
closed = 1;
nodes = (
(876,699,l),
(485,265,l),
(394,0,l),
(175,0,l),
(274,285,l),
(183,700,l),
(418,700,l),
(442,481,l),
(620,699,l)
);
}
);
width = 677;
},
{
layerId = "6A4E6D7A-FBCF-4CEF-9028-EBF7BE717EF8";
shapes = (
{
closed = 1;
nodes = (
(355,785,o),
(364,790,o),
(369,790,cs),
(374,790,o),
(378,784,o),
(377,779,cs),
(376,775,o),
(368,768,o),
(363,768,cs),
(358,768,o),
(353,775,o),
(354,780,cs)
);
},
{
closed = 1;
nodes = (
(525,785,o),
(534,790,o),
(539,790,cs),
(544,790,o),
(547,784,o),
(546,779,cs),
(545,775,o),
(537,768,o),
(532,768,cs),
(527,768,o),
(523,775,o),
(524,780,cs)
);
},
{
closed = 1;
nodes = (
(649,698,l),
(276,266,l),
(184,0,l),
(173,0,l),
(266,267,l),
(199,700,l),
(211,700,l),
(274,282,l),
(636,698,l)
);
}
);
width = 477;
}
);
unicode = 376;
},
{
glyphname = Z;
lastChange = "2024-07-24 13:57:39 +0000";
layers = (
{
layerId = m001;
shapes = (
{
closed = 1;
nodes = (
(217,700,l),
(683,699,l),
(125,81,l),
(451,80,l),
(422,0,l),
(-45,0,l),
(514,619,l),
(188,620,l)
);
}
);
width = 512;
},
{
layerId = "E79D52FD-16C9-4CD8-B33B-848E03DA3A4F";
shapes = (
{
closed = 1;
nodes = (
(248,700,l),
(810,699,l),
(344,186,l),
(587,185,l),
(522,0,l),
(-59,0,l),
(398,504,l),
(180,505,l)
);
}
);
width = 625;
},
{
layerId = "6A4E6D7A-FBCF-4CEF-9028-EBF7BE717EF8";
shapes = (
{
closed = 1;
nodes = (
(222,700,l),
(675,700,l),
(-10,12,l),
(430,12,l),
(426,0,l),
(-37,0,l),
(649,689,l),
(218,689,l)
);
}
);
width = 503;
}
);
unicode = 90;
},
{
glyphname = Zacute;
lastChange = "2024-07-24 13:57:39 +0000";
layers = (
{
layerId = m001;
shapes = (
{
closed = 1;
nodes = (
(217,700,l),
(683,699,l),
(125,81,l),
(451,80,l),
(422,0,l),
(-45,0,l),
(514,619,l),
(188,620,l)
);
},
{
closed = 1;
nodes = (
(457,772,l),
(419,803,l),
(613,959,l),
(675,915,l)
);
}
);
width = 512;
},
{
layerId = "E79D52FD-16C9-4CD8-B33B-848E03DA3A4F";
shapes = (
{
closed = 1;
nodes = (
(248,700,l),
(810,699,l),
(344,186,l),
(587,185,l),
(522,0,l),
(-59,0,l),
(398,504,l),
(180,505,l)
);
},
{
closed = 1;
nodes = (
(563,781,l),
(463,837,l),
(652,988,l),
(776,923,l)
);
}
);
width = 625;
},
{
layerId = "6A4E6D7A-FBCF-4CEF-9028-EBF7BE717EF8";
shapes = (
{
closed = 1;
nodes = (
(222,700,l),
(675,699,l),
(-10,12,l),
(430,11,l),
(426,0,l),
(-37,0,l),
(649,688,l),
(218,689,l)
);
},
{
closed = 1;
nodes = (
(444,770,l),
(442,775,l),
(658,931,l),
(664,923,l)
);
}
);
userData = {
com.fontlab.hintData = {
hhints = (
{
position = 0;
width = 12;
},
{
position = 689;
width = 11;
}
);
};
};
width = 503;
}
);
unicode = 377;
},
{
glyphname = Zcaron;
lastChange = "2024-07-24 13:57:39 +0000";
layers = (
{
layerId = m001;
shapes = (
{
closed = 1;
nodes = (
(217,700,l),
(683,699,l),
(125,81,l),
(451,80,l),
(422,0,l),
(-45,0,l),
(514,619,l),
(188,620,l)
);
},
{
closed = 1;
nodes = (
(633,949,l),
(672,907,l),
(476,770,l),
(368,912,l),
(425,949,l),
(496,856,l)
);
}
);
width = 512;
},
{
layerId = "E79D52FD-16C9-4CD8-B33B-848E03DA3A4F";
shapes = (
{
closed = 1;
nodes = (
(248,700,l),
(810,699,l),
(344,186,l),
(587,185,l),
(522,0,l),
(-59,0,l),
(398,504,l),
(180,505,l)
);
},
{
closed = 1;
nodes = (
(697,1010,l),
(807,913,l),
(563,780,l),
(394,927,l),
(548,1012,l),
(596,933,l)
);
}
);
width = 625;
},
{
layerId = "6A4E6D7A-FBCF-4CEF-9028-EBF7BE717EF8";
shapes = (
{
closed = 1;
nodes = (
(222,700,l),
(675,699,l),
(-10,12,l),
(430,11,l),
(426,0,l),
(-37,0,l),
(649,688,l),
(218,689,l)
);
},
{
closed = 1;
nodes = (
(665,914,l),
(671,906,l),
(472,769,l),
(368,908,l),
(377,916,l),
(474,781,l)
);
}
);
width = 503;
}
);
unicode = 381;
},
{
glyphname = Zdotaccent;
lastChange = "2024-07-24 13:57:39 +0000";
layers = (
{
layerId = m001;
shapes = (
{
closed = 1;
nodes = (
(217,700,l),
(683,699,l),
(125,81,l),
(451,80,l),
(422,0,l),
(-45,0,l),
(514,619,l),
(188,620,l)
);
},
{
closed = 1;
nodes = (
(444,851,o),
(482,882,o),
(507,879,cs),
(534,876,o),
(550,849,o),
(544,823,cs),
(538,799,o),
(499,768,o),
(474,771,cs),
(447,774,o),
(432,801,o),
(438,827,cs)
);
}
);
width = 512;
},
{
layerId = "E79D52FD-16C9-4CD8-B33B-848E03DA3A4F";
shapes = (
{
closed = 1;
nodes = (
(248,700,l),
(810,699,l),
(344,186,l),
(587,185,l),
(522,0,l),
(-59,0,l),
(398,504,l),
(180,505,l)
);
},
{
closed = 1;
nodes = (
(497,934,o),
(557,975,o),
(611,975,cs),
(666,975,o),
(705,930,o),
(690,875,cs),
(675,822,o),
(615,781,o),
(561,781,cs),
(506,781,o),
(467,826,o),
(482,881,cs)
);
}
);
width = 625;
},
{
layerId = "6A4E6D7A-FBCF-4CEF-9028-EBF7BE717EF8";
shapes = (
{
closed = 1;
nodes = (
(222,700,l),
(675,699,l),
(-10,12,l),
(430,11,l),
(426,0,l),
(-37,0,l),
(649,688,l),
(218,689,l)
);
},
{
closed = 1;
nodes = (
(466,783,o),
(473,790,o),
(478,790,cs),
(483,790,o),
(487,784,o),
(486,779,cs),
(485,775,o),
(477,768,o),
(472,768,cs),
(467,768,o),
(464,774,o),
(465,779,cs)
);
}
);
userData = {
com.fontlab.hintData = {
hhints = (
{
position = 0;
width = 12;
},
{
position = 689;
width = 11;
},
{
position = 768;
width = 22;
}
);
vhints = (
{
position = 465;
width = 21;
}
);
};
};
width = 503;
}
);
unicode = 379;
},
{
glyphname = a;
lastChange = "2024-07-24 13:57:39 +0000";
layers = (
{
layerId = m001;
shapes = (
{
closed = 1;
nodes = (
(82,89,o),
(115,64,o),
(157,62,cs),
(238,58,o),
(294,114,o),
(332,179,c),
(331,128,l),
(290,48,o),
(219,-10,o),
(125,-9,cs),
(43,-8,o),
(-7,53,o),
(17,133,cs),
(47,231,o),
(153,286,o),
(251,285,cs),
(305,284,o),
(346,265,o),
(380,224,c),
(365,179,l),
(329,208,o),
(291,225,o),
(244,224,cs),
(186,223,o),
(114,196,o),
(96,135,cs)
);
},
{
closed = 1;
nodes = (
(154,416,l),
(210,446,o),
(270,470,o),
(334,469,cs),
(418,468,o),
(489,417,o),
(459,330,cs),
(346,0,l),
(267,0,l),
(384,330,ls),
(399,371,o),
(367,396,o),
(320,398,cs),
(268,400,o),
(218,375,o),
(173,352,c)
);
}
);
width = 456;
},
{
layerId = "E79D52FD-16C9-4CD8-B33B-848E03DA3A4F";
shapes = (
{
closed = 1;
nodes = (
(193,119,o),
(207,109,o),
(222,107,cs),
(274,102,o),
(309,152,o),
(334,189,c),
(332,128,l),
(295,47,o),
(227,-8,o),
(135,-9,cs),
(52,-10,o),
(-19,42,o),
(6,131,cs),
(34,228,o),
(143,273,o),
(236,274,cs),
(290,275,o),
(338,262,o),
(382,231,c),
(357,148,l),
(332,168,o),
(308,181,o),
(274,180,cs),
(243,179,o),
(200,166,o),
(196,137,cs)
);
},
{
closed = 1;
nodes = (
(145,426,l),
(218,452,o),
(294,475,o),
(372,475,cs),
(465,475,o),
(582,435,o),
(555,320,c),
(447,0,l),
(266,0,l),
(365,273,l),
(373,307,o),
(360,326,o),
(325,331,cs),
(273,338,o),
(215,314,o),
(167,297,c)
);
}
);
width = 545;
},
{
layerId = "6A4E6D7A-FBCF-4CEF-9028-EBF7BE717EF8";
shapes = (
{
closed = 1;
nodes = (
(14,65,o),
(49,1,o),
(126,1,cs),
(223,1,o),
(294,79,o),
(336,158,c),
(341,158,l),
(300,74,o),
(227,-9,o),
(125,-9,cs),
(42,-9,o),
(3,60,o),
(29,136,cs),
(60,225,o),
(158,280,o),
(249,280,cs),
(295,280,o),
(331,265,o),
(364,235,c),
(360,226,l),
(328,256,o),
(292,270,o),
(247,270,cs),
(162,270,o),
(69,218,o),
(39,135,cs)
);
},
{
closed = 1;
nodes = (
(155,405,l),
(205,437,o),
(262,471,o),
(324,469,cs),
(411,466,o),
(419,389,o),
(399,320,cs),
(288,0,l),
(278,0,l),
(390,320,ls),
(409,384,o),
(404,456,o),
(323,459,cs),
(263,462,o),
(207,427,o),
(159,396,c)
);
}
);
width = 409;
}
);
unicode = 97;
},
{
glyphname = aacute;
lastChange = "2024-07-24 13:57:39 +0000";
layers = (
{
layerId = m001;
shapes = (
{
closed = 1;
nodes = (
(80,87,o),
(113,64,o),
(157,62,cs),
(239,59,o),
(294,113,o),
(332,179,c),
(331,128,l),
(290,48,o),
(219,-10,o),
(125,-9,cs),
(46,-8,o),
(-9,46,o),
(15,126,cs),
(44,225,o),
(151,286,o),
(251,285,cs),
(305,285,o),
(346,265,o),
(380,224,c),
(365,179,l),
(329,208,o),
(291,225,o),
(244,224,cs),
(186,223,o),
(116,195,o),
(96,135,cs)
);
},
{
closed = 1;
nodes = (
(154,416,l),
(210,446,o),
(270,470,o),
(334,469,cs),
(418,468,o),
(482,419,o),
(459,330,c),
(346,0,l),
(267,0,l),
(384,330,l),
(385,374,o),
(367,396,o),
(320,398,cs),
(268,400,o),
(218,375,o),
(173,352,c)
);
},
{
closed = 1;
nodes = (
(345,532,l),
(307,563,l),
(501,719,l),
(563,675,l)
);
}
);
width = 456;
},
{
layerId = "E79D52FD-16C9-4CD8-B33B-848E03DA3A4F";
shapes = (
{
closed = 1;
nodes = (
(192,119,o),
(207,109,o),
(222,107,cs),
(274,102,o),
(309,152,o),
(334,189,c),
(332,128,l),
(295,47,o),
(227,-8,o),
(135,-9,cs),
(52,-10,o),
(-19,42,o),
(6,131,cs),
(34,228,o),
(143,273,o),
(236,274,cs),
(290,275,o),
(338,262,o),
(382,231,c),
(357,148,l),
(332,168,o),
(308,182,o),
(274,180,cs),
(250,178,o),
(203,164,o),
(196,137,cs)
);
},
{
closed = 1;
nodes = (
(145,426,l),
(218,452,o),
(294,475,o),
(372,475,cs),
(465,475,o),
(582,435,o),
(555,320,c),
(447,0,l),
(266,0,l),
(365,273,l),
(373,307,o),
(360,326,o),
(325,331,cs),
(273,338,o),
(215,314,o),
(167,297,c)
);
},
{
closed = 1;
nodes = (
(414,536,l),
(315,592,l),
(504,743,l),
(627,678,l)
);
}
);
width = 545;
},
{
layerId = "6A4E6D7A-FBCF-4CEF-9028-EBF7BE717EF8";
shapes = (
{
closed = 1;
nodes = (
(14,65,o),
(49,1,o),
(126,1,cs),
(223,1,o),
(294,79,o),
(336,158,c),
(341,158,l),
(300,74,o),
(227,-9,o),
(125,-9,cs),
(42,-9,o),
(3,60,o),
(29,136,cs),
(60,225,o),
(158,280,o),
(249,280,cs),
(295,280,o),
(331,265,o),
(364,235,c),
(360,226,l),
(328,256,o),
(292,270,o),
(247,270,cs),
(162,270,o),
(69,218,o),
(39,135,cs)
);
},
{
closed = 1;
nodes = (
(155,405,l),
(205,437,o),
(262,471,o),
(324,469,cs),
(411,466,o),
(419,389,o),
(399,320,cs),
(288,0,l),
(278,0,l),
(390,320,ls),
(409,384,o),
(404,456,o),
(323,459,cs),
(263,462,o),
(207,427,o),
(159,396,c)
);
},
{
closed = 1;
nodes = (
(299,552,l),
(294,557,l),
(510,713,l),
(516,705,l)
);
}
);
width = 409;
}
);
unicode = 225;
},
{
glyphname = abreve;
lastChange = "2024-07-24 13:57:39 +0000";
layers = (
{
layerId = m001;
shapes = (
{
closed = 1;
nodes = (
(80,87,o),
(113,64,o),
(157,62,cs),
(239,59,o),
(294,113,o),
(332,179,c),
(331,128,l),
(290,48,o),
(219,-10,o),
(125,-9,cs),
(46,-8,o),
(-9,46,o),
(15,126,cs),
(44,225,o),
(151,286,o),
(251,285,cs),
(305,285,o),
(346,265,o),
(380,224,c),
(365,179,l),
(329,208,o),
(291,225,o),
(244,224,cs),
(186,223,o),
(116,195,o),
(96,135,cs)
);
},
{
closed = 1;
nodes = (
(154,416,l),
(210,446,o),
(270,470,o),
(334,469,cs),
(418,468,o),
(482,419,o),
(459,330,c),
(346,0,l),
(267,0,l),
(384,330,l),
(385,374,o),
(367,396,o),
(320,398,cs),
(268,400,o),
(218,375,o),
(173,352,c)
);
},
{
closed = 1;
nodes = (
(324,669,l),
(321,629,o),
(329,597,o),
(376,596,cs),
(427,595,o),
(460,631,o),
(487,669,c),
(558,668,l),
(520,593,o),
(454,531,o),
(365,531,cs),
(278,531,o),
(246,592,o),
(257,670,c)
);
}
);
width = 456;
},
{
layerId = "E79D52FD-16C9-4CD8-B33B-848E03DA3A4F";
shapes = (
{
closed = 1;
nodes = (
(192,119,o),
(207,109,o),
(222,107,cs),
(274,102,o),
(309,152,o),
(334,189,c),
(332,128,l),
(295,47,o),
(227,-8,o),
(135,-9,cs),
(52,-10,o),
(-19,42,o),
(6,131,cs),
(34,228,o),
(143,273,o),
(236,274,cs),
(290,275,o),
(338,262,o),
(382,231,c),
(357,148,l),
(332,168,o),
(308,182,o),
(274,180,cs),
(250,178,o),
(203,164,o),
(196,137,cs)
);
},
{
closed = 1;
nodes = (
(145,426,l),
(218,452,o),
(294,475,o),
(372,475,cs),
(465,475,o),
(582,435,o),
(555,320,c),
(447,0,l),
(266,0,l),
(365,273,l),
(373,307,o),
(360,326,o),
(325,331,cs),
(273,338,o),
(215,314,o),
(167,297,c)
);
},
{
closed = 1;
nodes = (
(400,685,l),
(402,664,o),
(400,640,o),
(427,636,cs),
(456,632,o),
(479,665,o),
(495,684,c),
(613,682,l),
(578,598,o),
(510,537,o),
(415,536,cs),
(320,535,o),
(282,598,o),
(293,685,c)
);
}
);
width = 545;
},
{
layerId = "6A4E6D7A-FBCF-4CEF-9028-EBF7BE717EF8";
shapes = (
{
closed = 1;
nodes = (
(14,65,o),
(49,1,o),
(126,1,cs),
(223,1,o),
(294,79,o),
(336,158,c),
(341,158,l),
(300,74,o),
(227,-9,o),
(125,-9,cs),
(42,-9,o),
(3,60,o),
(29,136,cs),
(60,225,o),
(158,280,o),
(249,280,cs),
(295,280,o),
(331,265,o),
(364,235,c),
(360,226,l),
(328,256,o),
(292,270,o),
(247,270,cs),
(162,270,o),
(69,218,o),
(39,135,cs)
);
},
{
closed = 1;
nodes = (
(155,405,l),
(205,437,o),
(262,471,o),
(324,469,cs),
(411,466,o),
(419,389,o),
(399,320,cs),
(288,0,l),
(278,0,l),
(390,320,ls),
(409,384,o),
(404,456,o),
(323,459,cs),
(263,462,o),
(207,427,o),
(159,396,c)
);
},
{
closed = 1;
nodes = (
(249,680,l),
(237,610,o),
(263,552,o),
(342,551,cs),
(426,550,o),
(489,610,o),
(528,678,c),
(538,678,l),
(498,603,o),
(431,540,o),
(341,541,cs),
(255,542,o),
(225,603,o),
(239,680,c)
);
}
);
width = 409;
}
);
unicode = 259;
},
{
glyphname = acircumflex;
lastChange = "2024-07-24 13:57:39 +0000";
layers = (
{
layerId = m001;
shapes = (
{
closed = 1;
nodes = (
(80,87,o),
(113,64,o),
(157,62,cs),
(239,59,o),
(294,113,o),
(332,179,c),
(331,128,l),
(290,48,o),
(219,-10,o),
(125,-9,cs),
(46,-8,o),
(-9,46,o),
(15,126,cs),
(44,225,o),
(151,286,o),
(251,285,cs),
(305,285,o),
(346,265,o),
(380,224,c),
(365,179,l),
(329,208,o),
(291,225,o),
(244,224,cs),
(186,223,o),
(116,195,o),
(96,135,cs)
);
},
{
closed = 1;
nodes = (
(154,416,l),
(210,446,o),
(270,470,o),
(334,469,cs),
(418,468,o),
(482,419,o),
(459,330,c),
(346,0,l),
(267,0,l),
(384,330,l),
(385,374,o),
(367,396,o),
(320,398,cs),
(268,400,o),
(218,375,o),
(173,352,c)
);
},
{
closed = 1;
nodes = (
(260,531,l),
(221,573,l),
(418,710,l),
(526,568,l),
(468,531,l),
(398,624,l)
);
}
);
width = 456;
},
{
layerId = "E79D52FD-16C9-4CD8-B33B-848E03DA3A4F";
shapes = (
{
closed = 1;
nodes = (
(192,119,o),
(207,109,o),
(222,107,cs),
(274,102,o),
(309,152,o),
(334,189,c),
(332,128,l),
(295,47,o),
(227,-8,o),
(135,-9,cs),
(52,-10,o),
(-19,42,o),
(6,131,cs),
(34,228,o),
(143,273,o),
(236,274,cs),
(290,275,o),
(338,262,o),
(382,231,c),
(357,148,l),
(332,168,o),
(308,182,o),
(274,180,cs),
(250,178,o),
(203,164,o),
(196,137,cs)
);
},
{
closed = 1;
nodes = (
(145,426,l),
(218,452,o),
(294,475,o),
(372,475,cs),
(465,475,o),
(582,435,o),
(555,320,c),
(447,0,l),
(266,0,l),
(365,273,l),
(373,307,o),
(360,326,o),
(325,331,cs),
(273,338,o),
(215,314,o),
(167,297,c)
);
},
{
closed = 1;
nodes = (
(338,535,l),
(228,632,l),
(473,765,l),
(642,618,l),
(487,533,l),
(439,612,l)
);
}
);
width = 545;
},
{
layerId = "6A4E6D7A-FBCF-4CEF-9028-EBF7BE717EF8";
shapes = (
{
closed = 1;
nodes = (
(14,65,o),
(49,1,o),
(126,1,cs),
(223,1,o),
(294,79,o),
(336,158,c),
(341,158,l),
(300,74,o),
(227,-9,o),
(125,-9,cs),
(42,-9,o),
(3,60,o),
(29,136,cs),
(60,225,o),
(158,280,o),
(249,280,cs),
(295,280,o),
(331,265,o),
(364,235,c),
(360,226,l),
(328,256,o),
(292,270,o),
(247,270,cs),
(162,270,o),
(69,218,o),
(39,135,cs)
);
},
{
closed = 1;
nodes = (
(155,405,l),
(205,437,o),
(262,471,o),
(324,469,cs),
(411,466,o),
(419,389,o),
(399,320,cs),
(288,0,l),
(278,0,l),
(390,320,ls),
(409,384,o),
(404,456,o),
(323,459,cs),
(263,462,o),
(207,427,o),
(159,396,c)
);
},
{
closed = 1;
nodes = (
(205,542,l),
(200,549,l),
(399,686,l),
(503,547,l),
(495,540,l),
(397,674,l)
);
}
);
width = 409;
}
);
unicode = 226;
},
{
glyphname = adieresis;
lastChange = "2024-07-24 13:57:39 +0000";
layers = (
{
layerId = m001;
shapes = (
{
closed = 1;
nodes = (
(80,87,o),
(113,64,o),
(157,62,cs),
(239,59,o),
(294,113,o),
(332,179,c),
(331,128,l),
(290,48,o),
(219,-10,o),
(125,-9,cs),
(46,-8,o),
(-9,46,o),
(15,126,cs),
(44,225,o),
(151,286,o),
(251,285,cs),
(305,285,o),
(346,265,o),
(380,224,c),
(365,179,l),
(329,208,o),
(291,225,o),
(244,224,cs),
(186,223,o),
(116,195,o),
(96,135,cs)
);
},
{
closed = 1;
nodes = (
(154,416,l),
(210,446,o),
(270,470,o),
(334,469,cs),
(418,468,o),
(482,419,o),
(459,330,c),
(346,0,l),
(267,0,l),
(384,330,l),
(385,374,o),
(367,396,o),
(320,398,cs),
(268,400,o),
(218,375,o),
(173,352,c)
);
},
{
closed = 1;
nodes = (
(426,611,o),
(464,642,o),
(489,639,cs),
(516,636,o),
(532,609,o),
(526,583,cs),
(520,559,o),
(481,528,o),
(456,531,cs),
(429,534,o),
(414,561,o),
(420,587,cs)
);
},
{
closed = 1;
nodes = (
(238,611,o),
(276,642,o),
(301,639,cs),
(328,636,o),
(343,609,o),
(337,583,cs),
(331,559,o),
(293,528,o),
(268,531,cs),
(241,534,o),
(226,561,o),
(232,587,cs)
);
}
);
width = 456;
},
{
layerId = "E79D52FD-16C9-4CD8-B33B-848E03DA3A4F";
shapes = (
{
closed = 1;
nodes = (
(192,119,o),
(207,109,o),
(222,107,cs),
(274,102,o),
(309,152,o),
(334,189,c),
(332,128,l),
(295,47,o),
(227,-8,o),
(135,-9,cs),
(52,-10,o),
(-19,42,o),
(6,131,cs),
(34,228,o),
(143,273,o),
(236,274,cs),
(290,275,o),
(338,262,o),
(382,231,c),
(357,148,l),
(332,168,o),
(308,182,o),
(274,180,cs),
(250,178,o),
(203,164,o),
(196,137,cs)
);
},
{
closed = 1;
nodes = (
(145,426,l),
(218,452,o),
(294,475,o),
(372,475,cs),
(465,475,o),
(582,435,o),
(555,320,c),
(447,0,l),
(266,0,l),
(365,273,l),
(373,307,o),
(360,326,o),
(325,331,cs),
(273,338,o),
(215,314,o),
(167,297,c)
);
},
{
closed = 1;
nodes = (
(476,689,o),
(535,730,o),
(589,730,cs),
(644,730,o),
(683,685,o),
(668,630,cs),
(653,577,o),
(594,536,o),
(540,536,cs),
(485,536,o),
(446,581,o),
(461,636,cs)
);
},
{
closed = 1;
nodes = (
(222,689,o),
(281,730,o),
(335,730,cs),
(390,730,o),
(429,685,o),
(414,630,cs),
(399,577,o),
(340,536,o),
(286,536,cs),
(231,536,o),
(192,581,o),
(207,636,cs)
);
}
);
width = 545;
},
{
layerId = "6A4E6D7A-FBCF-4CEF-9028-EBF7BE717EF8";
shapes = (
{
closed = 1;
nodes = (
(14,65,o),
(49,1,o),
(126,1,cs),
(223,1,o),
(294,79,o),
(336,158,c),
(341,158,l),
(300,74,o),
(227,-9,o),
(125,-9,cs),
(42,-9,o),
(3,60,o),
(29,136,cs),
(60,225,o),
(158,280,o),
(249,280,cs),
(295,280,o),
(331,265,o),
(364,235,c),
(360,226,l),
(328,256,o),
(292,270,o),
(247,270,cs),
(162,270,o),
(69,218,o),
(39,135,cs)
);
},
{
closed = 1;
nodes = (
(155,405,l),
(205,437,o),
(262,471,o),
(324,469,cs),
(411,466,o),
(419,389,o),
(399,320,cs),
(288,0,l),
(278,0,l),
(390,320,ls),
(409,384,o),
(404,456,o),
(323,459,cs),
(263,462,o),
(207,427,o),
(159,396,c)
);
},
{
closed = 1;
nodes = (
(413,565,o),
(421,572,o),
(426,572,cs),
(431,572,o),
(434,566,o),
(433,561,cs),
(432,557,o),
(424,550,o),
(419,550,cs),
(414,550,o),
(411,556,o),
(412,561,cs)
);
},
{
closed = 1;
nodes = (
(262,565,o),
(270,572,o),
(275,572,cs),
(280,572,o),
(283,566,o),
(282,561,cs),
(281,557,o),
(273,550,o),
(268,550,cs),
(263,550,o),
(260,556,o),
(261,561,cs)
);
}
);
width = 409;
}
);
unicode = 228;
},
